<svg width="291" height="100" viewBox="0 0 291 100" fill="none" xmlns="http://www.w3.org/2000/svg">
<line x1="0.00862064" y1="96.5" x2="290.009" y2="97.5" stroke="#3356D3" stroke-width="5"/>
<path fill-rule="evenodd" clip-rule="evenodd" d="M60.1716 18.8273C58.3521 17.0065 55.9307 16 53.3632 16C50.7957 16 48.3743 17.0065 46.5548 18.816L6.0105 59.3608L6.508 72.4005L20.0692 72.5362L60.1716 32.4439C63.9255 28.6892 63.9255 22.5821 60.1716 18.8273ZM17.4321 66.1014L12.6832 66.0559L12.5232 61.9281L43.5559 30.8947L48.0925 35.4298L17.4321 66.1014ZM52.6535 30.8832L55.6385 27.8975C56.8805 26.6536 56.8805 24.6177 55.6385 23.3624C54.4278 22.1524 52.3126 22.1524 51.1019 23.3624L48.1169 26.3481L52.6535 30.8832Z" fill="#3356D3"/>
<path d="M76.21 12.06V25.02C76.21 26.44 76.58 27.53 77.32 28.29C78.06 29.03 79.1 29.4 80.44 29.4C81.8 29.4 82.85 29.03 83.59 28.29C84.33 27.53 84.7 26.44 84.7 25.02V12.06H88.93V24.99C88.93 26.77 88.54 28.28 87.76 29.52C87 30.74 85.97 31.66 84.67 32.28C83.39 32.9 81.96 33.21 80.38 33.21C78.82 33.21 77.4 32.9 76.12 32.28C74.86 31.66 73.86 30.74 73.12 29.52C72.38 28.28 72.01 26.77 72.01 24.99V12.06H76.21ZM95.118 14.4C94.358 14.4 93.728 14.17 93.228 13.71C92.748 13.23 92.508 12.64 92.508 11.94C92.508 11.24 92.748 10.66 93.228 10.2C93.728 9.72 94.358 9.48 95.118 9.48C95.858 9.48 96.468 9.72 96.948 10.2C97.428 10.66 97.668 11.24 97.668 11.94C97.668 12.64 97.428 13.23 96.948 13.71C96.468 14.17 95.858 14.4 95.118 14.4ZM97.188 35.73C97.188 37.57 96.728 38.89 95.808 39.69C94.908 40.51 93.608 40.92 91.908 40.92H90.048V37.35H91.248C91.888 37.35 92.338 37.22 92.598 36.96C92.858 36.72 92.988 36.32 92.988 35.76V16.38H97.188V35.73ZM103.468 14.4C102.728 14.4 102.108 14.17 101.608 13.71C101.128 13.23 100.888 12.64 100.888 11.94C100.888 11.24 101.128 10.66 101.608 10.2C102.108 9.72 102.728 9.48 103.468 9.48C104.208 9.48 104.818 9.72 105.298 10.2C105.798 10.66 106.048 11.24 106.048 11.94C106.048 12.64 105.798 13.23 105.298 13.71C104.818 14.17 104.208 14.4 103.468 14.4ZM105.538 16.38V33H101.338V16.38H105.538ZM83.89 78L76.27 68.67V78H72.07V57.06H76.27V66.45L83.89 57.06H88.96L80.32 67.44L89.2 78H83.89ZM107.413 69.33C107.413 69.93 107.373 70.47 107.293 70.95H95.1426C95.2426 72.15 95.6626 73.09 96.4026 73.77C97.1426 74.45 98.0526 74.79 99.1326 74.79C100.693 74.79 101.803 74.12 102.463 72.78H106.993C106.513 74.38 105.593 75.7 104.233 76.74C102.873 77.76 101.203 78.27 99.2226 78.27C97.6226 78.27 96.1826 77.92 94.9026 77.22C93.6426 76.5 92.6526 75.49 91.9326 74.19C91.2326 72.89 90.8826 71.39 90.8826 69.69C90.8826 67.97 91.2326 66.46 91.9326 65.16C92.6326 63.86 93.6126 62.86 94.8726 62.16C96.1326 61.46 97.5826 61.11 99.2226 61.11C100.803 61.11 102.213 61.45 103.453 62.13C104.713 62.81 105.683 63.78 106.363 65.04C107.063 66.28 107.413 67.71 107.413 69.33ZM103.063 68.13C103.043 67.05 102.653 66.19 101.893 65.55C101.133 64.89 100.203 64.56 99.1026 64.56C98.0626 64.56 97.1826 64.88 96.4626 65.52C95.7626 66.14 95.3326 67.01 95.1726 68.13H103.063ZM131.118 61.14C133.158 61.14 134.798 61.77 136.038 63.03C137.298 64.27 137.928 66.01 137.928 68.25V78H133.728V68.82C133.728 67.52 133.398 66.53 132.738 65.85C132.078 65.15 131.178 64.8 130.038 64.8C128.898 64.8 127.988 65.15 127.308 65.85C126.648 66.53 126.318 67.52 126.318 68.82V78H122.118V68.82C122.118 67.52 121.788 66.53 121.128 65.85C120.468 65.15 119.568 64.8 118.428 64.8C117.268 64.8 116.348 65.15 115.668 65.85C115.008 66.53 114.678 67.52 114.678 68.82V78H110.478V61.38H114.678V63.39C115.218 62.69 115.908 62.14 116.748 61.74C117.608 61.34 118.548 61.14 119.568 61.14C120.868 61.14 122.028 61.42 123.048 61.98C124.068 62.52 124.858 63.3 125.418 64.32C125.958 63.36 126.738 62.59 127.758 62.01C128.798 61.43 129.918 61.14 131.118 61.14ZM140.834 69.63C140.834 67.95 141.164 66.46 141.824 65.16C142.504 63.86 143.414 62.86 144.554 62.16C145.714 61.46 147.004 61.11 148.424 61.11C149.664 61.11 150.744 61.36 151.664 61.86C152.604 62.36 153.354 62.99 153.914 63.75V61.38H158.144V78H153.914V75.57C153.374 76.35 152.624 77 151.664 77.52C150.724 78.02 149.634 78.27 148.394 78.27C146.994 78.27 145.714 77.91 144.554 77.19C143.414 76.47 142.504 75.46 141.824 74.16C141.164 72.84 140.834 71.33 140.834 69.63ZM153.914 69.69C153.914 68.67 153.714 67.8 153.314 67.08C152.914 66.34 152.374 65.78 151.694 65.4C151.014 65 150.284 64.8 149.504 64.8C148.724 64.8 148.004 64.99 147.344 65.37C146.684 65.75 146.144 66.31 145.724 67.05C145.324 67.77 145.124 68.63 145.124 69.63C145.124 70.63 145.324 71.51 145.724 72.27C146.144 73.01 146.684 73.58 147.344 73.98C148.024 74.38 148.744 74.58 149.504 74.58C150.284 74.58 151.014 74.39 151.694 74.01C152.374 73.61 152.914 73.05 153.314 72.33C153.714 71.59 153.914 70.71 153.914 69.69ZM182.886 61.14C184.926 61.14 186.566 61.77 187.806 63.03C189.066 64.27 189.696 66.01 189.696 68.25V78H185.496V68.82C185.496 67.52 185.166 66.53 184.506 65.85C183.846 65.15 182.946 64.8 181.806 64.8C180.666 64.8 179.756 65.15 179.076 65.85C178.416 66.53 178.086 67.52 178.086 68.82V78H173.886V68.82C173.886 67.52 173.556 66.53 172.896 65.85C172.236 65.15 171.336 64.8 170.196 64.8C169.036 64.8 168.116 65.15 167.436 65.85C166.776 66.53 166.446 67.52 166.446 68.82V78H162.246V61.38H166.446V63.39C166.986 62.69 167.676 62.14 168.516 61.74C169.376 61.34 170.316 61.14 171.336 61.14C172.636 61.14 173.796 61.42 174.816 61.98C175.836 62.52 176.626 63.3 177.186 64.32C177.726 63.36 178.506 62.59 179.526 62.01C180.566 61.43 181.686 61.14 182.886 61.14ZM197.881 63.78C198.421 63.02 199.161 62.39 200.101 61.89C201.061 61.37 202.151 61.11 203.371 61.11C204.791 61.11 206.071 61.46 207.211 62.16C208.371 62.86 209.281 63.86 209.941 65.16C210.621 66.44 210.961 67.93 210.961 69.63C210.961 71.33 210.621 72.84 209.941 74.16C209.281 75.46 208.371 76.47 207.211 77.19C206.071 77.91 204.791 78.27 203.371 78.27C202.151 78.27 201.071 78.02 200.131 77.52C199.211 77.02 198.461 76.39 197.881 75.63V85.92H193.681V61.38H197.881V63.78ZM206.671 69.63C206.671 68.63 206.461 67.77 206.041 67.05C205.641 66.31 205.101 65.75 204.421 65.37C203.761 64.99 203.041 64.8 202.261 64.8C201.501 64.8 200.781 65 200.101 65.4C199.441 65.78 198.901 66.34 198.481 67.08C198.081 67.82 197.881 68.69 197.881 69.69C197.881 70.69 198.081 71.56 198.481 72.3C198.901 73.04 199.441 73.61 200.101 74.01C200.781 74.39 201.501 74.58 202.261 74.58C203.041 74.58 203.761 74.38 204.421 73.98C205.101 73.58 205.641 73.01 206.041 72.27C206.461 71.53 206.671 70.65 206.671 69.63ZM229.703 61.38V78H225.473V75.9C224.933 76.62 224.223 77.19 223.343 77.61C222.483 78.01 221.543 78.21 220.523 78.21C219.223 78.21 218.073 77.94 217.073 77.4C216.073 76.84 215.283 76.03 214.703 74.97C214.143 73.89 213.863 72.61 213.863 71.13V61.38H218.063V70.53C218.063 71.85 218.393 72.87 219.053 73.59C219.713 74.29 220.613 74.64 221.753 74.64C222.913 74.64 223.823 74.29 224.483 73.59C225.143 72.87 225.473 71.85 225.473 70.53V61.38H229.703ZM232.767 69.63C232.767 67.95 233.097 66.46 233.757 65.16C234.437 63.86 235.347 62.86 236.487 62.16C237.647 61.46 238.937 61.11 240.357 61.11C241.597 61.11 242.677 61.36 243.597 61.86C244.537 62.36 245.287 62.99 245.847 63.75V61.38H250.077V78H245.847V75.57C245.307 76.35 244.557 77 243.597 77.52C242.657 78.02 241.567 78.27 240.327 78.27C238.927 78.27 237.647 77.91 236.487 77.19C235.347 76.47 234.437 75.46 233.757 74.16C233.097 72.84 232.767 71.33 232.767 69.63ZM245.847 69.69C245.847 68.67 245.647 67.8 245.247 67.08C244.847 66.34 244.307 65.78 243.627 65.4C242.947 65 242.217 64.8 241.437 64.8C240.657 64.8 239.937 64.99 239.277 65.37C238.617 65.75 238.077 66.31 237.657 67.05C237.257 67.77 237.057 68.63 237.057 69.63C237.057 70.63 237.257 71.51 237.657 72.27C238.077 73.01 238.617 73.58 239.277 73.98C239.957 74.38 240.677 74.58 241.437 74.58C242.217 74.58 242.947 74.39 243.627 74.01C244.307 73.61 244.847 73.05 245.247 72.33C245.647 71.59 245.847 70.71 245.847 69.69ZM263.389 61.14C265.369 61.14 266.969 61.77 268.189 63.03C269.409 64.27 270.019 66.01 270.019 68.25V78H265.819V68.82C265.819 67.5 265.489 66.49 264.829 65.79C264.169 65.07 263.269 64.71 262.129 64.71C260.969 64.71 260.049 65.07 259.369 65.79C258.709 66.49 258.379 67.5 258.379 68.82V78H254.179V61.38H258.379V63.45C258.939 62.73 259.649 62.17 260.509 61.77C261.389 61.35 262.349 61.14 263.389 61.14ZM280.172 60V56.13H287.402V78H283.082V60H280.172Z" fill="white"/>
<path d="M76.21 12.06H78.21V10.06H76.21V12.06ZM77.32 28.29L75.8871 29.6852L75.8964 29.6948L75.9058 29.7042L77.32 28.29ZM83.59 28.29L85.0042 29.7042L85.0136 29.6948L85.0229 29.6852L83.59 28.29ZM84.7 12.06V10.06H82.7V12.06H84.7ZM88.93 12.06H90.93V10.06H88.93V12.06ZM87.76 29.52L86.0671 28.4551L86.0624 28.4625L87.76 29.52ZM84.67 32.28L83.809 30.4748L83.7981 30.48L84.67 32.28ZM76.12 32.28L75.237 34.0746L75.2481 34.08L76.12 32.28ZM73.12 29.52L71.4026 30.5449L71.4063 30.5511L71.41 30.5572L73.12 29.52ZM72.01 12.06V10.06H70.01V12.06H72.01ZM74.21 12.06V25.02H78.21V12.06H74.21ZM74.21 25.02C74.21 26.7798 74.674 28.4394 75.8871 29.6852L78.7529 26.8948C78.486 26.6206 78.21 26.1002 78.21 25.02H74.21ZM75.9058 29.7042C77.1183 30.9167 78.7254 31.4 80.44 31.4V27.4C79.4746 27.4 79.0017 27.1433 78.7342 26.8758L75.9058 29.7042ZM80.44 31.4C82.1648 31.4 83.7863 30.9221 85.0042 29.7042L82.1758 26.8758C81.9137 27.1379 81.4352 27.4 80.44 27.4V31.4ZM85.0229 29.6852C86.236 28.4394 86.7 26.7798 86.7 25.02H82.7C82.7 26.1002 82.424 26.6206 82.1571 26.8948L85.0229 29.6852ZM86.7 25.02V12.06H82.7V25.02H86.7ZM84.7 14.06H88.93V10.06H84.7V14.06ZM86.93 12.06V24.99H90.93V12.06H86.93ZM86.93 24.99C86.93 26.4746 86.6071 27.5966 86.0671 28.4551L89.4529 30.5849C90.4729 28.9634 90.93 27.0654 90.93 24.99H86.93ZM86.0624 28.4625C85.5047 29.3578 84.7653 30.0187 83.8091 30.4748L85.5309 34.0852C87.1747 33.3013 88.4953 32.1222 89.4576 30.5775L86.0624 28.4625ZM83.7981 30.48C82.8188 30.9544 81.6919 31.21 80.38 31.21V35.21C82.2281 35.21 83.9612 34.8456 85.5419 34.08L83.7981 30.48ZM80.38 31.21C79.0923 31.21 77.9746 30.956 76.9919 30.48L75.2481 34.08C76.8254 34.844 78.5477 35.21 80.38 35.21V31.21ZM77.003 30.4855C76.091 30.0367 75.3756 29.3822 74.83 28.4828L71.41 30.5572C72.3444 32.0978 73.629 33.2833 75.237 34.0745L77.003 30.4855ZM74.8374 28.4951C74.3209 27.6296 74.01 26.4927 74.01 24.99H70.01C70.01 27.0473 70.4391 28.9304 71.4026 30.5449L74.8374 28.4951ZM74.01 24.99V12.06H70.01V24.99H74.01ZM72.01 14.06H76.21V10.06H72.01V14.06ZM93.228 13.71L91.8138 15.1242L91.8432 15.1537L91.8739 15.1819L93.228 13.71ZM93.228 10.2L94.6118 11.644L94.613 11.6428L93.228 10.2ZM96.948 10.2L95.5338 11.6142L95.5488 11.6293L95.5642 11.644L96.948 10.2ZM96.948 13.71L98.3318 15.154L98.3471 15.1393L98.3622 15.1242L96.948 13.71ZM95.808 39.69L94.4956 38.1808L94.4781 38.196L94.461 38.2116L95.808 39.69ZM90.048 40.92H88.048V42.92H90.048V40.92ZM90.048 37.35V35.35H88.048V37.35H90.048ZM92.598 36.96L91.2414 35.4904L91.212 35.5175L91.1838 35.5458L92.598 36.96ZM92.988 16.38V14.38H90.988V16.38H92.988ZM97.188 16.38H99.188V14.38H97.188V16.38ZM95.118 12.4C94.7954 12.4 94.6682 12.3174 94.5821 12.2381L91.8739 15.1819C92.7877 16.0226 93.9206 16.4 95.118 16.4V12.4ZM94.6422 12.2958C94.5501 12.2037 94.508 12.1281 94.508 11.94H90.508C90.508 13.1519 90.9458 14.2563 91.8138 15.1242L94.6422 12.2958ZM94.508 11.94C94.508 11.7529 94.5481 11.705 94.6118 11.644L91.8442 8.75602C90.9478 9.61502 90.508 10.7271 90.508 11.94H94.508ZM94.613 11.6428C94.7031 11.5563 94.8198 11.48 95.118 11.48V7.48C93.8961 7.48 92.7529 7.88366 91.8429 8.75722L94.613 11.6428ZM95.118 11.48C95.3802 11.48 95.4645 11.5449 95.5338 11.6142L98.3622 8.78578C97.4714 7.89505 96.3357 7.48 95.118 7.48V11.48ZM95.5642 11.644C95.6278 11.705 95.668 11.7529 95.668 11.94H99.668C99.668 10.7271 99.2281 9.61502 98.3318 8.75602L95.5642 11.644ZM95.668 11.94C95.668 12.1281 95.6258 12.2037 95.5338 12.2958L98.3622 15.1242C99.2301 14.2563 99.668 13.1519 99.668 11.94H95.668ZM95.5642 12.266C95.4999 12.3276 95.4057 12.4 95.118 12.4V16.4C96.3102 16.4 97.436 16.0124 98.3318 15.154L95.5642 12.266ZM95.188 35.73C95.188 37.2882 94.7958 37.9198 94.4956 38.1808L97.1203 41.1992C98.6601 39.8602 99.188 37.8518 99.188 35.73H95.188ZM94.461 38.2116C94.0533 38.5831 93.3075 38.92 91.908 38.92V42.92C93.9084 42.92 95.7627 42.4369 97.1549 41.1684L94.461 38.2116ZM91.908 38.92H90.048V42.92H91.908V38.92ZM92.048 40.92V37.35H88.048V40.92H92.048ZM90.048 39.35H91.248V35.35H90.048V39.35ZM91.248 39.35C92.0541 39.35 93.1807 39.2057 94.0122 38.3742L91.1838 35.5458C91.3494 35.3801 91.4977 35.3347 91.5104 35.3311C91.5179 35.3289 91.5019 35.3342 91.4555 35.3397C91.4095 35.3452 91.3414 35.35 91.248 35.35V39.35ZM93.9545 38.4296C94.8113 37.6387 94.988 36.5598 94.988 35.76H90.988C90.988 35.8952 90.9711 35.9152 90.9884 35.8618C91.0093 35.7975 91.076 35.6431 91.2414 35.4904L93.9545 38.4296ZM94.988 35.76V16.38H90.988V35.76H94.988ZM92.988 18.38H97.188V14.38H92.988V18.38ZM95.188 16.38V35.73H99.188V16.38H95.188ZM101.608 13.71L100.193 15.1242L100.223 15.1537L100.253 15.1819L101.608 13.71ZM101.608 10.2L102.991 11.644L102.993 11.6428L101.608 10.2ZM105.298 10.2L103.883 11.6142L103.913 11.6437L103.943 11.6719L105.298 10.2ZM105.298 13.71L106.681 15.154L106.683 15.1528L105.298 13.71ZM105.538 16.38H107.538V14.38H105.538V16.38ZM105.538 33V35H107.538V33H105.538ZM101.338 33H99.3376V35H101.338V33ZM101.338 16.38V14.38H99.3376V16.38H101.338ZM103.468 12.4C103.181 12.4 103.058 12.3269 102.962 12.2381L100.253 15.1819C101.157 16.0131 102.275 16.4 103.468 16.4V12.4ZM103.022 12.2958C102.93 12.2037 102.888 12.1281 102.888 11.94H98.8876C98.8876 13.1519 99.3254 14.2563 100.193 15.1242L103.022 12.2958ZM102.888 11.94C102.888 11.7529 102.928 11.705 102.991 11.644L100.224 8.75602C99.3274 9.61502 98.8876 10.7271 98.8876 11.94H102.888ZM102.993 11.6428C103.093 11.5461 103.205 11.48 103.468 11.48V7.48C102.25 7.48 101.122 7.89389 100.223 8.75722L102.993 11.6428ZM103.468 11.48C103.73 11.48 103.814 11.5449 103.883 11.6142L106.712 8.78578C105.821 7.89505 104.685 7.48 103.468 7.48V11.48ZM103.943 11.6719C104.002 11.7262 104.018 11.7589 104.023 11.7717C104.03 11.7858 104.048 11.8326 104.048 11.94H108.048C108.048 10.6999 107.577 9.57967 106.652 8.72814L103.943 11.6719ZM104.048 11.94C104.048 12.1015 104.015 12.1686 103.913 12.2672L106.683 15.1528C107.58 14.2914 108.048 13.1785 108.048 11.94H104.048ZM103.914 12.266C103.85 12.3276 103.755 12.4 103.468 12.4V16.4C104.66 16.4 105.786 16.0124 106.681 15.154L103.914 12.266ZM103.538 16.38V33H107.538V16.38H103.538ZM105.538 31H101.338V35H105.538V31ZM103.338 33V16.38H99.3376V33H103.338ZM101.338 18.38H105.538V14.38H101.338V18.38ZM83.89 78L82.341 79.2651L82.9412 80H83.89V78ZM76.27 68.67L77.819 67.4049L74.27 63.0594V68.67H76.27ZM76.27 78V80H78.27V78H76.27ZM72.07 78H70.07V80H72.07V78ZM72.07 57.06V55.06H70.07V57.06H72.07ZM76.27 57.06H78.27V55.06H76.27V57.06ZM76.27 66.45H74.27V72.0885L77.823 67.7103L76.27 66.45ZM83.89 57.06V55.06H82.9373L82.337 55.7997L83.89 57.06ZM88.96 57.06L90.4972 58.3395L93.2269 55.06H88.96V57.06ZM80.32 67.44L78.7828 66.1605L77.7124 67.4465L78.7893 68.7272L80.32 67.44ZM89.2 78V80H93.495L90.7307 76.7128L89.2 78ZM85.439 76.7349L77.819 67.4049L74.721 69.9351L82.341 79.2651L85.439 76.7349ZM74.27 68.67V78H78.27V68.67H74.27ZM76.27 76H72.07V80H76.27V76ZM74.07 78V57.06H70.07V78H74.07ZM72.07 59.06H76.27V55.06H72.07V59.06ZM74.27 57.06V66.45H78.27V57.06H74.27ZM77.823 67.7103L85.443 58.3203L82.337 55.7997L74.717 65.1898L77.823 67.7103ZM83.89 59.06H88.96V55.06H83.89V59.06ZM87.4228 55.7805L78.7828 66.1605L81.8572 68.7195L90.4972 58.3395L87.4228 55.7805ZM78.7893 68.7272L87.6693 79.2872L90.7307 76.7128L81.8507 66.1528L78.7893 68.7272ZM89.2 76H83.89V80H89.2V76ZM107.293 70.95V72.95H108.987L109.265 71.2788L107.293 70.95ZM95.1426 70.95V68.95H92.969L93.1495 71.1161L95.1426 70.95ZM96.4026 73.77L95.0493 75.2427L96.4026 73.77ZM102.463 72.78V70.78H101.218L100.668 71.8963L102.463 72.78ZM106.993 72.78L108.908 73.3547L109.681 70.78H106.993V72.78ZM104.233 76.74L105.433 78.34L105.44 78.3344L105.447 78.3287L104.233 76.74ZM94.9026 77.22L93.9103 78.9565L93.9265 78.9658L93.943 78.9747L94.9026 77.22ZM91.9326 74.19L90.1716 75.1382L90.1773 75.1486L90.183 75.159L91.9326 74.19ZM91.9326 65.16L90.1716 64.2118L91.9326 65.16ZM94.8726 62.16L95.8439 63.9083L94.8726 62.16ZM103.453 62.13L102.491 63.8837L102.503 63.89L103.453 62.13ZM106.363 65.04L104.603 65.9899L104.612 66.0066L104.621 66.0232L106.363 65.04ZM103.063 68.13V70.13H105.1L105.062 68.093L103.063 68.13ZM101.893 65.55L100.581 67.0601L100.593 67.07L100.604 67.0798L101.893 65.55ZM96.4626 65.52L97.7887 67.0172L97.7913 67.0148L96.4626 65.52ZM95.1726 68.13L93.1927 67.8472L92.8666 70.13H95.1726V68.13ZM105.413 69.33C105.413 69.8441 105.378 70.2715 105.32 70.6212L109.265 71.2788C109.367 70.6685 109.413 70.0159 109.413 69.33H105.413ZM107.293 68.95H95.1426V72.95H107.293V68.95ZM93.1495 71.1161C93.2824 72.7116 93.8688 74.1578 95.0493 75.2427L97.7558 72.2973C97.4564 72.0222 97.2027 71.5884 97.1357 70.7839L93.1495 71.1161ZM95.0493 75.2427C96.1874 76.2885 97.5922 76.79 99.1326 76.79V72.79C98.513 72.79 98.0977 72.6115 97.7558 72.2973L95.0493 75.2427ZM99.1326 76.79C100.203 76.79 101.244 76.558 102.169 75.9998C103.099 75.4383 103.784 74.6235 104.257 73.6637L100.668 71.8963C100.481 72.2765 100.281 72.4667 100.102 72.5752C99.9165 72.687 99.6226 72.79 99.1326 72.79V76.79ZM102.463 74.78H106.993V70.78H102.463V74.78ZM105.077 72.2053C104.721 73.3913 104.052 74.3603 103.018 75.1513L105.447 78.3287C107.133 77.0397 108.304 75.3687 108.908 73.3547L105.077 72.2053ZM103.033 75.14C102.074 75.8592 100.844 76.27 99.2226 76.27V80.27C101.561 80.27 103.672 79.6608 105.433 78.34L103.033 75.14ZM99.2226 76.27C97.9248 76.27 96.8201 75.9891 95.8622 75.4653L93.943 78.9747C95.545 79.8509 97.3204 80.27 99.2226 80.27V76.27ZM95.8949 75.4835C94.9607 74.9497 94.2292 74.2088 93.6822 73.221L90.183 75.159C91.0759 76.7712 92.3244 78.0503 93.9103 78.9565L95.8949 75.4835ZM93.6935 73.2418C93.1728 72.2747 92.8826 71.1095 92.8826 69.69H88.8826C88.8826 71.6705 89.2924 73.5053 90.1716 75.1382L93.6935 73.2418ZM92.8826 69.69C92.8826 68.2462 93.1745 67.0721 93.6935 66.1082L90.1716 64.2118C89.2906 65.8479 88.8826 67.6938 88.8826 69.69H92.8826ZM93.6935 66.1082C94.2169 65.1362 94.9267 64.4179 95.8439 63.9083L93.9013 60.4117C92.2985 61.3021 91.0483 62.5838 90.1716 64.2118L93.6935 66.1082ZM95.8439 63.9083C96.7678 63.395 97.875 63.11 99.2226 63.11V59.11C97.2902 59.11 95.4973 59.525 93.9013 60.4117L95.8439 63.9083ZM99.2226 63.11C100.507 63.11 101.579 63.3835 102.491 63.8836L104.414 60.3764C102.846 59.5165 101.099 59.11 99.2226 59.11V63.11ZM102.503 63.89C103.419 64.3848 104.108 65.0732 104.603 65.9899L108.123 64.0901C107.257 62.4868 106.006 61.2352 104.402 60.37L102.503 63.89ZM104.621 66.0232C105.129 66.9239 105.413 68.0063 105.413 69.33H109.413C109.413 67.4137 108.996 65.6361 108.104 64.0568L104.621 66.0232ZM105.062 68.093C105.033 66.4927 104.424 65.0669 103.181 64.0202L100.604 67.0798C100.881 67.3131 101.053 67.6073 101.063 68.167L105.062 68.093ZM103.204 64.0399C102.045 63.0337 100.636 62.56 99.1026 62.56V66.56C99.7689 66.56 100.22 66.7463 100.581 67.0601L103.204 64.0399ZM99.1026 62.56C97.6151 62.56 96.2504 63.0327 95.1339 64.0252L97.7913 67.0148C98.1148 66.7273 98.5101 66.56 99.1026 66.56V62.56ZM95.1365 64.0228C94.0109 65.0198 93.4051 66.3604 93.1927 67.8472L97.1525 68.4128C97.2601 67.6596 97.5143 67.2602 97.7886 67.0172L95.1365 64.0228ZM95.1726 70.13H103.063V66.13H95.1726V70.13ZM136.038 63.03L134.613 64.4329L134.624 64.4443L134.635 64.4555L136.038 63.03ZM137.928 78V80H139.928V78H137.928ZM133.728 78H131.728V80H133.728V78ZM132.738 65.85L131.283 67.222L131.293 67.2326L131.303 67.243L132.738 65.85ZM127.308 65.85L125.874 64.4564L125.873 64.457L127.308 65.85ZM126.318 78V80H128.318V78H126.318ZM122.118 78H120.118V80H122.118V78ZM121.128 65.85L119.673 67.222L119.683 67.2326L119.693 67.243L121.128 65.85ZM115.668 65.85L114.234 64.4564L114.233 64.457L115.668 65.85ZM114.678 78V80H116.678V78H114.678ZM110.478 78H108.478V80H110.478V78ZM110.478 61.38V59.38H108.478V61.38H110.478ZM114.678 61.38H116.678V59.38H114.678V61.38ZM114.678 63.39H112.678V69.257L116.262 64.6116L114.678 63.39ZM116.748 61.74L115.905 59.9266L115.897 59.9304L115.888 59.9343L116.748 61.74ZM123.048 61.98L122.086 63.7332L122.099 63.7405L122.112 63.7476L123.048 61.98ZM125.418 64.32L123.665 65.2825L125.397 68.4371L127.161 65.3005L125.418 64.32ZM127.758 62.01L126.784 60.2633L126.777 60.2673L126.77 60.2714L127.758 62.01ZM131.118 63.14C132.712 63.14 133.807 63.6143 134.613 64.4329L137.464 61.6271C135.789 59.9257 133.605 59.14 131.118 59.14V63.14ZM134.635 64.4555C135.418 65.2254 135.928 66.3951 135.928 68.25H139.928C139.928 65.6249 139.179 63.3145 137.441 61.6045L134.635 64.4555ZM135.928 68.25V78H139.928V68.25H135.928ZM137.928 76H133.728V80H137.928V76ZM135.728 78V68.82H131.728V78H135.728ZM135.728 68.82C135.728 67.1968 135.313 65.631 134.173 64.457L131.303 67.243C131.484 67.429 131.728 67.8432 131.728 68.82H135.728ZM134.193 64.478C133.086 63.3033 131.619 62.8 130.038 62.8V66.8C130.738 66.8 131.071 66.9967 131.283 67.222L134.193 64.478ZM130.038 62.8C128.456 62.8 126.994 63.3033 125.874 64.4564L128.743 67.2436C128.983 66.9967 129.34 66.8 130.038 66.8V62.8ZM125.873 64.457C124.734 65.631 124.318 67.1968 124.318 68.82H128.318C128.318 67.8432 128.563 67.429 128.743 67.243L125.873 64.457ZM124.318 68.82V78H128.318V68.82H124.318ZM126.318 76H122.118V80H126.318V76ZM124.118 78V68.82H120.118V78H124.118ZM124.118 68.82C124.118 67.1968 123.703 65.631 122.563 64.457L119.693 67.243C119.874 67.429 120.118 67.8432 120.118 68.82H124.118ZM122.583 64.478C121.476 63.3033 120.009 62.8 118.428 62.8V66.8C119.128 66.8 119.461 66.9967 119.673 67.222L122.583 64.478ZM118.428 62.8C116.838 62.8 115.361 63.2964 114.234 64.4564L117.103 67.2436C117.336 67.0036 117.699 66.8 118.428 66.8V62.8ZM114.233 64.457C113.094 65.631 112.678 67.1968 112.678 68.82H116.678C116.678 67.8432 116.923 67.429 117.103 67.243L114.233 64.457ZM112.678 68.82V78H116.678V68.82H112.678ZM114.678 76H110.478V80H114.678V76ZM112.478 78V61.38H108.478V78H112.478ZM110.478 63.38H114.678V59.38H110.478V63.38ZM112.678 61.38V63.39H116.678V61.38H112.678ZM116.262 64.6116C116.6 64.1735 117.037 63.8179 117.608 63.5457L115.888 59.9343C114.78 60.4621 113.837 61.2065 113.095 62.1684L116.262 64.6116ZM117.592 63.5534C118.168 63.2854 118.817 63.14 119.568 63.14V59.14C118.279 59.14 117.048 59.3946 115.905 59.9266L117.592 63.5534ZM119.568 63.14C120.572 63.14 121.394 63.3534 122.086 63.7332L124.011 60.2268C122.662 59.4866 121.165 59.14 119.568 59.14V63.14ZM122.112 63.7476C122.784 64.1032 123.291 64.6019 123.665 65.2825L127.171 63.3575C126.425 61.9981 125.352 60.9368 123.984 60.2124L122.112 63.7476ZM127.161 65.3005C127.512 64.6778 128.021 64.1613 128.747 63.7486L126.77 60.2714C125.455 61.0187 124.405 62.0422 123.675 63.3395L127.161 65.3005ZM128.732 63.7567C129.472 63.3442 130.256 63.14 131.118 63.14V59.14C129.58 59.14 128.124 59.5158 126.784 60.2633L128.732 63.7567ZM141.824 65.16L140.052 64.233L140.046 64.2438L140.04 64.2546L141.824 65.16ZM144.554 62.16L143.52 60.4476L143.514 60.4516L143.507 60.4557L144.554 62.16ZM151.664 61.86L150.709 63.6172L150.717 63.6215L150.725 63.6257L151.664 61.86ZM153.914 63.75L152.304 64.9364L155.914 69.8358V63.75H153.914ZM153.914 61.38V59.38H151.914V61.38H153.914ZM158.144 61.38H160.144V59.38H158.144V61.38ZM158.144 78V80H160.144V78H158.144ZM153.914 78H151.914V80H153.914V78ZM153.914 75.57H155.914V69.1675L152.269 74.4316L153.914 75.57ZM151.664 77.52L152.603 79.2857L152.61 79.2822L152.616 79.2786L151.664 77.52ZM144.554 77.19L143.486 78.881L143.492 78.8852L143.499 78.8893L144.554 77.19ZM141.824 74.16L140.035 75.0544L140.043 75.0708L140.052 75.087L141.824 74.16ZM153.314 67.08L151.554 68.031L151.56 68.0412L151.565 68.0513L153.314 67.08ZM151.694 65.4L150.68 67.1239L150.699 67.1351L150.718 67.1459L151.694 65.4ZM147.344 65.37L146.346 63.6368H146.346L147.344 65.37ZM145.724 67.05L143.984 66.0628L143.98 66.0707L143.975 66.0787L145.724 67.05ZM145.724 72.27L143.954 73.2015L143.969 73.2296L143.984 73.2572L145.724 72.27ZM147.344 73.98L146.307 75.6904L146.318 75.6972L146.33 75.7039L147.344 73.98ZM151.694 74.01L152.669 75.7559L152.689 75.7451L152.708 75.7339L151.694 74.01ZM153.314 72.33L155.062 73.3013L155.068 73.2912L155.073 73.281L153.314 72.33ZM142.834 69.63C142.834 68.2166 143.11 67.0449 143.607 66.0654L140.04 64.2546C139.218 65.8751 138.834 67.6834 138.834 69.63H142.834ZM143.596 66.087C144.125 65.075 144.797 64.3575 145.6 63.8643L143.507 60.4557C142.03 61.3625 140.882 62.645 140.052 64.233L143.596 66.087ZM145.587 63.8724C146.42 63.3698 147.35 63.11 148.424 63.11V59.11C146.658 59.11 145.008 59.5502 143.52 60.4476L145.587 63.8724ZM148.424 63.11C149.392 63.11 150.131 63.3035 150.709 63.6172L152.619 60.1027C151.356 59.4165 149.936 59.11 148.424 59.11V63.11ZM150.725 63.6257C151.434 64.0033 151.943 64.4464 152.304 64.9364L155.524 62.5636C154.765 61.5336 153.773 60.7167 152.603 60.0943L150.725 63.6257ZM155.914 63.75V61.38H151.914V63.75H155.914ZM153.914 63.38H158.144V59.38H153.914V63.38ZM156.144 61.38V78H160.144V61.38H156.144ZM158.144 76H153.914V80H158.144V76ZM155.914 78V75.57H151.914V78H155.914ZM152.269 74.4316C151.933 74.917 151.437 75.3683 150.711 75.7614L152.616 79.2786C153.811 78.6317 154.814 77.783 155.558 76.7084L152.269 74.4316ZM150.725 75.7543C150.118 76.0769 149.36 76.27 148.394 76.27V80.27C149.907 80.27 151.33 79.9631 152.603 79.2857L150.725 75.7543ZM148.394 76.27C147.356 76.27 146.443 76.009 145.608 75.4907L143.499 78.8893C144.984 79.811 146.631 80.27 148.394 80.27V76.27ZM145.622 75.499C144.806 74.9836 144.127 74.2491 143.596 73.233L140.052 75.087C140.88 76.6709 142.022 77.9564 143.486 78.881L145.622 75.499ZM143.613 73.2656C143.111 72.2627 142.834 71.0668 142.834 69.63H138.834C138.834 71.5932 139.216 73.4173 140.035 75.0544L143.613 73.2656ZM155.914 69.69C155.914 68.4101 155.662 67.1887 155.062 66.1087L151.565 68.0513C151.765 68.4113 151.914 68.9298 151.914 69.69H155.914ZM155.073 66.129C154.508 65.0828 153.707 64.2341 152.669 63.6541L150.718 67.1459C151.04 67.3259 151.32 67.5972 151.554 68.031L155.073 66.129ZM152.708 63.6761C151.724 63.0975 150.645 62.8 149.504 62.8V66.8C149.923 66.8 150.303 66.9025 150.68 67.1239L152.708 63.6761ZM149.504 62.8C148.382 62.8 147.317 63.0776 146.346 63.6368L148.342 67.1032C148.691 66.9024 149.065 66.8 149.504 66.8V62.8ZM146.346 63.6368C145.341 64.2151 144.559 65.0497 143.984 66.0628L147.463 68.0372C147.728 67.5703 148.026 67.2849 148.342 67.1032L146.346 63.6368ZM143.975 66.0787C143.378 67.1532 143.124 68.3624 143.124 69.63H147.124C147.124 68.8975 147.269 68.3868 147.472 68.0213L143.975 66.0787ZM143.124 69.63C143.124 70.9011 143.38 72.1104 143.954 73.2015L147.494 71.3385C147.268 70.9096 147.124 70.3589 147.124 69.63H143.124ZM143.984 73.2572C144.555 74.2632 145.326 75.0956 146.307 75.6904L148.38 72.2696C148.042 72.0644 147.732 71.7568 147.463 71.2828L143.984 73.2572ZM146.33 75.7039C147.305 76.2775 148.373 76.58 149.504 76.58V72.58C149.114 72.58 148.743 72.4825 148.358 72.2561L146.33 75.7039ZM149.504 76.58C150.625 76.58 151.691 76.3027 152.669 75.7559L150.718 72.2641C150.337 72.4773 149.943 72.58 149.504 72.58V76.58ZM152.708 75.7339C153.709 75.1449 154.497 74.3188 155.062 73.3013L151.565 71.3587C151.331 71.7812 151.038 72.0751 150.68 72.2861L152.708 75.7339ZM155.073 73.281C155.661 72.1929 155.914 70.972 155.914 69.69H151.914C151.914 70.448 151.766 70.9871 151.554 71.379L155.073 73.281ZM187.806 63.03L186.38 64.4329L186.392 64.4443L186.403 64.4555L187.806 63.03ZM189.696 78V80H191.696V78H189.696ZM185.496 78H183.496V80H185.496V78ZM184.506 65.85L183.051 67.222L183.061 67.2326L183.071 67.243L184.506 65.85ZM179.076 65.85L177.641 64.4564L177.641 64.457L179.076 65.85ZM178.086 78V80H180.086V78H178.086ZM173.886 78H171.886V80H173.886V78ZM172.896 65.85L171.441 67.222L171.451 67.2326L171.461 67.243L172.896 65.85ZM167.436 65.85L166.001 64.4564L166.001 64.457L167.436 65.85ZM166.446 78V80H168.446V78H166.446ZM162.246 78H160.246V80H162.246V78ZM162.246 61.38V59.38H160.246V61.38H162.246ZM166.446 61.38H168.446V59.38H166.446V61.38ZM166.446 63.39H164.446V69.257L168.029 64.6116L166.446 63.39ZM168.516 61.74L167.672 59.9266L167.664 59.9304L167.656 59.9343L168.516 61.74ZM174.816 61.98L173.853 63.7332L173.867 63.7405L173.88 63.7476L174.816 61.98ZM177.186 64.32L175.433 65.2825L177.165 68.4371L178.929 65.3005L177.186 64.32ZM179.526 62.01L178.552 60.2633L178.544 60.2673L178.537 60.2714L179.526 62.01ZM182.886 63.14C184.479 63.14 185.575 63.6143 186.38 64.4329L189.231 61.6271C187.557 59.9257 185.372 59.14 182.886 59.14V63.14ZM186.403 64.4555C187.185 65.2254 187.696 66.3951 187.696 68.25H191.696C191.696 65.6249 190.946 63.3145 189.209 61.6045L186.403 64.4555ZM187.696 68.25V78H191.696V68.25H187.696ZM189.696 76H185.496V80H189.696V76ZM187.496 78V68.82H183.496V78H187.496ZM187.496 68.82C187.496 67.1968 187.08 65.631 185.941 64.457L183.071 67.243C183.251 67.429 183.496 67.8432 183.496 68.82H187.496ZM185.961 64.478C184.853 63.3033 183.386 62.8 181.806 62.8V66.8C182.505 66.8 182.838 66.9967 183.051 67.222L185.961 64.478ZM181.806 62.8C180.224 62.8 178.761 63.3033 177.641 64.4564L180.51 67.2436C180.75 66.9967 181.108 66.8 181.806 66.8V62.8ZM177.641 64.457C176.501 65.631 176.086 67.1968 176.086 68.82H180.086C180.086 67.8432 180.33 67.429 180.511 67.243L177.641 64.457ZM176.086 68.82V78H180.086V68.82H176.086ZM178.086 76H173.886V80H178.086V76ZM175.886 78V68.82H171.886V78H175.886ZM175.886 68.82C175.886 67.1968 175.47 65.631 174.331 64.457L171.461 67.243C171.641 67.429 171.886 67.8432 171.886 68.82H175.886ZM174.351 64.478C173.243 63.3033 171.776 62.8 170.196 62.8V66.8C170.895 66.8 171.228 66.9967 171.441 67.222L174.351 64.478ZM170.196 62.8C168.605 62.8 167.128 63.2964 166.001 64.4564L168.87 67.2436C169.103 67.0036 169.466 66.8 170.196 66.8V62.8ZM166.001 64.457C164.861 65.631 164.446 67.1968 164.446 68.82H168.446C168.446 67.8432 168.69 67.429 168.871 67.243L166.001 64.457ZM164.446 68.82V78H168.446V68.82H164.446ZM166.446 76H162.246V80H166.446V76ZM164.246 78V61.38H160.246V78H164.246ZM162.246 63.38H166.446V59.38H162.246V63.38ZM164.446 61.38V63.39H168.446V61.38H164.446ZM168.029 64.6116C168.367 64.1735 168.804 63.8179 169.376 63.5457L167.656 59.9343C166.547 60.4621 165.604 61.2065 164.862 62.1684L168.029 64.6116ZM169.359 63.5534C169.935 63.2854 170.585 63.14 171.336 63.14V59.14C170.047 59.14 168.816 59.3946 167.672 59.9266L169.359 63.5534ZM171.336 63.14C172.339 63.14 173.162 63.3534 173.853 63.7332L175.778 60.2268C174.43 59.4866 172.932 59.14 171.336 59.14V63.14ZM173.88 63.7476C174.552 64.1032 175.059 64.6019 175.433 65.2825L178.939 63.3575C178.193 61.9981 177.12 60.9368 175.752 60.2124L173.88 63.7476ZM178.929 65.3005C179.279 64.6778 179.789 64.1613 180.514 63.7486L178.537 60.2714C177.223 61.0187 176.172 62.0422 175.443 63.3395L178.929 65.3005ZM180.5 63.7567C181.24 63.3442 182.024 63.14 182.886 63.14V59.14C181.348 59.14 179.892 59.5158 178.552 60.2633L180.5 63.7567ZM197.881 63.78H195.881V70.0478L199.512 64.9384L197.881 63.78ZM200.101 61.89L201.041 63.6557L201.047 63.6522L201.054 63.6486L200.101 61.89ZM207.211 62.16L206.165 63.8643L206.171 63.8684L206.178 63.8724L207.211 62.16ZM209.941 65.16L208.158 66.0654L208.166 66.0819L208.175 66.0983L209.941 65.16ZM209.941 74.16L208.163 73.2441L208.158 73.2546L209.941 74.16ZM207.211 77.19L206.157 75.4907L206.15 75.4948L206.143 75.499L207.211 77.19ZM200.131 77.52L199.176 79.2773L199.184 79.2815L199.192 79.2857L200.131 77.52ZM197.881 75.63L199.471 74.4167L195.881 69.7126V75.63H197.881ZM197.881 85.92V87.92H199.881V85.92H197.881ZM193.681 85.92H191.681V87.92H193.681V85.92ZM193.681 61.38V59.38H191.681V61.38H193.681ZM197.881 61.38H199.881V59.38H197.881V61.38ZM206.041 67.05L204.282 68.001L204.297 68.0296L204.314 68.0577L206.041 67.05ZM204.421 65.37L203.423 67.1032L203.435 67.1096L203.446 67.1159L204.421 65.37ZM200.101 65.4L201.099 67.1332L201.107 67.1286L201.115 67.1239L200.101 65.4ZM198.481 67.08L196.742 66.0928L196.732 66.1108L196.722 66.129L198.481 67.08ZM198.481 72.3L196.722 73.251L196.732 73.2692L196.742 73.2872L198.481 72.3ZM200.101 74.01L199.065 75.7204L199.095 75.7387L199.126 75.7559L200.101 74.01ZM204.421 73.98L203.407 72.2561L203.396 72.2628L203.385 72.2696L204.421 73.98ZM206.041 72.27L204.302 71.2828L204.292 71.3008L204.282 71.319L206.041 72.27ZM199.512 64.9384C199.848 64.4657 200.336 64.0306 201.041 63.6557L199.162 60.1243C197.987 60.7494 196.995 61.5743 196.251 62.6216L199.512 64.9384ZM201.054 63.6486C201.688 63.3049 202.444 63.11 203.371 63.11V59.11C201.858 59.11 200.434 59.4351 199.149 60.1314L201.054 63.6486ZM203.371 63.11C204.446 63.11 205.359 63.3697 206.165 63.8643L208.258 60.4557C206.783 59.5503 205.137 59.11 203.371 59.11V63.11ZM206.178 63.8724C206.993 64.3641 207.654 65.0728 208.158 66.0654L211.725 64.2546C210.909 62.6472 209.75 61.3559 208.245 60.4476L206.178 63.8724ZM208.175 66.0983C208.677 67.0432 208.961 68.2005 208.961 69.63H212.961C212.961 67.6594 212.566 65.8368 211.708 64.2217L208.175 66.0983ZM208.961 69.63C208.961 71.0578 208.678 72.2459 208.163 73.2441L211.719 75.0759C212.565 73.4341 212.961 71.6022 212.961 69.63H208.961ZM208.158 73.2546C207.652 74.2514 206.984 74.9769 206.157 75.4907L208.266 78.8893C209.758 77.9631 210.911 76.6687 211.725 75.0654L208.158 73.2546ZM206.143 75.499C205.34 76.0062 204.434 76.27 203.371 76.27V80.27C205.148 80.27 206.802 79.8138 208.279 78.881L206.143 75.499ZM203.371 76.27C202.431 76.27 201.682 76.0793 201.071 75.7543L199.192 79.2857C200.461 79.9607 201.872 80.27 203.371 80.27V76.27ZM201.086 75.7627C200.39 75.3844 199.865 74.9321 199.471 74.4167L196.291 76.8433C197.058 77.8479 198.033 78.6556 199.176 79.2773L201.086 75.7627ZM195.881 75.63V85.92H199.881V75.63H195.881ZM197.881 83.92H193.681V87.92H197.881V83.92ZM195.681 85.92V61.38H191.681V85.92H195.681ZM193.681 63.38H197.881V59.38H193.681V63.38ZM195.881 61.38V63.78H199.881V61.38H195.881ZM208.671 69.63C208.671 68.3467 208.4 67.124 207.769 66.0423L204.314 68.0577C204.523 68.416 204.671 68.9133 204.671 69.63H208.671ZM207.801 66.099C207.235 65.0528 206.435 64.2041 205.397 63.6241L203.446 67.1159C203.768 67.2959 204.047 67.5672 204.282 68.001L207.801 66.099ZM205.419 63.6368C204.448 63.0776 203.383 62.8 202.261 62.8V66.8C202.7 66.8 203.075 66.9024 203.423 67.1032L205.419 63.6368ZM202.261 62.8C201.131 62.8 200.062 63.1025 199.087 63.6761L201.115 67.1239C201.5 66.8975 201.872 66.8 202.261 66.8V62.8ZM199.103 63.6668C198.099 64.2451 197.317 65.0797 196.742 66.0928L200.221 68.0672C200.486 67.6003 200.784 67.3149 201.099 67.1332L199.103 63.6668ZM196.722 66.129C196.137 67.2116 195.881 68.4205 195.881 69.69H199.881C199.881 68.9595 200.026 68.4284 200.241 68.031L196.722 66.129ZM195.881 69.69C195.881 70.9595 196.137 72.1684 196.722 73.251L200.241 71.349C200.026 70.9516 199.881 70.4205 199.881 69.69H195.881ZM196.742 73.2872C197.313 74.2932 198.083 75.1256 199.065 75.7204L201.138 72.2996C200.799 72.0944 200.49 71.7868 200.221 71.3128L196.742 73.2872ZM199.126 75.7559C200.096 76.2982 201.151 76.58 202.261 76.58V72.58C201.852 72.58 201.467 72.4818 201.077 72.2641L199.126 75.7559ZM202.261 76.58C203.403 76.58 204.482 76.282 205.458 75.6904L203.385 72.2696C203.041 72.478 202.68 72.58 202.261 72.58V76.58ZM205.435 75.7039C206.451 75.1067 207.239 74.2597 207.801 73.221L204.282 71.319C204.043 71.7603 203.752 72.0533 203.407 72.2561L205.435 75.7039ZM207.781 73.2572C208.403 72.1616 208.671 70.9273 208.671 69.63H204.671C204.671 70.3727 204.52 70.8984 204.302 71.2828L207.781 73.2572ZM229.703 61.38H231.703V59.38H229.703V61.38ZM229.703 78V80H231.703V78H229.703ZM225.473 78H223.473V80H225.473V78ZM225.473 75.9H227.473V69.9L223.873 74.7L225.473 75.9ZM223.343 77.61L224.187 79.4234L224.196 79.4193L224.205 79.415L223.343 77.61ZM217.073 77.4L216.096 79.145L216.11 79.1525L216.123 79.1598L217.073 77.4ZM214.703 74.97L212.928 75.8906L212.938 75.9104L212.949 75.93L214.703 74.97ZM213.863 61.38V59.38H211.863V61.38H213.863ZM218.063 61.38H220.063V59.38H218.063V61.38ZM219.053 73.59L217.579 74.9415L217.589 74.9518L217.598 74.962L219.053 73.59ZM224.483 73.59L225.939 74.962L225.948 74.9518L225.958 74.9415L224.483 73.59ZM225.473 61.38V59.38H223.473V61.38H225.473ZM227.703 61.38V78H231.703V61.38H227.703ZM229.703 76H225.473V80H229.703V76ZM227.473 78V75.9H223.473V78H227.473ZM223.873 74.7C223.543 75.1405 223.095 75.5122 222.482 75.805L224.205 79.415C225.351 78.8678 226.324 78.0995 227.073 77.1L223.873 74.7ZM222.5 75.7966C221.924 76.0646 221.274 76.21 220.523 76.21V80.21C221.812 80.21 223.043 79.9554 224.187 79.4234L222.5 75.7966ZM220.523 76.21C219.507 76.21 218.692 76.0011 218.024 75.6402L216.123 79.1598C217.455 79.8789 218.94 80.21 220.523 80.21V76.21ZM218.051 75.655C217.396 75.2886 216.868 74.7592 216.458 74.01L212.949 75.93C213.699 77.3008 214.75 78.3914 216.096 79.145L218.051 75.655ZM216.479 74.0494C216.095 73.309 215.863 72.3581 215.863 71.13H211.863C211.863 72.8619 212.192 74.471 212.928 75.8906L216.479 74.0494ZM215.863 71.13V61.38H211.863V71.13H215.863ZM213.863 63.38H218.063V59.38H213.863V63.38ZM216.063 61.38V70.53H220.063V61.38H216.063ZM216.063 70.53C216.063 72.1719 216.477 73.7393 217.579 74.9415L220.528 72.2385C220.31 72.0007 220.063 71.5281 220.063 70.53H216.063ZM217.598 74.962C218.706 76.1367 220.173 76.64 221.753 76.64V72.64C221.054 72.64 220.721 72.4433 220.509 72.218L217.598 74.962ZM221.753 76.64C223.342 76.64 224.824 76.1438 225.939 74.962L223.028 72.218C222.822 72.4362 222.485 72.64 221.753 72.64V76.64ZM225.958 74.9415C227.06 73.7393 227.473 72.1719 227.473 70.53H223.473C223.473 71.5281 223.227 72.0007 223.009 72.2385L225.958 74.9415ZM227.473 70.53V61.38H223.473V70.53H227.473ZM225.473 63.38H229.703V59.38H225.473V63.38ZM233.757 65.16L231.985 64.233L231.98 64.2438L231.974 64.2546L233.757 65.16ZM236.487 62.16L235.454 60.4476L235.447 60.4516L235.441 60.4557L236.487 62.16ZM243.597 61.86L242.642 63.6172L242.65 63.6215L242.658 63.6257L243.597 61.86ZM245.847 63.75L244.237 64.9364L247.847 69.8358V63.75H245.847ZM245.847 61.38V59.38H243.847V61.38H245.847ZM250.077 61.38H252.077V59.38H250.077V61.38ZM250.077 78V80H252.077V78H250.077ZM245.847 78H243.847V80H245.847V78ZM245.847 75.57H247.847V69.1675L244.203 74.4316L245.847 75.57ZM243.597 77.52L244.537 79.2857L244.543 79.2822L244.55 79.2786L243.597 77.52ZM236.487 77.19L235.419 78.881L235.426 78.8852L235.433 78.8893L236.487 77.19ZM233.757 74.16L231.968 75.0544L231.977 75.0708L231.985 75.087L233.757 74.16ZM245.247 67.08L243.488 68.031L243.493 68.0412L243.499 68.0513L245.247 67.08ZM243.627 65.4L242.613 67.1239L242.632 67.1351L242.652 67.1459L243.627 65.4ZM239.277 65.37L238.279 63.6368L239.277 65.37ZM237.657 67.05L235.918 66.0628L235.913 66.0707L235.909 66.0787L237.657 67.05ZM237.657 72.27L235.888 73.2015L235.902 73.2296L235.918 73.2572L237.657 72.27ZM239.277 73.98L238.241 75.6904L238.252 75.6972L238.263 75.7039L239.277 73.98ZM243.627 74.01L244.603 75.7559L244.622 75.7451L244.641 75.7339L243.627 74.01ZM245.247 72.33L246.996 73.3013L247.001 73.2912L247.007 73.281L245.247 72.33ZM234.767 69.63C234.767 68.2166 235.043 67.0449 235.541 66.0654L231.974 64.2546C231.151 65.8751 230.767 67.6834 230.767 69.63H234.767ZM235.53 66.087C236.059 65.075 236.731 64.3575 237.534 63.8643L235.441 60.4557C233.964 61.3625 232.816 62.645 231.985 64.233L235.53 66.087ZM237.521 63.8724C238.354 63.3698 239.283 63.11 240.357 63.11V59.11C238.591 59.11 236.941 59.5502 235.454 60.4476L237.521 63.8724ZM240.357 63.11C241.325 63.11 242.065 63.3035 242.642 63.6172L244.552 60.1027C243.29 59.4165 241.869 59.11 240.357 59.11V63.11ZM242.658 63.6257C243.368 64.0033 243.876 64.4464 244.237 64.9364L247.457 62.5636C246.699 61.5336 245.707 60.7167 244.537 60.0943L242.658 63.6257ZM247.847 63.75V61.38H243.847V63.75H247.847ZM245.847 63.38H250.077V59.38H245.847V63.38ZM248.077 61.38V78H252.077V61.38H248.077ZM250.077 76H245.847V80H250.077V76ZM247.847 78V75.57H243.847V78H247.847ZM244.203 74.4316C243.867 74.917 243.37 75.3683 242.645 75.7614L244.55 79.2786C245.744 78.6317 246.748 77.783 247.492 76.7084L244.203 74.4316ZM242.658 75.7543C242.052 76.0769 241.294 76.27 240.327 76.27V80.27C241.841 80.27 243.263 79.9631 244.537 79.2857L242.658 75.7543ZM240.327 76.27C239.29 76.27 238.377 76.009 237.542 75.4907L235.433 78.8893C236.918 79.811 238.565 80.27 240.327 80.27V76.27ZM237.555 75.499C236.739 74.9836 236.061 74.2491 235.53 73.233L231.985 75.087C232.814 76.6709 233.955 77.9564 235.419 78.881L237.555 75.499ZM235.546 73.2656C235.045 72.2627 234.767 71.0668 234.767 69.63H230.767C230.767 71.5932 231.15 73.4173 231.968 75.0544L235.546 73.2656ZM247.847 69.69C247.847 68.4101 247.596 67.1887 246.996 66.1087L243.499 68.0513C243.699 68.4113 243.847 68.9298 243.847 69.69H247.847ZM247.007 66.129C246.441 65.0828 245.641 64.2341 244.603 63.6541L242.652 67.1459C242.974 67.3259 243.253 67.5972 243.488 68.031L247.007 66.129ZM244.641 63.6761C243.658 63.0975 242.578 62.8 241.437 62.8V66.8C241.856 66.8 242.237 66.9025 242.613 67.1239L244.641 63.6761ZM241.437 62.8C240.316 62.8 239.251 63.0776 238.279 63.6368L240.275 67.1032C240.624 66.9024 240.999 66.8 241.437 66.8V62.8ZM238.279 63.6368C237.275 64.2151 236.493 65.0497 235.918 66.0628L239.397 68.0372C239.662 67.5703 239.96 67.2849 240.275 67.1032L238.279 63.6368ZM235.909 66.0787C235.312 67.1532 235.057 68.3624 235.057 69.63H239.057C239.057 68.8975 239.203 68.3868 239.406 68.0213L235.909 66.0787ZM235.057 69.63C235.057 70.9011 235.313 72.1104 235.888 73.2015L239.427 71.3385C239.201 70.9096 239.057 70.3589 239.057 69.63H235.057ZM235.918 73.2572C236.489 74.2632 237.259 75.0956 238.241 75.6904L240.314 72.2696C239.975 72.0644 239.666 71.7568 239.397 71.2828L235.918 73.2572ZM238.263 75.7039C239.238 76.2775 240.307 76.58 241.437 76.58V72.58C241.048 72.58 240.676 72.4825 240.291 72.2561L238.263 75.7039ZM241.437 76.58C242.558 76.58 243.624 76.3027 244.603 75.7559L242.652 72.2641C242.27 72.4773 241.876 72.58 241.437 72.58V76.58ZM244.641 75.7339C245.643 75.1449 246.43 74.3188 246.996 73.3013L243.499 71.3587C243.264 71.7812 242.972 72.0751 242.613 72.2861L244.641 75.7339ZM247.007 73.281C247.595 72.1929 247.847 70.972 247.847 69.69H243.847C243.847 70.448 243.7 70.9871 243.488 71.379L247.007 73.281ZM268.189 63.03L266.753 64.4212L266.758 64.427L266.764 64.4327L268.189 63.03ZM270.019 78V80H272.019V78H270.019ZM265.819 78H263.819V80H265.819V78ZM264.829 65.79L263.355 67.1414L263.365 67.1518L263.374 67.162L264.829 65.79ZM259.369 65.79L257.915 64.4168L257.914 64.418L259.369 65.79ZM258.379 78V80H260.379V78H258.379ZM254.179 78H252.179V80H254.179V78ZM254.179 61.38V59.38H252.179V61.38H254.179ZM258.379 61.38H260.379V59.38H258.379V61.38ZM258.379 63.45H256.379V69.2791L259.958 64.6779L258.379 63.45ZM260.509 61.77L261.353 63.5834L261.362 63.5792L261.371 63.575L260.509 61.77ZM263.389 63.14C264.904 63.14 265.959 63.6021 266.753 64.4212L269.626 61.6388C267.979 59.9379 265.834 59.14 263.389 59.14V63.14ZM266.764 64.4327C267.518 65.1996 268.019 66.3773 268.019 68.25H272.019C272.019 65.6427 271.3 63.3404 269.615 61.6273L266.764 64.4327ZM268.019 68.25V78H272.019V68.25H268.019ZM270.019 76H265.819V80H270.019V76ZM267.819 78V68.82H263.819V78H267.819ZM267.819 68.82C267.819 67.1822 267.407 65.6087 266.285 64.418L263.374 67.162C263.572 67.3713 263.819 67.8178 263.819 68.82H267.819ZM266.304 64.4386C265.201 63.2353 263.727 62.71 262.129 62.71V66.71C262.811 66.71 263.138 66.9047 263.355 67.1414L266.304 64.4386ZM262.129 62.71C260.522 62.71 259.038 63.2278 257.915 64.4168L260.823 67.1632C261.06 66.9122 261.417 66.71 262.129 66.71V62.71ZM257.914 64.418C256.792 65.6087 256.379 67.1822 256.379 68.82H260.379C260.379 67.8178 260.627 67.3713 260.825 67.162L257.914 64.418ZM256.379 68.82V78H260.379V68.82H256.379ZM258.379 76H254.179V80H258.379V76ZM256.179 78V61.38H252.179V78H256.179ZM254.179 63.38H258.379V59.38H254.179V63.38ZM256.379 61.38V63.45H260.379V61.38H256.379ZM259.958 64.6779C260.315 64.2188 260.769 63.8549 261.353 63.5834L259.666 59.9566C258.53 60.4851 257.564 61.2412 256.801 62.2221L259.958 64.6779ZM261.371 63.575C261.964 63.2918 262.627 63.14 263.389 63.14V59.14C262.072 59.14 260.815 59.4082 259.648 59.965L261.371 63.575ZM280.172 60H278.172V62H280.172V60ZM280.172 56.13V54.13H278.172V56.13H280.172ZM287.402 56.13H289.402V54.13H287.402V56.13ZM287.402 78V80H289.402V78H287.402ZM283.082 78H281.082V80H283.082V78ZM283.082 60H285.082V58H283.082V60ZM282.172 60V56.13H278.172V60H282.172ZM280.172 58.13H287.402V54.13H280.172V58.13ZM285.402 56.13V78H289.402V56.13H285.402ZM287.402 76H283.082V80H287.402V76ZM285.082 78V60H281.082V78H285.082ZM283.082 58H280.172V62H283.082V58Z" fill="#3356D3"/>
</svg>
