<svg width="296" height="34" viewBox="0 0 296 34" fill="none" xmlns="http://www.w3.org/2000/svg">
<path d="M47.4782 5.28C47.9822 5.28 48.4302 5.388 48.8222 5.604C49.2222 5.82 49.5342 6.14 49.7582 6.564C49.9902 6.988 50.1062 7.5 50.1062 8.1V12H48.7502V8.304C48.7502 7.712 48.6022 7.26 48.3062 6.948C48.0102 6.628 47.6062 6.468 47.0942 6.468C46.5822 6.468 46.1742 6.628 45.8702 6.948C45.5742 7.26 45.4262 7.712 45.4262 8.304V12H44.0582V3.12H45.4262V6.156C45.6582 5.876 45.9502 5.66 46.3022 5.508C46.6622 5.356 47.0542 5.28 47.4782 5.28ZM53.4472 6.504V10.164C53.4472 10.412 53.5032 10.592 53.6152 10.704C53.7352 10.808 53.9352 10.86 54.2152 10.86H55.0552V12H53.9752C53.3592 12 52.8872 11.856 52.5592 11.568C52.2312 11.28 52.0672 10.812 52.0672 10.164V6.504H51.2872V5.388H52.0672V3.744H53.4472V5.388H55.0552V6.504H53.4472ZM57.912 6.504V10.164C57.912 10.412 57.968 10.592 58.08 10.704C58.2 10.808 58.4 10.86 58.68 10.86H59.52V12H58.44C57.824 12 57.352 11.856 57.024 11.568C56.696 11.28 56.532 10.812 56.532 10.164V6.504H55.752V5.388H56.532V3.744H57.912V5.388H59.52V6.504H57.912ZM62.1489 6.36C62.3809 6.056 62.6969 5.8 63.0969 5.592C63.4969 5.384 63.9489 5.28 64.4529 5.28C65.0289 5.28 65.5529 5.424 66.0249 5.712C66.5049 5.992 66.8809 6.388 67.1529 6.9C67.4249 7.412 67.5609 8 67.5609 8.664C67.5609 9.328 67.4249 9.924 67.1529 10.452C66.8809 10.972 66.5049 11.38 66.0249 11.676C65.5529 11.964 65.0289 12.108 64.4529 12.108C63.9489 12.108 63.5009 12.008 63.1089 11.808C62.7169 11.6 62.3969 11.344 62.1489 11.04V15.144H60.7809V5.388H62.1489V6.36ZM66.1689 8.664C66.1689 8.208 66.0729 7.816 65.8809 7.488C65.6969 7.152 65.4489 6.9 65.1369 6.732C64.8329 6.556 64.5049 6.468 64.1529 6.468C63.8089 6.468 63.4809 6.556 63.1689 6.732C62.8649 6.908 62.6169 7.164 62.4249 7.5C62.2409 7.836 62.1489 8.232 62.1489 8.688C62.1489 9.144 62.2409 9.544 62.4249 9.888C62.6169 10.224 62.8649 10.48 63.1689 10.656C63.4809 10.832 63.8089 10.92 64.1529 10.92C64.5049 10.92 64.8329 10.832 65.1369 10.656C65.4489 10.472 65.6969 10.208 65.8809 9.864C66.0729 9.52 66.1689 9.12 66.1689 8.664ZM71.3137 12.108C70.7937 12.108 70.3257 12.016 69.9097 11.832C69.5017 11.64 69.1777 11.384 68.9377 11.064C68.6977 10.736 68.5697 10.372 68.5537 9.972H69.9697C69.9937 10.252 70.1257 10.488 70.3657 10.68C70.6137 10.864 70.9217 10.956 71.2897 10.956C71.6737 10.956 71.9697 10.884 72.1777 10.74C72.3937 10.588 72.5017 10.396 72.5017 10.164C72.5017 9.916 72.3817 9.732 72.1417 9.612C71.9097 9.492 71.5377 9.36 71.0257 9.216C70.5297 9.08 70.1257 8.948 69.8137 8.82C69.5017 8.692 69.2297 8.496 68.9977 8.232C68.7737 7.968 68.6617 7.62 68.6617 7.188C68.6617 6.836 68.7657 6.516 68.9737 6.228C69.1817 5.932 69.4777 5.7 69.8617 5.532C70.2537 5.364 70.7017 5.28 71.2057 5.28C71.9577 5.28 72.5617 5.472 73.0177 5.856C73.4817 6.232 73.7297 6.748 73.7617 7.404H72.3937C72.3697 7.108 72.2497 6.872 72.0337 6.696C71.8177 6.52 71.5257 6.432 71.1577 6.432C70.7977 6.432 70.5217 6.5 70.3297 6.636C70.1377 6.772 70.0417 6.952 70.0417 7.176C70.0417 7.352 70.1057 7.5 70.2337 7.62C70.3617 7.74 70.5177 7.836 70.7017 7.908C70.8857 7.972 71.1577 8.056 71.5177 8.16C71.9977 8.288 72.3897 8.42 72.6937 8.556C73.0057 8.684 73.2737 8.876 73.4977 9.132C73.7217 9.388 73.8377 9.728 73.8457 10.152C73.8457 10.528 73.7417 10.864 73.5337 11.16C73.3257 11.456 73.0297 11.688 72.6457 11.856C72.2697 12.024 71.8257 12.108 71.3137 12.108ZM75.8758 12.084C75.6278 12.084 75.4198 12 75.2518 11.832C75.0838 11.664 74.9998 11.456 74.9998 11.208C74.9998 10.96 75.0838 10.752 75.2518 10.584C75.4198 10.416 75.6278 10.332 75.8758 10.332C76.1158 10.332 76.3198 10.416 76.4878 10.584C76.6558 10.752 76.7398 10.96 76.7398 11.208C76.7398 11.456 76.6558 11.664 76.4878 11.832C76.3198 12 76.1158 12.084 75.8758 12.084ZM75.8758 7.044C75.6278 7.044 75.4198 6.96 75.2518 6.792C75.0838 6.624 74.9998 6.416 74.9998 6.168C74.9998 5.92 75.0838 5.712 75.2518 5.544C75.4198 5.376 75.6278 5.292 75.8758 5.292C76.1158 5.292 76.3198 5.376 76.4878 5.544C76.6558 5.712 76.7398 5.92 76.7398 6.168C76.7398 6.416 76.6558 6.624 76.4878 6.792C76.3198 6.96 76.1158 7.044 75.8758 7.044ZM82.7052 0.671999L79.4412 14.1H78.0972L81.3492 0.671999H82.7052ZM88.8693 0.671999L85.6053 14.1H84.2613L87.5133 0.671999H88.8693ZM99.4734 5.388L97.4214 12H95.9814L94.6494 7.116L93.3174 12H91.8774L89.8134 5.388H91.2054L92.5854 10.704L93.9894 5.388H95.4174L96.7614 10.68L98.1294 5.388H99.4734ZM109.376 5.388L107.324 12H105.884L104.552 7.116L103.22 12H101.78L99.7157 5.388H101.108L102.488 10.704L103.892 5.388H105.32L106.664 10.68L108.032 5.388H109.376ZM119.278 5.388L117.226 12H115.786L114.454 7.116L113.122 12H111.682L109.618 5.388H111.01L112.39 10.704L113.794 5.388H115.222L116.566 10.68L117.934 5.388H119.278ZM120.852 12.084C120.604 12.084 120.396 12 120.228 11.832C120.06 11.664 119.976 11.456 119.976 11.208C119.976 10.96 120.06 10.752 120.228 10.584C120.396 10.416 120.604 10.332 120.852 10.332C121.092 10.332 121.296 10.416 121.464 10.584C121.632 10.752 121.716 10.96 121.716 11.208C121.716 11.456 121.632 11.664 121.464 11.832C121.296 12 121.092 12.084 120.852 12.084ZM129.147 5.388L125.091 15.108H123.675L125.019 11.892L122.415 5.388H123.939L125.799 10.428L127.731 5.388H129.147ZM133.047 12.108C132.423 12.108 131.859 11.968 131.355 11.688C130.851 11.4 130.455 11 130.167 10.488C129.879 9.968 129.735 9.368 129.735 8.688C129.735 8.016 129.883 7.42 130.179 6.9C130.475 6.38 130.879 5.98 131.391 5.7C131.903 5.42 132.475 5.28 133.107 5.28C133.739 5.28 134.311 5.42 134.823 5.7C135.335 5.98 135.739 6.38 136.035 6.9C136.331 7.42 136.479 8.016 136.479 8.688C136.479 9.36 136.327 9.956 136.023 10.476C135.719 10.996 135.303 11.4 134.775 11.688C134.255 11.968 133.679 12.108 133.047 12.108ZM133.047 10.92C133.399 10.92 133.727 10.836 134.031 10.668C134.343 10.5 134.595 10.248 134.787 9.912C134.979 9.576 135.075 9.168 135.075 8.688C135.075 8.208 134.983 7.804 134.799 7.476C134.615 7.14 134.371 6.888 134.067 6.72C133.763 6.552 133.435 6.468 133.083 6.468C132.731 6.468 132.403 6.552 132.099 6.72C131.803 6.888 131.567 7.14 131.391 7.476C131.215 7.804 131.127 8.208 131.127 8.688C131.127 9.4 131.307 9.952 131.667 10.344C132.035 10.728 132.495 10.92 133.047 10.92ZM143.82 5.388V12H142.452V11.22C142.236 11.492 141.952 11.708 141.6 11.868C141.256 12.02 140.888 12.096 140.496 12.096C139.976 12.096 139.508 11.988 139.092 11.772C138.684 11.556 138.36 11.236 138.12 10.812C137.888 10.388 137.772 9.876 137.772 9.276V5.388H139.128V9.072C139.128 9.664 139.276 10.12 139.572 10.44C139.868 10.752 140.272 10.908 140.784 10.908C141.296 10.908 141.7 10.752 141.996 10.44C142.3 10.12 142.452 9.664 142.452 9.072V5.388H143.82ZM147.221 6.504V10.164C147.221 10.412 147.277 10.592 147.389 10.704C147.509 10.808 147.709 10.86 147.989 10.86H148.829V12H147.749C147.133 12 146.661 11.856 146.333 11.568C146.005 11.28 145.841 10.812 145.841 10.164V6.504H145.061V5.388H145.841V3.744H147.221V5.388H148.829V6.504H147.221ZM156.077 5.388V12H154.709V11.22C154.493 11.492 154.209 11.708 153.857 11.868C153.513 12.02 153.145 12.096 152.753 12.096C152.233 12.096 151.765 11.988 151.349 11.772C150.941 11.556 150.617 11.236 150.377 10.812C150.145 10.388 150.029 9.876 150.029 9.276V5.388H151.385V9.072C151.385 9.664 151.533 10.12 151.829 10.44C152.125 10.752 152.529 10.908 153.041 10.908C153.553 10.908 153.957 10.752 154.253 10.44C154.557 10.12 154.709 9.664 154.709 9.072V5.388H156.077ZM159.25 6.372C159.482 6.052 159.798 5.792 160.198 5.592C160.606 5.384 161.058 5.28 161.554 5.28C162.138 5.28 162.666 5.42 163.138 5.7C163.61 5.98 163.982 6.38 164.254 6.9C164.526 7.412 164.662 8 164.662 8.664C164.662 9.328 164.526 9.924 164.254 10.452C163.982 10.972 163.606 11.38 163.126 11.676C162.654 11.964 162.13 12.108 161.554 12.108C161.042 12.108 160.586 12.008 160.186 11.808C159.794 11.608 159.482 11.352 159.25 11.04V12H157.882V3.12H159.25V6.372ZM163.27 8.664C163.27 8.208 163.174 7.816 162.982 7.488C162.798 7.152 162.55 6.9 162.238 6.732C161.934 6.556 161.606 6.468 161.254 6.468C160.91 6.468 160.582 6.556 160.27 6.732C159.966 6.908 159.718 7.164 159.526 7.5C159.342 7.836 159.25 8.232 159.25 8.688C159.25 9.144 159.342 9.544 159.526 9.888C159.718 10.224 159.966 10.48 160.27 10.656C160.582 10.832 160.91 10.92 161.254 10.92C161.606 10.92 161.934 10.832 162.238 10.656C162.55 10.472 162.798 10.208 162.982 9.864C163.174 9.52 163.27 9.12 163.27 8.664ZM172.075 8.532C172.075 8.78 172.059 9.004 172.027 9.204H166.975C167.015 9.732 167.211 10.156 167.563 10.476C167.915 10.796 168.347 10.956 168.859 10.956C169.595 10.956 170.115 10.648 170.419 10.032H171.895C171.695 10.64 171.331 11.14 170.803 11.532C170.283 11.916 169.635 12.108 168.859 12.108C168.227 12.108 167.659 11.968 167.155 11.688C166.659 11.4 166.267 11 165.979 10.488C165.699 9.968 165.559 9.368 165.559 8.688C165.559 8.008 165.695 7.412 165.967 6.9C166.247 6.38 166.635 5.98 167.131 5.7C167.635 5.42 168.211 5.28 168.859 5.28C169.483 5.28 170.039 5.416 170.527 5.688C171.015 5.96 171.395 6.344 171.667 6.84C171.939 7.328 172.075 7.892 172.075 8.532ZM170.647 8.1C170.639 7.596 170.459 7.192 170.107 6.888C169.755 6.584 169.319 6.432 168.799 6.432C168.327 6.432 167.923 6.584 167.587 6.888C167.251 7.184 167.051 7.588 166.987 8.1H170.647ZM173.973 12.084C173.725 12.084 173.517 12 173.349 11.832C173.181 11.664 173.097 11.456 173.097 11.208C173.097 10.96 173.181 10.752 173.349 10.584C173.517 10.416 173.725 10.332 173.973 10.332C174.213 10.332 174.417 10.416 174.585 10.584C174.753 10.752 174.837 10.96 174.837 11.208C174.837 11.456 174.753 11.664 174.585 11.832C174.417 12 174.213 12.084 173.973 12.084ZM175.86 8.688C175.86 8.008 175.996 7.412 176.268 6.9C176.548 6.38 176.932 5.98 177.42 5.7C177.908 5.42 178.468 5.28 179.1 5.28C179.9 5.28 180.56 5.472 181.08 5.856C181.608 6.232 181.964 6.772 182.148 7.476H180.672C180.552 7.148 180.36 6.892 180.096 6.708C179.832 6.524 179.5 6.432 179.1 6.432C178.54 6.432 178.092 6.632 177.756 7.032C177.428 7.424 177.264 7.976 177.264 8.688C177.264 9.4 177.428 9.956 177.756 10.356C178.092 10.756 178.54 10.956 179.1 10.956C179.892 10.956 180.416 10.608 180.672 9.912H182.148C181.956 10.584 181.596 11.12 181.068 11.52C180.54 11.912 179.884 12.108 179.1 12.108C178.468 12.108 177.908 11.968 177.42 11.688C176.932 11.4 176.548 11 176.268 10.488C175.996 9.968 175.86 9.368 175.86 8.688ZM186.379 12.108C185.755 12.108 185.191 11.968 184.687 11.688C184.183 11.4 183.787 11 183.499 10.488C183.211 9.968 183.067 9.368 183.067 8.688C183.067 8.016 183.215 7.42 183.511 6.9C183.807 6.38 184.211 5.98 184.723 5.7C185.235 5.42 185.807 5.28 186.439 5.28C187.071 5.28 187.643 5.42 188.155 5.7C188.667 5.98 189.071 6.38 189.367 6.9C189.663 7.42 189.811 8.016 189.811 8.688C189.811 9.36 189.659 9.956 189.355 10.476C189.051 10.996 188.635 11.4 188.107 11.688C187.587 11.968 187.011 12.108 186.379 12.108ZM186.379 10.92C186.731 10.92 187.059 10.836 187.363 10.668C187.675 10.5 187.927 10.248 188.119 9.912C188.311 9.576 188.407 9.168 188.407 8.688C188.407 8.208 188.315 7.804 188.131 7.476C187.947 7.14 187.703 6.888 187.399 6.72C187.095 6.552 186.767 6.468 186.415 6.468C186.063 6.468 185.735 6.552 185.431 6.72C185.135 6.888 184.899 7.14 184.723 7.476C184.547 7.804 184.459 8.208 184.459 8.688C184.459 9.4 184.639 9.952 184.999 10.344C185.367 10.728 185.827 10.92 186.379 10.92ZM199.168 5.28C199.688 5.28 200.152 5.388 200.56 5.604C200.976 5.82 201.3 6.14 201.532 6.564C201.772 6.988 201.892 7.5 201.892 8.1V12H200.536V8.304C200.536 7.712 200.388 7.26 200.092 6.948C199.796 6.628 199.392 6.468 198.88 6.468C198.368 6.468 197.96 6.628 197.656 6.948C197.36 7.26 197.212 7.712 197.212 8.304V12H195.856V8.304C195.856 7.712 195.708 7.26 195.412 6.948C195.116 6.628 194.712 6.468 194.2 6.468C193.688 6.468 193.28 6.628 192.976 6.948C192.68 7.26 192.532 7.712 192.532 8.304V12H191.164V5.388H192.532V6.144C192.756 5.872 193.04 5.66 193.384 5.508C193.728 5.356 194.096 5.28 194.488 5.28C195.016 5.28 195.488 5.392 195.904 5.616C196.32 5.84 196.64 6.164 196.864 6.588C197.064 6.188 197.376 5.872 197.8 5.64C198.224 5.4 198.68 5.28 199.168 5.28ZM208.072 0.671999L204.808 14.1H203.464L206.716 0.671999H208.072ZM218.676 5.388L216.624 12H215.184L213.852 7.116L212.52 12H211.08L209.016 5.388H210.408L211.788 10.704L213.192 5.388H214.62L215.964 10.68L217.332 5.388H218.676ZM219.243 8.664C219.243 8 219.379 7.412 219.651 6.9C219.931 6.388 220.307 5.992 220.779 5.712C221.259 5.424 221.787 5.28 222.363 5.28C222.883 5.28 223.335 5.384 223.719 5.592C224.111 5.792 224.423 6.044 224.655 6.348V5.388H226.035V12H224.655V11.016C224.423 11.328 224.107 11.588 223.707 11.796C223.307 12.004 222.851 12.108 222.339 12.108C221.771 12.108 221.251 11.964 220.779 11.676C220.307 11.38 219.931 10.972 219.651 10.452C219.379 9.924 219.243 9.328 219.243 8.664ZM224.655 8.688C224.655 8.232 224.559 7.836 224.367 7.5C224.183 7.164 223.939 6.908 223.635 6.732C223.331 6.556 223.003 6.468 222.651 6.468C222.299 6.468 221.971 6.556 221.667 6.732C221.363 6.9 221.115 7.152 220.923 7.488C220.739 7.816 220.647 8.208 220.647 8.664C220.647 9.12 220.739 9.52 220.923 9.864C221.115 10.208 221.363 10.472 221.667 10.656C221.979 10.832 222.307 10.92 222.651 10.92C223.003 10.92 223.331 10.832 223.635 10.656C223.939 10.48 224.183 10.224 224.367 9.888C224.559 9.544 224.655 9.144 224.655 8.688ZM229.428 6.504V10.164C229.428 10.412 229.484 10.592 229.596 10.704C229.716 10.808 229.916 10.86 230.196 10.86H231.036V12H229.956C229.34 12 228.868 11.856 228.54 11.568C228.212 11.28 228.048 10.812 228.048 10.164V6.504H227.268V5.388H228.048V3.744H229.428V5.388H231.036V6.504H229.428ZM231.84 8.688C231.84 8.008 231.976 7.412 232.248 6.9C232.528 6.38 232.912 5.98 233.4 5.7C233.888 5.42 234.448 5.28 235.08 5.28C235.88 5.28 236.54 5.472 237.06 5.856C237.588 6.232 237.944 6.772 238.128 7.476H236.652C236.532 7.148 236.34 6.892 236.076 6.708C235.812 6.524 235.48 6.432 235.08 6.432C234.52 6.432 234.072 6.632 233.736 7.032C233.408 7.424 233.244 7.976 233.244 8.688C233.244 9.4 233.408 9.956 233.736 10.356C234.072 10.756 234.52 10.956 235.08 10.956C235.872 10.956 236.396 10.608 236.652 9.912H238.128C237.936 10.584 237.576 11.12 237.048 11.52C236.52 11.912 235.864 12.108 235.08 12.108C234.448 12.108 233.888 11.968 233.4 11.688C232.912 11.4 232.528 11 232.248 10.488C231.976 9.968 231.84 9.368 231.84 8.688ZM242.912 5.28C243.416 5.28 243.864 5.388 244.256 5.604C244.656 5.82 244.968 6.14 245.192 6.564C245.424 6.988 245.54 7.5 245.54 8.1V12H244.184V8.304C244.184 7.712 244.036 7.26 243.74 6.948C243.444 6.628 243.04 6.468 242.528 6.468C242.016 6.468 241.608 6.628 241.304 6.948C241.008 7.26 240.86 7.712 240.86 8.304V12H239.492V3.12H240.86V6.156C241.092 5.876 241.384 5.66 241.736 5.508C242.096 5.356 242.488 5.28 242.912 5.28ZM249.529 3.54C250.345 3.54 250.997 3.764 251.485 4.212C251.981 4.66 252.229 5.272 252.229 6.048C252.229 6.856 251.973 7.464 251.461 7.872C250.949 8.28 250.269 8.484 249.421 8.484L249.373 9.432H248.185L248.125 7.548H248.521C249.297 7.548 249.889 7.444 250.297 7.236C250.713 7.028 250.921 6.632 250.921 6.048C250.921 5.624 250.797 5.292 250.549 5.052C250.309 4.812 249.973 4.692 249.541 4.692C249.109 4.692 248.769 4.808 248.521 5.04C248.273 5.272 248.149 5.596 248.149 6.012H246.865C246.865 5.532 246.973 5.104 247.189 4.728C247.405 4.352 247.713 4.06 248.113 3.852C248.521 3.644 248.993 3.54 249.529 3.54ZM248.761 12.084C248.513 12.084 248.305 12 248.137 11.832C247.969 11.664 247.885 11.456 247.885 11.208C247.885 10.96 247.969 10.752 248.137 10.584C248.305 10.416 248.513 10.332 248.761 10.332C249.001 10.332 249.205 10.416 249.373 10.584C249.541 10.752 249.625 10.96 249.625 11.208C249.625 11.456 249.541 11.664 249.373 11.832C249.205 12 249.001 12.084 248.761 12.084ZM3.61811 28.776L5.49011 23.388H6.94211L4.42211 30H2.79011L0.282109 23.388H1.74611L3.61811 28.776ZM14.9122 23.724V24.876H8.52817V23.724H14.9122ZM14.9122 26.448V27.6H8.52817V26.448H14.9122ZM22.1771 21.66V22.776H18.6371V25.236H21.3971V26.352H18.6371V30H17.2691V21.66H22.1771ZM24.1409 22.512C23.8929 22.512 23.6849 22.428 23.5169 22.26C23.3489 22.092 23.2649 21.884 23.2649 21.636C23.2649 21.388 23.3489 21.18 23.5169 21.012C23.6849 20.844 23.8929 20.76 24.1409 20.76C24.3809 20.76 24.5849 20.844 24.7529 21.012C24.9209 21.18 25.0049 21.388 25.0049 21.636C25.0049 21.884 24.9209 22.092 24.7529 22.26C24.5849 22.428 24.3809 22.512 24.1409 22.512ZM24.8129 23.388V30H23.4449V23.388H24.8129ZM28.133 27.624C28.213 28.024 28.385 28.328 28.649 28.536C28.913 28.744 29.269 28.848 29.717 28.848C30.285 28.848 30.701 28.624 30.965 28.176C31.229 27.728 31.361 26.964 31.361 25.884C31.169 26.156 30.897 26.368 30.545 26.52C30.201 26.664 29.825 26.736 29.417 26.736C28.897 26.736 28.425 26.632 28.001 26.424C27.577 26.208 27.241 25.892 26.993 25.476C26.753 25.052 26.633 24.54 26.633 23.94C26.633 23.06 26.889 22.36 27.401 21.84C27.921 21.312 28.633 21.048 29.537 21.048C30.625 21.048 31.397 21.412 31.853 22.14C32.317 22.86 32.549 23.968 32.549 25.464C32.549 26.496 32.461 27.34 32.285 27.996C32.117 28.652 31.821 29.148 31.397 29.484C30.973 29.82 30.385 29.988 29.633 29.988C28.777 29.988 28.117 29.764 27.653 29.316C27.189 28.868 26.929 28.304 26.873 27.624H28.133ZM29.657 25.584C30.137 25.584 30.513 25.436 30.785 25.14C31.065 24.836 31.205 24.436 31.205 23.94C31.205 23.388 31.057 22.96 30.761 22.656C30.473 22.344 30.077 22.188 29.573 22.188C29.069 22.188 28.669 22.348 28.373 22.668C28.085 22.98 27.941 23.392 27.941 23.904C27.941 24.392 28.081 24.796 28.361 25.116C28.649 25.428 29.081 25.584 29.657 25.584ZM38.6902 25.716C39.1382 25.796 39.5182 26.032 39.8302 26.424C40.1422 26.816 40.2982 27.26 40.2982 27.756C40.2982 28.18 40.1862 28.564 39.9622 28.908C39.7462 29.244 39.4302 29.512 39.0142 29.712C38.5982 29.904 38.1142 30 37.5622 30H34.2262V21.66H37.4062C37.9742 21.66 38.4622 21.756 38.8702 21.948C39.2782 22.14 39.5862 22.4 39.7942 22.728C40.0022 23.048 40.1062 23.408 40.1062 23.808C40.1062 24.288 39.9782 24.688 39.7222 25.008C39.4662 25.328 39.1222 25.564 38.6902 25.716ZM35.5942 25.164H37.2862C37.7342 25.164 38.0822 25.064 38.3302 24.864C38.5862 24.656 38.7142 24.36 38.7142 23.976C38.7142 23.6 38.5862 23.308 38.3302 23.1C38.0822 22.884 37.7342 22.776 37.2862 22.776H35.5942V25.164ZM37.4422 28.884C37.9062 28.884 38.2702 28.772 38.5342 28.548C38.7982 28.324 38.9302 28.012 38.9302 27.612C38.9302 27.204 38.7902 26.88 38.5102 26.64C38.2302 26.4 37.8582 26.28 37.3942 26.28H35.5942V28.884H37.4422ZM45.1208 23.28C45.6408 23.28 46.1048 23.388 46.5128 23.604C46.9288 23.82 47.2528 24.14 47.4848 24.564C47.7168 24.988 47.8328 25.5 47.8328 26.1V30H46.4768V26.304C46.4768 25.712 46.3288 25.26 46.0328 24.948C45.7368 24.628 45.3328 24.468 44.8208 24.468C44.3088 24.468 43.9008 24.628 43.5968 24.948C43.3008 25.26 43.1528 25.712 43.1528 26.304V30H41.7848V23.388H43.1528V24.144C43.3768 23.872 43.6608 23.66 44.0048 23.508C44.3568 23.356 44.7288 23.28 45.1208 23.28ZM52.9137 23.28C53.4337 23.28 53.8977 23.388 54.3057 23.604C54.7217 23.82 55.0457 24.14 55.2777 24.564C55.5097 24.988 55.6257 25.5 55.6257 26.1V30H54.2697V26.304C54.2697 25.712 54.1217 25.26 53.8257 24.948C53.5297 24.628 53.1257 24.468 52.6137 24.468C52.1017 24.468 51.6937 24.628 51.3897 24.948C51.0937 25.26 50.9457 25.712 50.9457 26.304V30H49.5777V23.388H50.9457V24.144C51.1697 23.872 51.4537 23.66 51.7977 23.508C52.1497 23.356 52.5217 23.28 52.9137 23.28ZM59.9867 26.7L63.0347 30H61.1867L58.7387 27.156V30H57.3707V21.12H58.7387V26.28L61.1387 23.388H63.0347L59.9867 26.7ZM63.8112 23.412C63.8592 22.668 64.1432 22.088 64.6632 21.672C65.1912 21.256 65.8632 21.048 66.6792 21.048C67.2392 21.048 67.7232 21.148 68.1312 21.348C68.5392 21.548 68.8472 21.82 69.0552 22.164C69.2632 22.508 69.3672 22.896 69.3672 23.328C69.3672 23.824 69.2352 24.248 68.9712 24.6C68.7072 24.952 68.3912 25.188 68.0232 25.308V25.356C68.4952 25.5 68.8632 25.764 69.1272 26.148C69.3912 26.524 69.5232 27.008 69.5232 27.6C69.5232 28.072 69.4152 28.492 69.1992 28.86C68.9832 29.228 68.6632 29.52 68.2392 29.736C67.8152 29.944 67.3072 30.048 66.7152 30.048C65.8512 30.048 65.1392 29.828 64.5792 29.388C64.0272 28.94 63.7312 28.3 63.6912 27.468H65.0112C65.0432 27.892 65.2072 28.24 65.5032 28.512C65.7992 28.776 66.1992 28.908 66.7032 28.908C67.1912 28.908 67.5672 28.776 67.8312 28.512C68.0952 28.24 68.2272 27.892 68.2272 27.468C68.2272 26.908 68.0472 26.512 67.6872 26.28C67.3352 26.04 66.7912 25.92 66.0552 25.92H65.7432V24.792H66.0672C66.7152 24.784 67.2072 24.676 67.5432 24.468C67.8872 24.26 68.0592 23.932 68.0592 23.484C68.0592 23.1 67.9352 22.796 67.6872 22.572C67.4392 22.34 67.0872 22.224 66.6312 22.224C66.1832 22.224 65.8352 22.34 65.5872 22.572C65.3392 22.796 65.1912 23.076 65.1432 23.412H63.8112ZM72.5082 28.896H75.3282V30H71.1402V21.66H72.5082V28.896ZM77.7923 28.812H81.6683V30H76.1723V28.932L80.0363 22.848H76.1723V21.66H81.6683V22.728L77.7923 28.812ZM85.8277 23.28C86.3397 23.28 86.7917 23.384 87.1837 23.592C87.5837 23.792 87.8957 24.044 88.1197 24.348V23.388H89.4997V30.108C89.4997 30.716 89.3717 31.256 89.1157 31.728C88.8597 32.208 88.4877 32.584 87.9997 32.856C87.5197 33.128 86.9437 33.264 86.2717 33.264C85.3757 33.264 84.6317 33.052 84.0397 32.628C83.4477 32.212 83.1117 31.644 83.0317 30.924H84.3877C84.4917 31.268 84.7117 31.544 85.0477 31.752C85.3917 31.968 85.7997 32.076 86.2717 32.076C86.8237 32.076 87.2677 31.908 87.6037 31.572C87.9477 31.236 88.1197 30.748 88.1197 30.108V29.004C87.8877 29.316 87.5717 29.58 87.1717 29.796C86.7797 30.004 86.3317 30.108 85.8277 30.108C85.2517 30.108 84.7237 29.964 84.2437 29.676C83.7717 29.38 83.3957 28.972 83.1157 28.452C82.8437 27.924 82.7077 27.328 82.7077 26.664C82.7077 26 82.8437 25.412 83.1157 24.9C83.3957 24.388 83.7717 23.992 84.2437 23.712C84.7237 23.424 85.2517 23.28 85.8277 23.28ZM88.1197 26.688C88.1197 26.232 88.0237 25.836 87.8317 25.5C87.6477 25.164 87.4037 24.908 87.0997 24.732C86.7957 24.556 86.4677 24.468 86.1157 24.468C85.7637 24.468 85.4357 24.556 85.1317 24.732C84.8277 24.9 84.5797 25.152 84.3877 25.488C84.2037 25.816 84.1117 26.208 84.1117 26.664C84.1117 27.12 84.2037 27.52 84.3877 27.864C84.5797 28.208 84.8277 28.472 85.1317 28.656C85.4437 28.832 85.7717 28.92 86.1157 28.92C86.4677 28.92 86.7957 28.832 87.0997 28.656C87.4037 28.48 87.6477 28.224 87.8317 27.888C88.0237 27.544 88.1197 27.144 88.1197 26.688ZM97.7405 30L96.7085 28.968C96.3085 29.368 95.8725 29.668 95.4005 29.868C94.9285 30.06 94.4005 30.156 93.8165 30.156C93.2245 30.156 92.7005 30.052 92.2445 29.844C91.7885 29.636 91.4365 29.34 91.1885 28.956C90.9405 28.564 90.8165 28.112 90.8165 27.6C90.8165 27.024 90.9805 26.512 91.3085 26.064C91.6365 25.608 92.1245 25.248 92.7725 24.984C92.5405 24.704 92.3765 24.444 92.2805 24.204C92.1845 23.956 92.1365 23.684 92.1365 23.388C92.1365 23.02 92.2285 22.692 92.4125 22.404C92.6045 22.116 92.8765 21.888 93.2285 21.72C93.5805 21.552 93.9885 21.468 94.4525 21.468C94.9245 21.468 95.3245 21.56 95.6525 21.744C95.9885 21.92 96.2365 22.164 96.3965 22.476C96.5645 22.788 96.6325 23.136 96.6005 23.52H95.2325C95.2405 23.224 95.1685 22.996 95.0165 22.836C94.8645 22.668 94.6565 22.584 94.3925 22.584C94.1285 22.584 93.9125 22.664 93.7445 22.824C93.5845 22.976 93.5045 23.164 93.5045 23.388C93.5045 23.604 93.5645 23.82 93.6845 24.036C93.8125 24.244 94.0325 24.516 94.3445 24.852L96.5525 27.048L97.4045 25.644H98.8805L97.8005 27.492L97.5005 27.984L99.5285 30H97.7405ZM93.8165 28.992C94.5685 28.992 95.2325 28.684 95.8085 28.068L93.6005 25.848C92.6565 26.224 92.1845 26.792 92.1845 27.552C92.1845 27.96 92.3365 28.304 92.6405 28.584C92.9445 28.856 93.3365 28.992 93.8165 28.992ZM102.021 24.504V28.164C102.021 28.412 102.077 28.592 102.189 28.704C102.309 28.808 102.509 28.86 102.789 28.86H103.629V30H102.549C101.933 30 101.461 29.856 101.133 29.568C100.805 29.28 100.641 28.812 100.641 28.164V24.504H99.8614V23.388H100.641V21.744H102.021V23.388H103.629V24.504H102.021ZM111.826 23.724V24.876H105.442V23.724H111.826ZM111.826 26.448V27.6H105.442V26.448H111.826ZM113.835 28.176V27.144L117.867 21.36H119.523V26.988H120.639V28.176H119.523V30H118.179V28.176H113.835ZM118.239 22.752L115.407 26.988H118.239V22.752ZM124.353 30.108C123.833 30.108 123.365 30.016 122.949 29.832C122.541 29.64 122.217 29.384 121.977 29.064C121.737 28.736 121.609 28.372 121.593 27.972H123.009C123.033 28.252 123.165 28.488 123.405 28.68C123.653 28.864 123.961 28.956 124.329 28.956C124.713 28.956 125.009 28.884 125.217 28.74C125.433 28.588 125.541 28.396 125.541 28.164C125.541 27.916 125.421 27.732 125.181 27.612C124.949 27.492 124.577 27.36 124.065 27.216C123.569 27.08 123.165 26.948 122.853 26.82C122.541 26.692 122.269 26.496 122.037 26.232C121.813 25.968 121.701 25.62 121.701 25.188C121.701 24.836 121.805 24.516 122.013 24.228C122.221 23.932 122.517 23.7 122.901 23.532C123.293 23.364 123.741 23.28 124.245 23.28C124.997 23.28 125.601 23.472 126.057 23.856C126.521 24.232 126.769 24.748 126.801 25.404H125.433C125.409 25.108 125.289 24.872 125.073 24.696C124.857 24.52 124.565 24.432 124.197 24.432C123.837 24.432 123.561 24.5 123.369 24.636C123.177 24.772 123.081 24.952 123.081 25.176C123.081 25.352 123.145 25.5 123.273 25.62C123.401 25.74 123.557 25.836 123.741 25.908C123.925 25.972 124.197 26.056 124.557 26.16C125.037 26.288 125.429 26.42 125.733 26.556C126.045 26.684 126.313 26.876 126.537 27.132C126.761 27.388 126.877 27.728 126.885 28.152C126.885 28.528 126.781 28.864 126.573 29.16C126.365 29.456 126.069 29.688 125.685 29.856C125.309 30.024 124.865 30.108 124.353 30.108ZM134.807 30L133.775 28.968C133.375 29.368 132.939 29.668 132.467 29.868C131.995 30.06 131.467 30.156 130.883 30.156C130.291 30.156 129.767 30.052 129.311 29.844C128.855 29.636 128.503 29.34 128.255 28.956C128.007 28.564 127.883 28.112 127.883 27.6C127.883 27.024 128.047 26.512 128.375 26.064C128.703 25.608 129.191 25.248 129.839 24.984C129.607 24.704 129.443 24.444 129.347 24.204C129.251 23.956 129.203 23.684 129.203 23.388C129.203 23.02 129.295 22.692 129.479 22.404C129.671 22.116 129.943 21.888 130.295 21.72C130.647 21.552 131.055 21.468 131.519 21.468C131.991 21.468 132.391 21.56 132.719 21.744C133.055 21.92 133.303 22.164 133.463 22.476C133.631 22.788 133.699 23.136 133.667 23.52H132.299C132.307 23.224 132.235 22.996 132.083 22.836C131.931 22.668 131.723 22.584 131.459 22.584C131.195 22.584 130.979 22.664 130.811 22.824C130.651 22.976 130.571 23.164 130.571 23.388C130.571 23.604 130.631 23.82 130.751 24.036C130.879 24.244 131.099 24.516 131.411 24.852L133.619 27.048L134.471 25.644H135.947L134.867 27.492L134.567 27.984L136.595 30H134.807ZM130.883 28.992C131.635 28.992 132.299 28.684 132.875 28.068L130.667 25.848C129.723 26.224 129.251 26.792 129.251 27.552C129.251 27.96 129.403 28.304 129.707 28.584C130.011 28.856 130.403 28.992 130.883 28.992ZM137.036 26.664C137.036 26 137.172 25.412 137.444 24.9C137.724 24.388 138.1 23.992 138.572 23.712C139.052 23.424 139.58 23.28 140.156 23.28C140.676 23.28 141.128 23.384 141.512 23.592C141.904 23.792 142.216 24.044 142.448 24.348V23.388H143.828V30H142.448V29.016C142.216 29.328 141.9 29.588 141.5 29.796C141.1 30.004 140.644 30.108 140.132 30.108C139.564 30.108 139.044 29.964 138.572 29.676C138.1 29.38 137.724 28.972 137.444 28.452C137.172 27.924 137.036 27.328 137.036 26.664ZM142.448 26.688C142.448 26.232 142.352 25.836 142.16 25.5C141.976 25.164 141.732 24.908 141.428 24.732C141.124 24.556 140.796 24.468 140.444 24.468C140.092 24.468 139.764 24.556 139.46 24.732C139.156 24.9 138.908 25.152 138.716 25.488C138.532 25.816 138.44 26.208 138.44 26.664C138.44 27.12 138.532 27.52 138.716 27.864C138.908 28.208 139.156 28.472 139.46 28.656C139.772 28.832 140.1 28.92 140.444 28.92C140.796 28.92 141.124 28.832 141.428 28.656C141.732 28.48 141.976 28.224 142.16 27.888C142.352 27.544 142.448 27.144 142.448 26.688ZM146.993 24.372C147.225 24.052 147.541 23.792 147.941 23.592C148.349 23.384 148.801 23.28 149.297 23.28C149.881 23.28 150.409 23.42 150.881 23.7C151.353 23.98 151.725 24.38 151.997 24.9C152.269 25.412 152.405 26 152.405 26.664C152.405 27.328 152.269 27.924 151.997 28.452C151.725 28.972 151.349 29.38 150.869 29.676C150.397 29.964 149.873 30.108 149.297 30.108C148.785 30.108 148.329 30.008 147.929 29.808C147.537 29.608 147.225 29.352 146.993 29.04V30H145.625V21.12H146.993V24.372ZM151.013 26.664C151.013 26.208 150.917 25.816 150.725 25.488C150.541 25.152 150.293 24.9 149.981 24.732C149.677 24.556 149.349 24.468 148.997 24.468C148.653 24.468 148.325 24.556 148.013 24.732C147.709 24.908 147.461 25.164 147.269 25.5C147.085 25.836 146.993 26.232 146.993 26.688C146.993 27.144 147.085 27.544 147.269 27.888C147.461 28.224 147.709 28.48 148.013 28.656C148.325 28.832 148.653 28.92 148.997 28.92C149.349 28.92 149.677 28.832 149.981 28.656C150.293 28.472 150.541 28.208 150.725 27.864C150.917 27.52 151.013 27.12 151.013 26.664ZM161.065 30.48V31.752H154.369V30.48H161.065ZM162.876 26.688C162.876 26.008 163.012 25.412 163.284 24.9C163.564 24.38 163.948 23.98 164.436 23.7C164.924 23.42 165.484 23.28 166.116 23.28C166.916 23.28 167.576 23.472 168.096 23.856C168.624 24.232 168.98 24.772 169.164 25.476H167.688C167.568 25.148 167.376 24.892 167.112 24.708C166.848 24.524 166.516 24.432 166.116 24.432C165.556 24.432 165.108 24.632 164.772 25.032C164.444 25.424 164.28 25.976 164.28 26.688C164.28 27.4 164.444 27.956 164.772 28.356C165.108 28.756 165.556 28.956 166.116 28.956C166.908 28.956 167.432 28.608 167.688 27.912H169.164C168.972 28.584 168.612 29.12 168.084 29.52C167.556 29.912 166.9 30.108 166.116 30.108C165.484 30.108 164.924 29.968 164.436 29.688C163.948 29.4 163.564 29 163.284 28.488C163.012 27.968 162.876 27.368 162.876 26.688ZM173.947 23.28C174.451 23.28 174.899 23.388 175.291 23.604C175.691 23.82 176.003 24.14 176.227 24.564C176.459 24.988 176.575 25.5 176.575 26.1V30H175.219V26.304C175.219 25.712 175.071 25.26 174.775 24.948C174.479 24.628 174.075 24.468 173.563 24.468C173.051 24.468 172.643 24.628 172.339 24.948C172.043 25.26 171.895 25.712 171.895 26.304V30H170.527V21.12H171.895V24.156C172.127 23.876 172.419 23.66 172.771 23.508C173.131 23.356 173.523 23.28 173.947 23.28ZM177.864 26.664C177.864 26 178 25.412 178.272 24.9C178.552 24.388 178.928 23.992 179.4 23.712C179.88 23.424 180.408 23.28 180.984 23.28C181.504 23.28 181.956 23.384 182.34 23.592C182.732 23.792 183.044 24.044 183.276 24.348V23.388H184.656V30H183.276V29.016C183.044 29.328 182.728 29.588 182.328 29.796C181.928 30.004 181.472 30.108 180.96 30.108C180.392 30.108 179.872 29.964 179.4 29.676C178.928 29.38 178.552 28.972 178.272 28.452C178 27.924 177.864 27.328 177.864 26.664ZM183.276 26.688C183.276 26.232 183.18 25.836 182.988 25.5C182.804 25.164 182.56 24.908 182.256 24.732C181.952 24.556 181.624 24.468 181.272 24.468C180.92 24.468 180.592 24.556 180.288 24.732C179.984 24.9 179.736 25.152 179.544 25.488C179.36 25.816 179.268 26.208 179.268 26.664C179.268 27.12 179.36 27.52 179.544 27.864C179.736 28.208 179.984 28.472 180.288 28.656C180.6 28.832 180.928 28.92 181.272 28.92C181.624 28.92 181.952 28.832 182.256 28.656C182.56 28.48 182.804 28.224 182.988 27.888C183.18 27.544 183.276 27.144 183.276 26.688ZM189.789 23.28C190.309 23.28 190.773 23.388 191.181 23.604C191.597 23.82 191.921 24.14 192.153 24.564C192.385 24.988 192.501 25.5 192.501 26.1V30H191.145V26.304C191.145 25.712 190.997 25.26 190.701 24.948C190.405 24.628 190.001 24.468 189.489 24.468C188.977 24.468 188.569 24.628 188.265 24.948C187.969 25.26 187.821 25.712 187.821 26.304V30H186.453V23.388H187.821V24.144C188.045 23.872 188.329 23.66 188.673 23.508C189.025 23.356 189.397 23.28 189.789 23.28ZM197.582 23.28C198.102 23.28 198.566 23.388 198.974 23.604C199.39 23.82 199.714 24.14 199.946 24.564C200.178 24.988 200.294 25.5 200.294 26.1V30H198.938V26.304C198.938 25.712 198.79 25.26 198.494 24.948C198.198 24.628 197.794 24.468 197.282 24.468C196.77 24.468 196.362 24.628 196.058 24.948C195.762 25.26 195.614 25.712 195.614 26.304V30H194.246V23.388H195.614V24.144C195.838 23.872 196.122 23.66 196.466 23.508C196.818 23.356 197.19 23.28 197.582 23.28ZM208.099 26.532C208.099 26.78 208.083 27.004 208.051 27.204H202.999C203.039 27.732 203.235 28.156 203.587 28.476C203.939 28.796 204.371 28.956 204.883 28.956C205.619 28.956 206.139 28.648 206.443 28.032H207.919C207.719 28.64 207.355 29.14 206.827 29.532C206.307 29.916 205.659 30.108 204.883 30.108C204.251 30.108 203.683 29.968 203.179 29.688C202.683 29.4 202.291 29 202.003 28.488C201.723 27.968 201.583 27.368 201.583 26.688C201.583 26.008 201.719 25.412 201.991 24.9C202.271 24.38 202.659 23.98 203.155 23.7C203.659 23.42 204.235 23.28 204.883 23.28C205.507 23.28 206.063 23.416 206.551 23.688C207.039 23.96 207.419 24.344 207.691 24.84C207.963 25.328 208.099 25.892 208.099 26.532ZM206.671 26.1C206.663 25.596 206.483 25.192 206.131 24.888C205.779 24.584 205.343 24.432 204.823 24.432C204.351 24.432 203.947 24.584 203.611 24.888C203.275 25.184 203.075 25.588 203.011 26.1H206.671ZM210.813 21.12V30H209.445V21.12H210.813ZM219.545 23.724V24.876H213.161V23.724H219.545ZM219.545 26.448V27.6H213.161V26.448H219.545ZM221.446 26.664C221.446 26 221.582 25.412 221.854 24.9C222.134 24.388 222.51 23.992 222.982 23.712C223.462 23.424 223.99 23.28 224.566 23.28C225.086 23.28 225.538 23.384 225.922 23.592C226.314 23.792 226.626 24.044 226.858 24.348V23.388H228.238V30H226.858V29.016C226.626 29.328 226.31 29.588 225.91 29.796C225.51 30.004 225.054 30.108 224.542 30.108C223.974 30.108 223.454 29.964 222.982 29.676C222.51 29.38 222.134 28.972 221.854 28.452C221.582 27.924 221.446 27.328 221.446 26.664ZM226.858 26.688C226.858 26.232 226.762 25.836 226.57 25.5C226.386 25.164 226.142 24.908 225.838 24.732C225.534 24.556 225.206 24.468 224.854 24.468C224.502 24.468 224.174 24.556 223.87 24.732C223.566 24.9 223.318 25.152 223.126 25.488C222.942 25.816 222.85 26.208 222.85 26.664C222.85 27.12 222.942 27.52 223.126 27.864C223.318 28.208 223.566 28.472 223.87 28.656C224.182 28.832 224.51 28.92 224.854 28.92C225.206 28.92 225.534 28.832 225.838 28.656C226.142 28.48 226.386 28.224 226.57 27.888C226.762 27.544 226.858 27.144 226.858 26.688ZM235.987 23.388L231.931 33.108H230.515L231.859 29.892L229.255 23.388H230.779L232.639 28.428L234.571 23.388H235.987ZM243.007 23.388V30H241.639V29.22C241.423 29.492 241.139 29.708 240.787 29.868C240.443 30.02 240.075 30.096 239.683 30.096C239.163 30.096 238.695 29.988 238.279 29.772C237.871 29.556 237.547 29.236 237.307 28.812C237.075 28.388 236.959 27.876 236.959 27.276V23.388H238.315V27.072C238.315 27.664 238.463 28.12 238.759 28.44C239.055 28.752 239.459 28.908 239.971 28.908C240.483 28.908 240.887 28.752 241.183 28.44C241.487 28.12 241.639 27.664 241.639 27.072V23.388H243.007ZM247.212 30.108C246.692 30.108 246.224 30.016 245.808 29.832C245.4 29.64 245.076 29.384 244.836 29.064C244.596 28.736 244.468 28.372 244.452 27.972H245.868C245.892 28.252 246.024 28.488 246.264 28.68C246.512 28.864 246.82 28.956 247.188 28.956C247.572 28.956 247.868 28.884 248.076 28.74C248.292 28.588 248.4 28.396 248.4 28.164C248.4 27.916 248.28 27.732 248.04 27.612C247.808 27.492 247.436 27.36 246.924 27.216C246.428 27.08 246.024 26.948 245.712 26.82C245.4 26.692 245.128 26.496 244.896 26.232C244.672 25.968 244.56 25.62 244.56 25.188C244.56 24.836 244.664 24.516 244.872 24.228C245.08 23.932 245.376 23.7 245.76 23.532C246.152 23.364 246.6 23.28 247.104 23.28C247.856 23.28 248.46 23.472 248.916 23.856C249.38 24.232 249.628 24.748 249.66 25.404H248.292C248.268 25.108 248.148 24.872 247.932 24.696C247.716 24.52 247.424 24.432 247.056 24.432C246.696 24.432 246.42 24.5 246.228 24.636C246.036 24.772 245.94 24.952 245.94 25.176C245.94 25.352 246.004 25.5 246.132 25.62C246.26 25.74 246.416 25.836 246.6 25.908C246.784 25.972 247.056 26.056 247.416 26.16C247.896 26.288 248.288 26.42 248.592 26.556C248.904 26.684 249.172 26.876 249.396 27.132C249.62 27.388 249.736 27.728 249.744 28.152C249.744 28.528 249.64 28.864 249.432 29.16C249.224 29.456 248.928 29.688 248.544 29.856C248.168 30.024 247.724 30.108 247.212 30.108ZM257.282 26.532C257.282 26.78 257.266 27.004 257.234 27.204H252.182C252.222 27.732 252.418 28.156 252.77 28.476C253.122 28.796 253.554 28.956 254.066 28.956C254.802 28.956 255.322 28.648 255.626 28.032H257.102C256.902 28.64 256.538 29.14 256.01 29.532C255.49 29.916 254.842 30.108 254.066 30.108C253.434 30.108 252.866 29.968 252.362 29.688C251.866 29.4 251.474 29 251.186 28.488C250.906 27.968 250.766 27.368 250.766 26.688C250.766 26.008 250.902 25.412 251.174 24.9C251.454 24.38 251.842 23.98 252.338 23.7C252.842 23.42 253.418 23.28 254.066 23.28C254.69 23.28 255.246 23.416 255.734 23.688C256.222 23.96 256.602 24.344 256.874 24.84C257.146 25.328 257.282 25.892 257.282 26.532ZM255.854 26.1C255.846 25.596 255.666 25.192 255.314 24.888C254.962 24.584 254.526 24.432 254.006 24.432C253.534 24.432 253.13 24.584 252.794 24.888C252.458 25.184 252.258 25.588 252.194 26.1H255.854ZM261.245 26.7L264.293 30H262.445L259.997 27.156V30H258.629V21.12H259.997V26.28L262.397 23.388H264.293L261.245 26.7ZM264.817 26.664C264.817 26 264.953 25.412 265.225 24.9C265.505 24.388 265.881 23.992 266.353 23.712C266.833 23.424 267.361 23.28 267.937 23.28C268.457 23.28 268.909 23.384 269.293 23.592C269.685 23.792 269.997 24.044 270.229 24.348V23.388H271.609V30H270.229V29.016C269.997 29.328 269.681 29.588 269.281 29.796C268.881 30.004 268.425 30.108 267.913 30.108C267.345 30.108 266.825 29.964 266.353 29.676C265.881 29.38 265.505 28.972 265.225 28.452C264.953 27.924 264.817 27.328 264.817 26.664ZM270.229 26.688C270.229 26.232 270.133 25.836 269.941 25.5C269.757 25.164 269.513 24.908 269.209 24.732C268.905 24.556 268.577 24.468 268.225 24.468C267.873 24.468 267.545 24.556 267.241 24.732C266.937 24.9 266.689 25.152 266.497 25.488C266.313 25.816 266.221 26.208 266.221 26.664C266.221 27.12 266.313 27.52 266.497 27.864C266.689 28.208 266.937 28.472 267.241 28.656C267.553 28.832 267.881 28.92 268.225 28.92C268.577 28.92 268.905 28.832 269.209 28.656C269.513 28.48 269.757 28.224 269.941 27.888C270.133 27.544 270.229 27.144 270.229 26.688ZM274.774 24.348C274.974 24.012 275.238 23.752 275.566 23.568C275.902 23.376 276.298 23.28 276.754 23.28V24.696H276.406C275.87 24.696 275.462 24.832 275.182 25.104C274.91 25.376 274.774 25.848 274.774 26.52V30H273.406V23.388H274.774V24.348ZM279.379 24.348C279.579 24.012 279.843 23.752 280.171 23.568C280.507 23.376 280.903 23.28 281.359 23.28V24.696H281.011C280.475 24.696 280.067 24.832 279.787 25.104C279.515 25.376 279.379 25.848 279.379 26.52V30H278.011V23.388H279.379V24.348ZM283.313 22.512C283.065 22.512 282.857 22.428 282.689 22.26C282.521 22.092 282.437 21.884 282.437 21.636C282.437 21.388 282.521 21.18 282.689 21.012C282.857 20.844 283.065 20.76 283.313 20.76C283.553 20.76 283.757 20.844 283.925 21.012C284.093 21.18 284.177 21.388 284.177 21.636C284.177 21.884 284.093 22.092 283.925 22.26C283.757 22.428 283.553 22.512 283.313 22.512ZM283.985 23.388V30H282.617V23.388H283.985ZM289.117 23.28C289.637 23.28 290.101 23.388 290.509 23.604C290.925 23.82 291.249 24.14 291.481 24.564C291.713 24.988 291.829 25.5 291.829 26.1V30H290.473V26.304C290.473 25.712 290.325 25.26 290.029 24.948C289.733 24.628 289.329 24.468 288.817 24.468C288.305 24.468 287.897 24.628 287.593 24.948C287.297 25.26 287.149 25.712 287.149 26.304V30H285.781V23.388H287.149V24.144C287.373 23.872 287.657 23.66 288.001 23.508C288.353 23.356 288.725 23.28 289.117 23.28ZM294.27 22.512C294.022 22.512 293.814 22.428 293.646 22.26C293.478 22.092 293.394 21.884 293.394 21.636C293.394 21.388 293.478 21.18 293.646 21.012C293.814 20.844 294.022 20.76 294.27 20.76C294.51 20.76 294.714 20.844 294.882 21.012C295.05 21.18 295.134 21.388 295.134 21.636C295.134 21.884 295.05 22.092 294.882 22.26C294.714 22.428 294.51 22.512 294.27 22.512ZM294.942 23.388V30H293.574V23.388H294.942Z" fill="black"/>
</svg>
