<svg width="306" height="32" viewBox="0 0 306 32" fill="none" xmlns="http://www.w3.org/2000/svg">
<path d="M6.516 4.084C6.516 4.78 6.276 5.36 5.796 5.824C5.324 6.28 4.6 6.508 3.624 6.508H2.016V10H0.924V1.636H3.624C4.568 1.636 5.284 1.864 5.772 2.32C6.268 2.776 6.516 3.364 6.516 4.084ZM3.624 5.608C4.232 5.608 4.68 5.476 4.968 5.212C5.256 4.948 5.4 4.572 5.4 4.084C5.4 3.052 4.808 2.536 3.624 2.536H2.016V5.608H3.624ZM13.8732 6.46C13.8732 6.668 13.8612 6.888 13.8372 7.12H8.58122C8.62122 7.768 8.84122 8.276 9.24122 8.644C9.64922 9.004 10.1412 9.184 10.7172 9.184C11.1892 9.184 11.5812 9.076 11.8932 8.86C12.2132 8.636 12.4372 8.34 12.5652 7.972H13.7412C13.5652 8.604 13.2132 9.12 12.6852 9.52C12.1572 9.912 11.5012 10.108 10.7172 10.108C10.0932 10.108 9.53322 9.968 9.03722 9.688C8.54922 9.408 8.16522 9.012 7.88522 8.5C7.60522 7.98 7.46522 7.38 7.46522 6.7C7.46522 6.02 7.60122 5.424 7.87322 4.912C8.14522 4.4 8.52522 4.008 9.01322 3.736C9.50922 3.456 10.0772 3.316 10.7172 3.316C11.3412 3.316 11.8932 3.452 12.3732 3.724C12.8532 3.996 13.2212 4.372 13.4772 4.852C13.7412 5.324 13.8732 5.86 13.8732 6.46ZM12.7452 6.232C12.7452 5.816 12.6532 5.46 12.4692 5.164C12.2852 4.86 12.0332 4.632 11.7132 4.48C11.4012 4.32 11.0532 4.24 10.6692 4.24C10.1172 4.24 9.64522 4.416 9.25322 4.768C8.86922 5.12 8.64922 5.608 8.59322 6.232H12.7452ZM16.4066 4.492C16.5986 4.116 16.8706 3.824 17.2226 3.616C17.5826 3.408 18.0186 3.304 18.5306 3.304V4.432H18.2426C17.0186 4.432 16.4066 5.096 16.4066 6.424V10H15.3146V3.424H16.4066V4.492ZM22.1192 10.108C21.6152 10.108 21.1632 10.024 20.7632 9.856C20.3632 9.68 20.0472 9.44 19.8152 9.136C19.5832 8.824 19.4552 8.468 19.4312 8.068H20.5592C20.5912 8.396 20.7432 8.664 21.0152 8.872C21.2952 9.08 21.6592 9.184 22.1072 9.184C22.5232 9.184 22.8512 9.092 23.0912 8.908C23.3312 8.724 23.4512 8.492 23.4512 8.212C23.4512 7.924 23.3232 7.712 23.0672 7.576C22.8112 7.432 22.4152 7.292 21.8792 7.156C21.3912 7.028 20.9912 6.9 20.6792 6.772C20.3752 6.636 20.1112 6.44 19.8872 6.184C19.6712 5.92 19.5632 5.576 19.5632 5.152C19.5632 4.816 19.6632 4.508 19.8632 4.228C20.0632 3.948 20.3472 3.728 20.7152 3.568C21.0832 3.4 21.5032 3.316 21.9752 3.316C22.7032 3.316 23.2912 3.5 23.7392 3.868C24.1872 4.236 24.4272 4.74 24.4592 5.38H23.3672C23.3432 5.036 23.2032 4.76 22.9472 4.552C22.6992 4.344 22.3632 4.24 21.9392 4.24C21.5472 4.24 21.2352 4.324 21.0032 4.492C20.7712 4.66 20.6552 4.88 20.6552 5.152C20.6552 5.368 20.7232 5.548 20.8592 5.692C21.0032 5.828 21.1792 5.94 21.3872 6.028C21.6032 6.108 21.8992 6.2 22.2752 6.304C22.7472 6.432 23.1312 6.56 23.4272 6.688C23.7232 6.808 23.9752 6.992 24.1832 7.24C24.3992 7.488 24.5112 7.812 24.5192 8.212C24.5192 8.572 24.4192 8.896 24.2192 9.184C24.0192 9.472 23.7352 9.7 23.3672 9.868C23.0072 10.028 22.5912 10.108 22.1192 10.108ZM25.6527 6.688C25.6527 6.016 25.7887 5.428 26.0607 4.924C26.3327 4.412 26.7047 4.016 27.1767 3.736C27.6567 3.456 28.1887 3.316 28.7727 3.316C29.3487 3.316 29.8487 3.44 30.2727 3.688C30.6967 3.936 31.0127 4.248 31.2207 4.624V3.424H32.3247V10H31.2207V8.776C31.0047 9.16 30.6807 9.48 30.2487 9.736C29.8247 9.984 29.3287 10.108 28.7607 10.108C28.1767 10.108 27.6487 9.964 27.1767 9.676C26.7047 9.388 26.3327 8.984 26.0607 8.464C25.7887 7.944 25.6527 7.352 25.6527 6.688ZM31.2207 6.7C31.2207 6.204 31.1207 5.772 30.9207 5.404C30.7207 5.036 30.4487 4.756 30.1047 4.564C29.7687 4.364 29.3967 4.264 28.9887 4.264C28.5807 4.264 28.2087 4.36 27.8727 4.552C27.5367 4.744 27.2687 5.024 27.0687 5.392C26.8687 5.76 26.7687 6.192 26.7687 6.688C26.7687 7.192 26.8687 7.632 27.0687 8.008C27.2687 8.376 27.5367 8.66 27.8727 8.86C28.2087 9.052 28.5807 9.148 28.9887 9.148C29.3967 9.148 29.7687 9.052 30.1047 8.86C30.4487 8.66 30.7207 8.376 30.9207 8.008C31.1207 7.632 31.2207 7.196 31.2207 6.7ZM42.0781 3.304C42.5901 3.304 43.0461 3.412 43.4461 3.628C43.8461 3.836 44.1621 4.152 44.3941 4.576C44.6261 5 44.7421 5.516 44.7421 6.124V10H43.6621V6.28C43.6621 5.624 43.4981 5.124 43.1701 4.78C42.8501 4.428 42.4141 4.252 41.8621 4.252C41.2941 4.252 40.8421 4.436 40.5061 4.804C40.1701 5.164 40.0021 5.688 40.0021 6.376V10H38.9221V6.28C38.9221 5.624 38.7581 5.124 38.4301 4.78C38.1101 4.428 37.6741 4.252 37.1221 4.252C36.5541 4.252 36.1021 4.436 35.7661 4.804C35.4301 5.164 35.2621 5.688 35.2621 6.376V10H34.1701V3.424H35.2621V4.372C35.4781 4.028 35.7661 3.764 36.1261 3.58C36.4941 3.396 36.8981 3.304 37.3381 3.304C37.8901 3.304 38.3781 3.428 38.8021 3.676C39.2261 3.924 39.5421 4.288 39.7501 4.768C39.9341 4.304 40.2381 3.944 40.6621 3.688C41.0861 3.432 41.5581 3.304 42.0781 3.304ZM46.1254 6.688C46.1254 6.016 46.2614 5.428 46.5334 4.924C46.8054 4.412 47.1774 4.016 47.6494 3.736C48.1294 3.456 48.6614 3.316 49.2454 3.316C49.8214 3.316 50.3214 3.44 50.7454 3.688C51.1694 3.936 51.4854 4.248 51.6934 4.624V3.424H52.7974V10H51.6934V8.776C51.4774 9.16 51.1534 9.48 50.7214 9.736C50.2974 9.984 49.8014 10.108 49.2334 10.108C48.6494 10.108 48.1214 9.964 47.6494 9.676C47.1774 9.388 46.8054 8.984 46.5334 8.464C46.2614 7.944 46.1254 7.352 46.1254 6.688ZM51.6934 6.7C51.6934 6.204 51.5934 5.772 51.3934 5.404C51.1934 5.036 50.9214 4.756 50.5774 4.564C50.2414 4.364 49.8694 4.264 49.4614 4.264C49.0534 4.264 48.6814 4.36 48.3454 4.552C48.0094 4.744 47.7414 5.024 47.5414 5.392C47.3414 5.76 47.2414 6.192 47.2414 6.688C47.2414 7.192 47.3414 7.632 47.5414 8.008C47.7414 8.376 48.0094 8.66 48.3454 8.86C48.6814 9.052 49.0534 9.148 49.4614 9.148C49.8694 9.148 50.2414 9.052 50.5774 8.86C50.9214 8.66 51.1934 8.376 51.3934 8.008C51.5934 7.632 51.6934 7.196 51.6934 6.7ZM54.2348 6.688C54.2348 6.016 54.3708 5.428 54.6428 4.924C54.9148 4.412 55.2868 4.016 55.7588 3.736C56.2388 3.456 56.7708 3.316 57.3548 3.316C57.9308 3.316 58.4308 3.44 58.8548 3.688C59.2788 3.936 59.5948 4.248 59.8028 4.624V3.424H60.9068V10H59.8028V8.776C59.5868 9.16 59.2628 9.48 58.8308 9.736C58.4068 9.984 57.9108 10.108 57.3428 10.108C56.7588 10.108 56.2308 9.964 55.7588 9.676C55.2868 9.388 54.9148 8.984 54.6428 8.464C54.3708 7.944 54.2348 7.352 54.2348 6.688ZM59.8028 6.7C59.8028 6.204 59.7028 5.772 59.5028 5.404C59.3028 5.036 59.0308 4.756 58.6868 4.564C58.3508 4.364 57.9788 4.264 57.5708 4.264C57.1628 4.264 56.7908 4.36 56.4548 4.552C56.1188 4.744 55.8508 5.024 55.6508 5.392C55.4508 5.76 55.3508 6.192 55.3508 6.688C55.3508 7.192 55.4508 7.632 55.6508 8.008C55.8508 8.376 56.1188 8.66 56.4548 8.86C56.7908 9.052 57.1628 9.148 57.5708 9.148C57.9788 9.148 58.3508 9.052 58.6868 8.86C59.0308 8.66 59.3028 8.376 59.5028 8.008C59.7028 7.632 59.8028 7.196 59.8028 6.7ZM65.9561 3.304C66.7561 3.304 67.4041 3.548 67.9001 4.036C68.3961 4.516 68.6441 5.212 68.6441 6.124V10H67.5641V6.28C67.5641 5.624 67.4001 5.124 67.0721 4.78C66.7441 4.428 66.2961 4.252 65.7281 4.252C65.1521 4.252 64.6921 4.432 64.3481 4.792C64.0121 5.152 63.8441 5.676 63.8441 6.364V10H62.7521V3.424H63.8441V4.36C64.0601 4.024 64.3521 3.764 64.7201 3.58C65.0961 3.396 65.5081 3.304 65.9561 3.304ZM87.4585 3.304C87.9545 3.304 88.4025 3.412 88.8025 3.628C89.2025 3.836 89.5145 4.152 89.7385 4.576C89.9705 5 90.0865 5.516 90.0865 6.124V10H89.0065V6.28C89.0065 5.624 88.8425 5.124 88.5145 4.78C88.1865 4.428 87.7385 4.252 87.1705 4.252C86.5945 4.252 86.1345 4.432 85.7905 4.792C85.4545 5.152 85.2865 5.676 85.2865 6.364V10H84.1945V1.12H85.2865V4.36C85.5025 4.024 85.7985 3.764 86.1745 3.58C86.5585 3.396 86.9865 3.304 87.4585 3.304ZM97.7023 3.424V10H96.6103V9.028C96.4023 9.364 96.1103 9.628 95.7343 9.82C95.3663 10.004 94.9583 10.096 94.5103 10.096C93.9983 10.096 93.5383 9.992 93.1303 9.784C92.7223 9.568 92.3983 9.248 92.1583 8.824C91.9263 8.4 91.8103 7.884 91.8103 7.276V3.424H92.8903V7.132C92.8903 7.78 93.0543 8.28 93.3823 8.632C93.7103 8.976 94.1583 9.148 94.7263 9.148C95.3103 9.148 95.7703 8.968 96.1063 8.608C96.4423 8.248 96.6103 7.724 96.6103 7.036V3.424H97.7023ZM103.218 10L100.638 7.096V10H99.5461V1.12H100.638V6.34L103.17 3.424H104.694L101.598 6.7L104.706 10H103.218ZM111.554 3.424V10H110.462V9.028C110.254 9.364 109.962 9.628 109.586 9.82C109.218 10.004 108.81 10.096 108.362 10.096C107.85 10.096 107.39 9.992 106.982 9.784C106.574 9.568 106.25 9.248 106.01 8.824C105.778 8.4 105.662 7.884 105.662 7.276V3.424H106.742V7.132C106.742 7.78 106.906 8.28 107.234 8.632C107.562 8.976 108.01 9.148 108.578 9.148C109.162 9.148 109.622 8.968 109.958 8.608C110.294 8.248 110.462 7.724 110.462 7.036V3.424H111.554ZM121.306 3.304C121.818 3.304 122.274 3.412 122.674 3.628C123.074 3.836 123.39 4.152 123.622 4.576C123.854 5 123.97 5.516 123.97 6.124V10H122.89V6.28C122.89 5.624 122.726 5.124 122.398 4.78C122.078 4.428 121.642 4.252 121.09 4.252C120.522 4.252 120.07 4.436 119.734 4.804C119.398 5.164 119.23 5.688 119.23 6.376V10H118.15V6.28C118.15 5.624 117.986 5.124 117.658 4.78C117.338 4.428 116.902 4.252 116.35 4.252C115.782 4.252 115.33 4.436 114.994 4.804C114.658 5.164 114.49 5.688 114.49 6.376V10H113.398V3.424H114.49V4.372C114.706 4.028 114.994 3.764 115.354 3.58C115.722 3.396 116.126 3.304 116.566 3.304C117.118 3.304 117.606 3.428 118.03 3.676C118.454 3.924 118.77 4.288 118.978 4.768C119.162 4.304 119.466 3.944 119.89 3.688C120.314 3.432 120.786 3.304 121.306 3.304ZM145.12 4.084C145.12 4.78 144.88 5.36 144.4 5.824C143.928 6.28 143.204 6.508 142.228 6.508H140.62V10H139.528V1.636H142.228C143.172 1.636 143.888 1.864 144.376 2.32C144.872 2.776 145.12 3.364 145.12 4.084ZM142.228 5.608C142.836 5.608 143.284 5.476 143.572 5.212C143.86 4.948 144.004 4.572 144.004 4.084C144.004 3.052 143.412 2.536 142.228 2.536H140.62V5.608H142.228ZM152.477 6.46C152.477 6.668 152.465 6.888 152.441 7.12H147.185C147.225 7.768 147.445 8.276 147.845 8.644C148.253 9.004 148.745 9.184 149.321 9.184C149.793 9.184 150.185 9.076 150.497 8.86C150.817 8.636 151.041 8.34 151.169 7.972H152.345C152.169 8.604 151.817 9.12 151.289 9.52C150.761 9.912 150.105 10.108 149.321 10.108C148.697 10.108 148.137 9.968 147.641 9.688C147.153 9.408 146.769 9.012 146.489 8.5C146.209 7.98 146.069 7.38 146.069 6.7C146.069 6.02 146.205 5.424 146.477 4.912C146.749 4.4 147.129 4.008 147.617 3.736C148.113 3.456 148.681 3.316 149.321 3.316C149.945 3.316 150.497 3.452 150.977 3.724C151.457 3.996 151.825 4.372 152.081 4.852C152.345 5.324 152.477 5.86 152.477 6.46ZM151.349 6.232C151.349 5.816 151.257 5.46 151.073 5.164C150.889 4.86 150.637 4.632 150.317 4.48C150.005 4.32 149.657 4.24 149.273 4.24C148.721 4.24 148.249 4.416 147.857 4.768C147.473 5.12 147.253 5.608 147.197 6.232H151.349ZM155.01 4.492C155.202 4.116 155.474 3.824 155.826 3.616C156.186 3.408 156.622 3.304 157.134 3.304V4.432H156.846C155.622 4.432 155.01 5.096 155.01 6.424V10H153.918V3.424H155.01V4.492ZM161.107 3.316C161.675 3.316 162.171 3.44 162.595 3.688C163.027 3.936 163.347 4.248 163.555 4.624V3.424H164.659V10.144C164.659 10.744 164.531 11.276 164.275 11.74C164.019 12.212 163.651 12.58 163.171 12.844C162.699 13.108 162.147 13.24 161.515 13.24C160.651 13.24 159.931 13.036 159.355 12.628C158.779 12.22 158.439 11.664 158.335 10.96H159.415C159.535 11.36 159.783 11.68 160.159 11.92C160.535 12.168 160.987 12.292 161.515 12.292C162.115 12.292 162.603 12.104 162.979 11.728C163.363 11.352 163.555 10.824 163.555 10.144V8.764C163.339 9.148 163.019 9.468 162.595 9.724C162.171 9.98 161.675 10.108 161.107 10.108C160.523 10.108 159.991 9.964 159.511 9.676C159.039 9.388 158.667 8.984 158.395 8.464C158.123 7.944 157.987 7.352 157.987 6.688C157.987 6.016 158.123 5.428 158.395 4.924C158.667 4.412 159.039 4.016 159.511 3.736C159.991 3.456 160.523 3.316 161.107 3.316ZM163.555 6.7C163.555 6.204 163.455 5.772 163.255 5.404C163.055 5.036 162.783 4.756 162.439 4.564C162.103 4.364 161.731 4.264 161.323 4.264C160.915 4.264 160.543 4.36 160.207 4.552C159.871 4.744 159.603 5.024 159.403 5.392C159.203 5.76 159.103 6.192 159.103 6.688C159.103 7.192 159.203 7.632 159.403 8.008C159.603 8.376 159.871 8.66 160.207 8.86C160.543 9.052 160.915 9.148 161.323 9.148C161.731 9.148 162.103 9.052 162.439 8.86C162.783 8.66 163.055 8.376 163.255 8.008C163.455 7.632 163.555 7.196 163.555 6.7ZM172.504 6.46C172.504 6.668 172.492 6.888 172.468 7.12H167.212C167.252 7.768 167.472 8.276 167.872 8.644C168.28 9.004 168.772 9.184 169.348 9.184C169.82 9.184 170.212 9.076 170.524 8.86C170.844 8.636 171.068 8.34 171.196 7.972H172.372C172.196 8.604 171.844 9.12 171.316 9.52C170.788 9.912 170.132 10.108 169.348 10.108C168.724 10.108 168.164 9.968 167.668 9.688C167.18 9.408 166.796 9.012 166.516 8.5C166.236 7.98 166.096 7.38 166.096 6.7C166.096 6.02 166.232 5.424 166.504 4.912C166.776 4.4 167.156 4.008 167.644 3.736C168.14 3.456 168.708 3.316 169.348 3.316C169.972 3.316 170.524 3.452 171.004 3.724C171.484 3.996 171.852 4.372 172.108 4.852C172.372 5.324 172.504 5.86 172.504 6.46ZM171.376 6.232C171.376 5.816 171.284 5.46 171.1 5.164C170.916 4.86 170.664 4.632 170.344 4.48C170.032 4.32 169.684 4.24 169.3 4.24C168.748 4.24 168.276 4.416 167.884 4.768C167.5 5.12 167.28 5.608 167.224 6.232H171.376ZM176.273 10.108C175.769 10.108 175.317 10.024 174.917 9.856C174.517 9.68 174.201 9.44 173.969 9.136C173.737 8.824 173.609 8.468 173.585 8.068H174.713C174.745 8.396 174.897 8.664 175.169 8.872C175.449 9.08 175.813 9.184 176.261 9.184C176.677 9.184 177.005 9.092 177.245 8.908C177.485 8.724 177.605 8.492 177.605 8.212C177.605 7.924 177.477 7.712 177.221 7.576C176.965 7.432 176.569 7.292 176.033 7.156C175.545 7.028 175.145 6.9 174.833 6.772C174.529 6.636 174.265 6.44 174.041 6.184C173.825 5.92 173.717 5.576 173.717 5.152C173.717 4.816 173.817 4.508 174.017 4.228C174.217 3.948 174.501 3.728 174.869 3.568C175.237 3.4 175.657 3.316 176.129 3.316C176.857 3.316 177.445 3.5 177.893 3.868C178.341 4.236 178.581 4.74 178.613 5.38H177.521C177.497 5.036 177.357 4.76 177.101 4.552C176.853 4.344 176.517 4.24 176.093 4.24C175.701 4.24 175.389 4.324 175.157 4.492C174.925 4.66 174.809 4.88 174.809 5.152C174.809 5.368 174.877 5.548 175.013 5.692C175.157 5.828 175.333 5.94 175.541 6.028C175.757 6.108 176.053 6.2 176.429 6.304C176.901 6.432 177.285 6.56 177.581 6.688C177.877 6.808 178.129 6.992 178.337 7.24C178.553 7.488 178.665 7.812 178.673 8.212C178.673 8.572 178.573 8.896 178.373 9.184C178.173 9.472 177.889 9.7 177.521 9.868C177.161 10.028 176.745 10.108 176.273 10.108ZM186.215 6.46C186.215 6.668 186.203 6.888 186.179 7.12H180.923C180.963 7.768 181.183 8.276 181.583 8.644C181.991 9.004 182.483 9.184 183.059 9.184C183.531 9.184 183.923 9.076 184.235 8.86C184.555 8.636 184.779 8.34 184.907 7.972H186.083C185.907 8.604 185.555 9.12 185.027 9.52C184.499 9.912 183.843 10.108 183.059 10.108C182.435 10.108 181.875 9.968 181.379 9.688C180.891 9.408 180.507 9.012 180.227 8.5C179.947 7.98 179.807 7.38 179.807 6.7C179.807 6.02 179.943 5.424 180.215 4.912C180.487 4.4 180.867 4.008 181.355 3.736C181.851 3.456 182.419 3.316 183.059 3.316C183.683 3.316 184.235 3.452 184.715 3.724C185.195 3.996 185.563 4.372 185.819 4.852C186.083 5.324 186.215 5.86 186.215 6.46ZM185.087 6.232C185.087 5.816 184.995 5.46 184.811 5.164C184.627 4.86 184.375 4.632 184.055 4.48C183.743 4.32 183.395 4.24 183.011 4.24C182.459 4.24 181.987 4.416 181.595 4.768C181.211 5.12 180.991 5.608 180.935 6.232H185.087ZM188.748 4.492C188.94 4.116 189.212 3.824 189.564 3.616C189.924 3.408 190.36 3.304 190.872 3.304V4.432H190.584C189.36 4.432 188.748 5.096 188.748 6.424V10H187.656V3.424H188.748V4.492ZM191.725 6.688C191.725 6.016 191.861 5.428 192.133 4.924C192.405 4.412 192.777 4.016 193.249 3.736C193.729 3.456 194.261 3.316 194.845 3.316C195.421 3.316 195.921 3.44 196.345 3.688C196.769 3.936 197.085 4.248 197.293 4.624V3.424H198.397V10H197.293V8.776C197.077 9.16 196.753 9.48 196.321 9.736C195.897 9.984 195.401 10.108 194.833 10.108C194.249 10.108 193.721 9.964 193.249 9.676C192.777 9.388 192.405 8.984 192.133 8.464C191.861 7.944 191.725 7.352 191.725 6.688ZM197.293 6.7C197.293 6.204 197.193 5.772 196.993 5.404C196.793 5.036 196.521 4.756 196.177 4.564C195.841 4.364 195.469 4.264 195.061 4.264C194.653 4.264 194.281 4.36 193.945 4.552C193.609 4.744 193.341 5.024 193.141 5.392C192.941 5.76 192.841 6.192 192.841 6.688C192.841 7.192 192.941 7.632 193.141 8.008C193.341 8.376 193.609 8.66 193.945 8.86C194.281 9.052 194.653 9.148 195.061 9.148C195.469 9.148 195.841 9.052 196.177 8.86C196.521 8.66 196.793 8.376 196.993 8.008C197.193 7.632 197.293 7.196 197.293 6.7ZM203.446 3.304C204.246 3.304 204.894 3.548 205.39 4.036C205.886 4.516 206.134 5.212 206.134 6.124V10H205.054V6.28C205.054 5.624 204.89 5.124 204.562 4.78C204.234 4.428 203.786 4.252 203.218 4.252C202.642 4.252 202.182 4.432 201.838 4.792C201.502 5.152 201.334 5.676 201.334 6.364V10H200.242V3.424H201.334V4.36C201.55 4.024 201.842 3.764 202.21 3.58C202.586 3.396 202.998 3.304 203.446 3.304ZM232.197 1.636L229.773 10H228.549L226.605 3.268L224.589 10L223.377 10.012L221.037 1.636H222.201L224.025 8.728L226.041 1.636H227.265L229.185 8.704L231.021 1.636H232.197ZM233.956 2.356C233.748 2.356 233.572 2.284 233.428 2.14C233.284 1.996 233.212 1.82 233.212 1.612C233.212 1.404 233.284 1.228 233.428 1.084C233.572 0.94 233.748 0.868 233.956 0.868C234.156 0.868 234.324 0.94 234.46 1.084C234.604 1.228 234.676 1.404 234.676 1.612C234.676 1.82 234.604 1.996 234.46 2.14C234.324 2.284 234.156 2.356 233.956 2.356ZM234.484 3.424V10H233.392V3.424H234.484ZM242.345 6.46C242.345 6.668 242.333 6.888 242.309 7.12H237.053C237.093 7.768 237.313 8.276 237.713 8.644C238.121 9.004 238.613 9.184 239.189 9.184C239.661 9.184 240.053 9.076 240.365 8.86C240.685 8.636 240.909 8.34 241.037 7.972H242.213C242.037 8.604 241.685 9.12 241.157 9.52C240.629 9.912 239.973 10.108 239.189 10.108C238.565 10.108 238.005 9.968 237.509 9.688C237.021 9.408 236.637 9.012 236.357 8.5C236.077 7.98 235.937 7.38 235.937 6.7C235.937 6.02 236.073 5.424 236.345 4.912C236.617 4.4 236.997 4.008 237.485 3.736C237.981 3.456 238.549 3.316 239.189 3.316C239.813 3.316 240.365 3.452 240.845 3.724C241.325 3.996 241.693 4.372 241.949 4.852C242.213 5.324 242.345 5.86 242.345 6.46ZM241.217 6.232C241.217 5.816 241.125 5.46 240.941 5.164C240.757 4.86 240.505 4.632 240.185 4.48C239.873 4.32 239.525 4.24 239.141 4.24C238.589 4.24 238.117 4.416 237.725 4.768C237.341 5.12 237.121 5.608 237.065 6.232H241.217ZM246.99 3.304C247.79 3.304 248.438 3.548 248.934 4.036C249.43 4.516 249.678 5.212 249.678 6.124V10H248.598V6.28C248.598 5.624 248.434 5.124 248.106 4.78C247.778 4.428 247.33 4.252 246.762 4.252C246.186 4.252 245.726 4.432 245.382 4.792C245.046 5.152 244.878 5.676 244.878 6.364V10H243.786V3.424H244.878V4.36C245.094 4.024 245.386 3.764 245.754 3.58C246.13 3.396 246.542 3.304 246.99 3.304ZM267.557 10.108C267.053 10.108 266.601 10.024 266.201 9.856C265.801 9.68 265.485 9.44 265.253 9.136C265.021 8.824 264.893 8.468 264.869 8.068H265.997C266.029 8.396 266.181 8.664 266.453 8.872C266.733 9.08 267.097 9.184 267.545 9.184C267.961 9.184 268.289 9.092 268.529 8.908C268.769 8.724 268.889 8.492 268.889 8.212C268.889 7.924 268.761 7.712 268.505 7.576C268.249 7.432 267.853 7.292 267.317 7.156C266.829 7.028 266.429 6.9 266.117 6.772C265.813 6.636 265.549 6.44 265.325 6.184C265.109 5.92 265.001 5.576 265.001 5.152C265.001 4.816 265.101 4.508 265.301 4.228C265.501 3.948 265.785 3.728 266.153 3.568C266.521 3.4 266.941 3.316 267.413 3.316C268.141 3.316 268.729 3.5 269.177 3.868C269.625 4.236 269.865 4.74 269.897 5.38H268.805C268.781 5.036 268.641 4.76 268.385 4.552C268.137 4.344 267.801 4.24 267.377 4.24C266.985 4.24 266.673 4.324 266.441 4.492C266.209 4.66 266.093 4.88 266.093 5.152C266.093 5.368 266.161 5.548 266.297 5.692C266.441 5.828 266.617 5.94 266.825 6.028C267.041 6.108 267.337 6.2 267.713 6.304C268.185 6.432 268.569 6.56 268.865 6.688C269.161 6.808 269.413 6.992 269.621 7.24C269.837 7.488 269.949 7.812 269.957 8.212C269.957 8.572 269.857 8.896 269.657 9.184C269.457 9.472 269.173 9.7 268.805 9.868C268.445 10.028 268.029 10.108 267.557 10.108ZM277.498 6.46C277.498 6.668 277.486 6.888 277.462 7.12H272.206C272.246 7.768 272.466 8.276 272.866 8.644C273.274 9.004 273.766 9.184 274.342 9.184C274.814 9.184 275.206 9.076 275.518 8.86C275.838 8.636 276.062 8.34 276.19 7.972H277.366C277.19 8.604 276.838 9.12 276.31 9.52C275.782 9.912 275.126 10.108 274.342 10.108C273.718 10.108 273.158 9.968 272.662 9.688C272.174 9.408 271.79 9.012 271.51 8.5C271.23 7.98 271.09 7.38 271.09 6.7C271.09 6.02 271.226 5.424 271.498 4.912C271.77 4.4 272.15 4.008 272.638 3.736C273.134 3.456 273.702 3.316 274.342 3.316C274.966 3.316 275.518 3.452 275.998 3.724C276.478 3.996 276.846 4.372 277.102 4.852C277.366 5.324 277.498 5.86 277.498 6.46ZM276.37 6.232C276.37 5.816 276.278 5.46 276.094 5.164C275.91 4.86 275.658 4.632 275.338 4.48C275.026 4.32 274.678 4.24 274.294 4.24C273.742 4.24 273.27 4.416 272.878 4.768C272.494 5.12 272.274 5.608 272.218 6.232H276.37ZM278.532 6.7C278.532 6.02 278.668 5.428 278.94 4.924C279.212 4.412 279.588 4.016 280.068 3.736C280.556 3.456 281.112 3.316 281.736 3.316C282.544 3.316 283.208 3.512 283.728 3.904C284.256 4.296 284.604 4.84 284.772 5.536H283.596C283.484 5.136 283.264 4.82 282.936 4.588C282.616 4.356 282.216 4.24 281.736 4.24C281.112 4.24 280.608 4.456 280.224 4.888C279.84 5.312 279.648 5.916 279.648 6.7C279.648 7.492 279.84 8.104 280.224 8.536C280.608 8.968 281.112 9.184 281.736 9.184C282.216 9.184 282.616 9.072 282.936 8.848C283.256 8.624 283.476 8.304 283.596 7.888H284.772C284.596 8.56 284.244 9.1 283.716 9.508C283.188 9.908 282.528 10.108 281.736 10.108C281.112 10.108 280.556 9.968 280.068 9.688C279.588 9.408 279.212 9.012 278.94 8.5C278.668 7.988 278.532 7.388 278.532 6.7ZM285.821 6.688C285.821 6.016 285.957 5.428 286.229 4.924C286.501 4.412 286.873 4.016 287.345 3.736C287.825 3.456 288.357 3.316 288.941 3.316C289.517 3.316 290.017 3.44 290.441 3.688C290.865 3.936 291.181 4.248 291.389 4.624V3.424H292.493V10H291.389V8.776C291.173 9.16 290.849 9.48 290.417 9.736C289.993 9.984 289.497 10.108 288.929 10.108C288.345 10.108 287.817 9.964 287.345 9.676C286.873 9.388 286.501 8.984 286.229 8.464C285.957 7.944 285.821 7.352 285.821 6.688ZM291.389 6.7C291.389 6.204 291.289 5.772 291.089 5.404C290.889 5.036 290.617 4.756 290.273 4.564C289.937 4.364 289.565 4.264 289.157 4.264C288.749 4.264 288.377 4.36 288.041 4.552C287.705 4.744 287.437 5.024 287.237 5.392C287.037 5.76 286.937 6.192 286.937 6.688C286.937 7.192 287.037 7.632 287.237 8.008C287.437 8.376 287.705 8.66 288.041 8.86C288.377 9.052 288.749 9.148 289.157 9.148C289.565 9.148 289.937 9.052 290.273 8.86C290.617 8.66 290.889 8.376 291.089 8.008C291.289 7.632 291.389 7.196 291.389 6.7ZM295.43 4.492C295.622 4.116 295.894 3.824 296.246 3.616C296.606 3.408 297.042 3.304 297.554 3.304V4.432H297.266C296.042 4.432 295.43 5.096 295.43 6.424V10H294.338V3.424H295.43V4.492ZM298.407 6.688C298.407 6.016 298.543 5.428 298.815 4.924C299.087 4.412 299.459 4.016 299.931 3.736C300.411 3.456 300.943 3.316 301.527 3.316C302.103 3.316 302.603 3.44 303.027 3.688C303.451 3.936 303.767 4.248 303.975 4.624V3.424H305.079V10H303.975V8.776C303.759 9.16 303.435 9.48 303.003 9.736C302.579 9.984 302.083 10.108 301.515 10.108C300.931 10.108 300.403 9.964 299.931 9.676C299.459 9.388 299.087 8.984 298.815 8.464C298.543 7.944 298.407 7.352 298.407 6.688ZM303.975 6.7C303.975 6.204 303.875 5.772 303.675 5.404C303.475 5.036 303.203 4.756 302.859 4.564C302.523 4.364 302.151 4.264 301.743 4.264C301.335 4.264 300.963 4.36 300.627 4.552C300.291 4.744 300.023 5.024 299.823 5.392C299.623 5.76 299.523 6.192 299.523 6.688C299.523 7.192 299.623 7.632 299.823 8.008C300.023 8.376 300.291 8.66 300.627 8.86C300.963 9.052 301.335 9.148 301.743 9.148C302.151 9.148 302.523 9.052 302.859 8.86C303.203 8.66 303.475 8.376 303.675 8.008C303.875 7.632 303.975 7.196 303.975 6.7ZM8.832 21.304C9.344 21.304 9.8 21.412 10.2 21.628C10.6 21.836 10.916 22.152 11.148 22.576C11.38 23 11.496 23.516 11.496 24.124V28H10.416V24.28C10.416 23.624 10.252 23.124 9.924 22.78C9.604 22.428 9.168 22.252 8.616 22.252C8.048 22.252 7.596 22.436 7.26 22.804C6.924 23.164 6.756 23.688 6.756 24.376V28H5.676V24.28C5.676 23.624 5.512 23.124 5.184 22.78C4.864 22.428 4.428 22.252 3.876 22.252C3.308 22.252 2.856 22.436 2.52 22.804C2.184 23.164 2.016 23.688 2.016 24.376V28H0.924V21.424H2.016V22.372C2.232 22.028 2.52 21.764 2.88 21.58C3.248 21.396 3.652 21.304 4.092 21.304C4.644 21.304 5.132 21.428 5.556 21.676C5.98 21.924 6.296 22.288 6.504 22.768C6.688 22.304 6.992 21.944 7.416 21.688C7.84 21.432 8.312 21.304 8.832 21.304ZM12.8793 24.688C12.8793 24.016 13.0153 23.428 13.2873 22.924C13.5593 22.412 13.9313 22.016 14.4033 21.736C14.8833 21.456 15.4153 21.316 15.9993 21.316C16.5753 21.316 17.0753 21.44 17.4993 21.688C17.9233 21.936 18.2393 22.248 18.4473 22.624V21.424H19.5513V28H18.4473V26.776C18.2313 27.16 17.9073 27.48 17.4753 27.736C17.0513 27.984 16.5553 28.108 15.9873 28.108C15.4033 28.108 14.8753 27.964 14.4033 27.676C13.9313 27.388 13.5593 26.984 13.2873 26.464C13.0153 25.944 12.8793 25.352 12.8793 24.688ZM18.4473 24.7C18.4473 24.204 18.3473 23.772 18.1473 23.404C17.9473 23.036 17.6753 22.756 17.3313 22.564C16.9953 22.364 16.6233 22.264 16.2153 22.264C15.8073 22.264 15.4353 22.36 15.0993 22.552C14.7633 22.744 14.4953 23.024 14.2953 23.392C14.0953 23.76 13.9953 24.192 13.9953 24.688C13.9953 25.192 14.0953 25.632 14.2953 26.008C14.4953 26.376 14.7633 26.66 15.0993 26.86C15.4353 27.052 15.8073 27.148 16.2153 27.148C16.6233 27.148 16.9953 27.052 17.3313 26.86C17.6753 26.66 17.9473 26.376 18.1473 26.008C18.3473 25.632 18.4473 25.196 18.4473 24.7ZM22.7287 22.324V26.2C22.7287 26.52 22.7967 26.748 22.9327 26.884C23.0687 27.012 23.3047 27.076 23.6407 27.076H24.4447V28H23.4607C22.8527 28 22.3967 27.86 22.0927 27.58C21.7887 27.3 21.6367 26.84 21.6367 26.2V22.324H20.7847V21.424H21.6367V19.768H22.7287V21.424H24.4447V22.324H22.7287ZM31.7678 24.46C31.7678 24.668 31.7558 24.888 31.7318 25.12H26.4758C26.5158 25.768 26.7358 26.276 27.1358 26.644C27.5438 27.004 28.0358 27.184 28.6118 27.184C29.0838 27.184 29.4758 27.076 29.7878 26.86C30.1078 26.636 30.3318 26.34 30.4598 25.972H31.6358C31.4598 26.604 31.1078 27.12 30.5798 27.52C30.0518 27.912 29.3958 28.108 28.6118 28.108C27.9878 28.108 27.4278 27.968 26.9318 27.688C26.4438 27.408 26.0598 27.012 25.7798 26.5C25.4998 25.98 25.3598 25.38 25.3598 24.7C25.3598 24.02 25.4958 23.424 25.7678 22.912C26.0398 22.4 26.4198 22.008 26.9078 21.736C27.4038 21.456 27.9718 21.316 28.6118 21.316C29.2358 21.316 29.7878 21.452 30.2678 21.724C30.7478 21.996 31.1158 22.372 31.3718 22.852C31.6358 23.324 31.7678 23.86 31.7678 24.46ZM30.6398 24.232C30.6398 23.816 30.5478 23.46 30.3638 23.164C30.1798 22.86 29.9278 22.632 29.6078 22.48C29.2958 22.32 28.9478 22.24 28.5638 22.24C28.0118 22.24 27.5398 22.416 27.1478 22.768C26.7638 23.12 26.5438 23.608 26.4878 24.232H30.6398ZM41.1172 21.304C41.6292 21.304 42.0852 21.412 42.4852 21.628C42.8852 21.836 43.2012 22.152 43.4332 22.576C43.6652 23 43.7812 23.516 43.7812 24.124V28H42.7012V24.28C42.7012 23.624 42.5372 23.124 42.2092 22.78C41.8892 22.428 41.4532 22.252 40.9012 22.252C40.3332 22.252 39.8812 22.436 39.5452 22.804C39.2092 23.164 39.0412 23.688 39.0412 24.376V28H37.9612V24.28C37.9612 23.624 37.7972 23.124 37.4692 22.78C37.1492 22.428 36.7132 22.252 36.1612 22.252C35.5932 22.252 35.1412 22.436 34.8052 22.804C34.4692 23.164 34.3012 23.688 34.3012 24.376V28H33.2092V21.424H34.3012V22.372C34.5172 22.028 34.8052 21.764 35.1652 21.58C35.5332 21.396 35.9372 21.304 36.3772 21.304C36.9292 21.304 37.4172 21.428 37.8412 21.676C38.2652 21.924 38.5812 22.288 38.7892 22.768C38.9732 22.304 39.2772 21.944 39.7012 21.688C40.1252 21.432 40.5972 21.304 41.1172 21.304ZM45.1644 24.688C45.1644 24.016 45.3004 23.428 45.5724 22.924C45.8444 22.412 46.2164 22.016 46.6884 21.736C47.1684 21.456 47.7004 21.316 48.2844 21.316C48.8604 21.316 49.3604 21.44 49.7844 21.688C50.2084 21.936 50.5244 22.248 50.7324 22.624V21.424H51.8364V28H50.7324V26.776C50.5164 27.16 50.1924 27.48 49.7604 27.736C49.3364 27.984 48.8404 28.108 48.2724 28.108C47.6884 28.108 47.1604 27.964 46.6884 27.676C46.2164 27.388 45.8444 26.984 45.5724 26.464C45.3004 25.944 45.1644 25.352 45.1644 24.688ZM50.7324 24.7C50.7324 24.204 50.6324 23.772 50.4324 23.404C50.2324 23.036 49.9604 22.756 49.6164 22.564C49.2804 22.364 48.9084 22.264 48.5004 22.264C48.0924 22.264 47.7204 22.36 47.3844 22.552C47.0484 22.744 46.7804 23.024 46.5804 23.392C46.3804 23.76 46.2804 24.192 46.2804 24.688C46.2804 25.192 46.3804 25.632 46.5804 26.008C46.7804 26.376 47.0484 26.66 47.3844 26.86C47.7204 27.052 48.0924 27.148 48.5004 27.148C48.9084 27.148 49.2804 27.052 49.6164 26.86C49.9604 26.66 50.2324 26.376 50.4324 26.008C50.6324 25.632 50.7324 25.196 50.7324 24.7ZM55.0138 22.324V26.2C55.0138 26.52 55.0818 26.748 55.2178 26.884C55.3538 27.012 55.5898 27.076 55.9258 27.076H56.7298V28H55.7458C55.1378 28 54.6818 27.86 54.3778 27.58C54.0738 27.3 53.9218 26.84 53.9218 26.2V22.324H53.0698V21.424H53.9218V19.768H55.0138V21.424H56.7298V22.324H55.0138ZM58.6169 20.356C58.4089 20.356 58.2329 20.284 58.0889 20.14C57.9449 19.996 57.8729 19.82 57.8729 19.612C57.8729 19.404 57.9449 19.228 58.0889 19.084C58.2329 18.94 58.4089 18.868 58.6169 18.868C58.8169 18.868 58.9849 18.94 59.1209 19.084C59.2649 19.228 59.3369 19.404 59.3369 19.612C59.3369 19.82 59.2649 19.996 59.1209 20.14C58.9849 20.284 58.8169 20.356 58.6169 20.356ZM59.1449 21.424V28H58.0529V21.424H59.1449ZM63.334 28.108C62.83 28.108 62.378 28.024 61.978 27.856C61.578 27.68 61.262 27.44 61.03 27.136C60.798 26.824 60.67 26.468 60.646 26.068H61.774C61.806 26.396 61.958 26.664 62.23 26.872C62.51 27.08 62.874 27.184 63.322 27.184C63.738 27.184 64.066 27.092 64.306 26.908C64.546 26.724 64.666 26.492 64.666 26.212C64.666 25.924 64.538 25.712 64.282 25.576C64.026 25.432 63.63 25.292 63.094 25.156C62.606 25.028 62.206 24.9 61.894 24.772C61.59 24.636 61.326 24.44 61.102 24.184C60.886 23.92 60.778 23.576 60.778 23.152C60.778 22.816 60.878 22.508 61.078 22.228C61.278 21.948 61.562 21.728 61.93 21.568C62.298 21.4 62.718 21.316 63.19 21.316C63.918 21.316 64.506 21.5 64.954 21.868C65.402 22.236 65.642 22.74 65.674 23.38H64.582C64.558 23.036 64.418 22.76 64.162 22.552C63.914 22.344 63.578 22.24 63.154 22.24C62.762 22.24 62.45 22.324 62.218 22.492C61.986 22.66 61.87 22.88 61.87 23.152C61.87 23.368 61.938 23.548 62.074 23.692C62.218 23.828 62.394 23.94 62.602 24.028C62.818 24.108 63.114 24.2 63.49 24.304C63.962 24.432 64.346 24.56 64.642 24.688C64.938 24.808 65.19 24.992 65.398 25.24C65.614 25.488 65.726 25.812 65.734 26.212C65.734 26.572 65.634 26.896 65.434 27.184C65.234 27.472 64.95 27.7 64.582 27.868C64.222 28.028 63.806 28.108 63.334 28.108ZM70.0668 24.688C70.0668 24.016 70.2028 23.428 70.4748 22.924C70.7468 22.412 71.1188 22.016 71.5908 21.736C72.0708 21.456 72.6068 21.316 73.1988 21.316C73.7108 21.316 74.1868 21.436 74.6268 21.676C75.0668 21.908 75.4028 22.216 75.6348 22.6V19.12H76.7388V28H75.6348V26.764C75.4188 27.156 75.0988 27.48 74.6748 27.736C74.2508 27.984 73.7548 28.108 73.1868 28.108C72.6028 28.108 72.0708 27.964 71.5908 27.676C71.1188 27.388 70.7468 26.984 70.4748 26.464C70.2028 25.944 70.0668 25.352 70.0668 24.688ZM75.6348 24.7C75.6348 24.204 75.5348 23.772 75.3348 23.404C75.1348 23.036 74.8628 22.756 74.5188 22.564C74.1828 22.364 73.8108 22.264 73.4028 22.264C72.9948 22.264 72.6228 22.36 72.2868 22.552C71.9508 22.744 71.6828 23.024 71.4828 23.392C71.2828 23.76 71.1828 24.192 71.1828 24.688C71.1828 25.192 71.2828 25.632 71.4828 26.008C71.6828 26.376 71.9508 26.66 72.2868 26.86C72.6228 27.052 72.9948 27.148 73.4028 27.148C73.8108 27.148 74.1828 27.052 74.5188 26.86C74.8628 26.66 75.1348 26.376 75.3348 26.008C75.5348 25.632 75.6348 25.196 75.6348 24.7ZM79.1482 20.356C78.9402 20.356 78.7642 20.284 78.6202 20.14C78.4762 19.996 78.4042 19.82 78.4042 19.612C78.4042 19.404 78.4762 19.228 78.6202 19.084C78.7642 18.94 78.9402 18.868 79.1482 18.868C79.3482 18.868 79.5162 18.94 79.6522 19.084C79.7962 19.228 79.8682 19.404 79.8682 19.612C79.8682 19.82 79.7962 19.996 79.6522 20.14C79.5162 20.284 79.3482 20.356 79.1482 20.356ZM79.6762 21.424V28H78.5842V21.424H79.6762ZM82.8693 22.324V26.2C82.8693 26.52 82.9373 26.748 83.0733 26.884C83.2093 27.012 83.4453 27.076 83.7813 27.076H84.5853V28H83.6013C82.9933 28 82.5373 27.86 82.2333 27.58C81.9293 27.3 81.7773 26.84 81.7773 26.2V22.324H80.9253V21.424H81.7773V19.768H82.8693V21.424H84.5853V22.324H82.8693ZM91.7404 21.424V28H90.6484V27.028C90.4404 27.364 90.1484 27.628 89.7724 27.82C89.4044 28.004 88.9964 28.096 88.5484 28.096C88.0364 28.096 87.5764 27.992 87.1684 27.784C86.7604 27.568 86.4364 27.248 86.1964 26.824C85.9644 26.4 85.8484 25.884 85.8484 25.276V21.424H86.9284V25.132C86.9284 25.78 87.0924 26.28 87.4204 26.632C87.7484 26.976 88.1964 27.148 88.7644 27.148C89.3484 27.148 89.8084 26.968 90.1444 26.608C90.4804 26.248 90.6484 25.724 90.6484 25.036V21.424H91.7404ZM94.6762 19.12V28H93.5842V19.12H94.6762ZM97.1013 20.356C96.8933 20.356 96.7173 20.284 96.5733 20.14C96.4293 19.996 96.3573 19.82 96.3573 19.612C96.3573 19.404 96.4293 19.228 96.5733 19.084C96.7173 18.94 96.8933 18.868 97.1013 18.868C97.3013 18.868 97.4693 18.94 97.6053 19.084C97.7493 19.228 97.8213 19.404 97.8213 19.612C97.8213 19.82 97.7493 19.996 97.6053 20.14C97.4693 20.284 97.3013 20.356 97.1013 20.356ZM97.6293 21.424V28H96.5373V21.424H97.6293ZM101.818 28.108C101.314 28.108 100.862 28.024 100.462 27.856C100.062 27.68 99.7464 27.44 99.5144 27.136C99.2824 26.824 99.1544 26.468 99.1304 26.068H100.258C100.29 26.396 100.442 26.664 100.714 26.872C100.994 27.08 101.358 27.184 101.806 27.184C102.222 27.184 102.55 27.092 102.79 26.908C103.03 26.724 103.15 26.492 103.15 26.212C103.15 25.924 103.022 25.712 102.766 25.576C102.51 25.432 102.114 25.292 101.578 25.156C101.09 25.028 100.69 24.9 100.378 24.772C100.074 24.636 99.8104 24.44 99.5864 24.184C99.3704 23.92 99.2624 23.576 99.2624 23.152C99.2624 22.816 99.3624 22.508 99.5624 22.228C99.7624 21.948 100.046 21.728 100.414 21.568C100.782 21.4 101.202 21.316 101.674 21.316C102.402 21.316 102.99 21.5 103.438 21.868C103.886 22.236 104.126 22.74 104.158 23.38H103.066C103.042 23.036 102.902 22.76 102.646 22.552C102.398 22.344 102.062 22.24 101.638 22.24C101.246 22.24 100.934 22.324 100.702 22.492C100.47 22.66 100.354 22.88 100.354 23.152C100.354 23.368 100.422 23.548 100.558 23.692C100.702 23.828 100.878 23.94 101.086 24.028C101.302 24.108 101.598 24.2 101.974 24.304C102.446 24.432 102.83 24.56 103.126 24.688C103.422 24.808 103.674 24.992 103.882 25.24C104.098 25.488 104.21 25.812 104.218 26.212C104.218 26.572 104.118 26.896 103.918 27.184C103.718 27.472 103.434 27.7 103.066 27.868C102.706 28.028 102.29 28.108 101.818 28.108ZM109.432 28L106.852 25.096V28H105.76V19.12H106.852V24.34L109.384 21.424H110.908L107.812 24.7L110.92 28H109.432ZM111.528 24.688C111.528 24.016 111.664 23.428 111.936 22.924C112.208 22.412 112.58 22.016 113.052 21.736C113.532 21.456 114.064 21.316 114.648 21.316C115.224 21.316 115.724 21.44 116.148 21.688C116.572 21.936 116.888 22.248 117.096 22.624V21.424H118.2V28H117.096V26.776C116.88 27.16 116.556 27.48 116.124 27.736C115.7 27.984 115.204 28.108 114.636 28.108C114.052 28.108 113.524 27.964 113.052 27.676C112.58 27.388 112.208 26.984 111.936 26.464C111.664 25.944 111.528 25.352 111.528 24.688ZM117.096 24.7C117.096 24.204 116.996 23.772 116.796 23.404C116.596 23.036 116.324 22.756 115.98 22.564C115.644 22.364 115.272 22.264 114.864 22.264C114.456 22.264 114.084 22.36 113.748 22.552C113.412 22.744 113.144 23.024 112.944 23.392C112.744 23.76 112.644 24.192 112.644 24.688C112.644 25.192 112.744 25.632 112.944 26.008C113.144 26.376 113.412 26.66 113.748 26.86C114.084 27.052 114.456 27.148 114.864 27.148C115.272 27.148 115.644 27.052 115.98 26.86C116.324 26.66 116.596 26.376 116.796 26.008C116.996 25.632 117.096 25.196 117.096 24.7ZM123.249 21.304C124.049 21.304 124.697 21.548 125.193 22.036C125.689 22.516 125.937 23.212 125.937 24.124V28H124.857V24.28C124.857 23.624 124.693 23.124 124.365 22.78C124.037 22.428 123.589 22.252 123.021 22.252C122.445 22.252 121.985 22.432 121.641 22.792C121.305 23.152 121.137 23.676 121.137 24.364V28H120.045V21.424H121.137V22.36C121.353 22.024 121.645 21.764 122.013 21.58C122.389 21.396 122.801 21.304 123.249 21.304ZM133.248 28.108C132.744 28.108 132.292 28.024 131.892 27.856C131.492 27.68 131.176 27.44 130.944 27.136C130.712 26.824 130.584 26.468 130.56 26.068H131.688C131.72 26.396 131.872 26.664 132.144 26.872C132.424 27.08 132.788 27.184 133.236 27.184C133.652 27.184 133.98 27.092 134.22 26.908C134.46 26.724 134.58 26.492 134.58 26.212C134.58 25.924 134.452 25.712 134.196 25.576C133.94 25.432 133.544 25.292 133.008 25.156C132.52 25.028 132.12 24.9 131.808 24.772C131.504 24.636 131.24 24.44 131.016 24.184C130.8 23.92 130.692 23.576 130.692 23.152C130.692 22.816 130.792 22.508 130.992 22.228C131.192 21.948 131.476 21.728 131.844 21.568C132.212 21.4 132.632 21.316 133.104 21.316C133.832 21.316 134.42 21.5 134.868 21.868C135.316 22.236 135.556 22.74 135.588 23.38H134.496C134.472 23.036 134.332 22.76 134.076 22.552C133.828 22.344 133.492 22.24 133.068 22.24C132.676 22.24 132.364 22.324 132.132 22.492C131.9 22.66 131.784 22.88 131.784 23.152C131.784 23.368 131.852 23.548 131.988 23.692C132.132 23.828 132.308 23.94 132.516 24.028C132.732 24.108 133.028 24.2 133.404 24.304C133.876 24.432 134.26 24.56 134.556 24.688C134.852 24.808 135.104 24.992 135.312 25.24C135.528 25.488 135.64 25.812 135.648 26.212C135.648 26.572 135.548 26.896 135.348 27.184C135.148 27.472 134.864 27.7 134.496 27.868C134.136 28.028 133.72 28.108 133.248 28.108ZM143.19 24.46C143.19 24.668 143.178 24.888 143.154 25.12H137.898C137.938 25.768 138.158 26.276 138.558 26.644C138.966 27.004 139.458 27.184 140.034 27.184C140.506 27.184 140.898 27.076 141.21 26.86C141.53 26.636 141.754 26.34 141.882 25.972H143.058C142.882 26.604 142.53 27.12 142.002 27.52C141.474 27.912 140.818 28.108 140.034 28.108C139.41 28.108 138.85 27.968 138.354 27.688C137.866 27.408 137.482 27.012 137.202 26.5C136.922 25.98 136.782 25.38 136.782 24.7C136.782 24.02 136.918 23.424 137.19 22.912C137.462 22.4 137.842 22.008 138.33 21.736C138.826 21.456 139.394 21.316 140.034 21.316C140.658 21.316 141.21 21.452 141.69 21.724C142.17 21.996 142.538 22.372 142.794 22.852C143.058 23.324 143.19 23.86 143.19 24.46ZM142.062 24.232C142.062 23.816 141.97 23.46 141.786 23.164C141.602 22.86 141.35 22.632 141.03 22.48C140.718 22.32 140.37 22.24 139.986 22.24C139.434 22.24 138.962 22.416 138.57 22.768C138.186 23.12 137.966 23.608 137.91 24.232H142.062ZM145.723 22.648C145.947 22.256 146.275 21.936 146.707 21.688C147.139 21.44 147.631 21.316 148.183 21.316C148.775 21.316 149.307 21.456 149.779 21.736C150.251 22.016 150.623 22.412 150.895 22.924C151.167 23.428 151.303 24.016 151.303 24.688C151.303 25.352 151.167 25.944 150.895 26.464C150.623 26.984 150.247 27.388 149.767 27.676C149.295 27.964 148.767 28.108 148.183 28.108C147.615 28.108 147.115 27.984 146.683 27.736C146.259 27.488 145.939 27.172 145.723 26.788V28H144.631V19.12H145.723V22.648ZM150.187 24.688C150.187 24.192 150.087 23.76 149.887 23.392C149.687 23.024 149.415 22.744 149.071 22.552C148.735 22.36 148.363 22.264 147.955 22.264C147.555 22.264 147.183 22.364 146.839 22.564C146.503 22.756 146.231 23.04 146.023 23.416C145.823 23.784 145.723 24.212 145.723 24.7C145.723 25.196 145.823 25.632 146.023 26.008C146.231 26.376 146.503 26.66 146.839 26.86C147.183 27.052 147.555 27.148 147.955 27.148C148.363 27.148 148.735 27.052 149.071 26.86C149.415 26.66 149.687 26.376 149.887 26.008C150.087 25.632 150.187 25.192 150.187 24.688ZM152.332 24.688C152.332 24.016 152.468 23.428 152.74 22.924C153.012 22.412 153.384 22.016 153.856 21.736C154.336 21.456 154.868 21.316 155.452 21.316C156.028 21.316 156.528 21.44 156.952 21.688C157.376 21.936 157.692 22.248 157.9 22.624V21.424H159.004V28H157.9V26.776C157.684 27.16 157.36 27.48 156.928 27.736C156.504 27.984 156.008 28.108 155.44 28.108C154.856 28.108 154.328 27.964 153.856 27.676C153.384 27.388 153.012 26.984 152.74 26.464C152.468 25.944 152.332 25.352 152.332 24.688ZM157.9 24.7C157.9 24.204 157.8 23.772 157.6 23.404C157.4 23.036 157.128 22.756 156.784 22.564C156.448 22.364 156.076 22.264 155.668 22.264C155.26 22.264 154.888 22.36 154.552 22.552C154.216 22.744 153.948 23.024 153.748 23.392C153.548 23.76 153.448 24.192 153.448 24.688C153.448 25.192 153.548 25.632 153.748 26.008C153.948 26.376 154.216 26.66 154.552 26.86C154.888 27.052 155.26 27.148 155.668 27.148C156.076 27.148 156.448 27.052 156.784 26.86C157.128 26.66 157.4 26.376 157.6 26.008C157.8 25.632 157.9 25.196 157.9 24.7ZM163.562 21.316C164.13 21.316 164.626 21.44 165.05 21.688C165.482 21.936 165.802 22.248 166.01 22.624V21.424H167.114V28.144C167.114 28.744 166.986 29.276 166.73 29.74C166.474 30.212 166.106 30.58 165.626 30.844C165.154 31.108 164.602 31.24 163.97 31.24C163.106 31.24 162.386 31.036 161.81 30.628C161.234 30.22 160.894 29.664 160.79 28.96H161.87C161.99 29.36 162.238 29.68 162.614 29.92C162.99 30.168 163.442 30.292 163.97 30.292C164.57 30.292 165.058 30.104 165.434 29.728C165.818 29.352 166.01 28.824 166.01 28.144V26.764C165.794 27.148 165.474 27.468 165.05 27.724C164.626 27.98 164.13 28.108 163.562 28.108C162.978 28.108 162.446 27.964 161.966 27.676C161.494 27.388 161.122 26.984 160.85 26.464C160.578 25.944 160.442 25.352 160.442 24.688C160.442 24.016 160.578 23.428 160.85 22.924C161.122 22.412 161.494 22.016 161.966 21.736C162.446 21.456 162.978 21.316 163.562 21.316ZM166.01 24.7C166.01 24.204 165.91 23.772 165.71 23.404C165.51 23.036 165.238 22.756 164.894 22.564C164.558 22.364 164.186 22.264 163.778 22.264C163.37 22.264 162.998 22.36 162.662 22.552C162.326 22.744 162.058 23.024 161.858 23.392C161.658 23.76 161.558 24.192 161.558 24.688C161.558 25.192 161.658 25.632 161.858 26.008C162.058 26.376 162.326 26.66 162.662 26.86C162.998 27.052 163.37 27.148 163.778 27.148C164.186 27.148 164.558 27.052 164.894 26.86C165.238 26.66 165.51 26.376 165.71 26.008C165.91 25.632 166.01 25.196 166.01 24.7ZM168.551 24.688C168.551 24.016 168.687 23.428 168.959 22.924C169.231 22.412 169.603 22.016 170.075 21.736C170.555 21.456 171.087 21.316 171.671 21.316C172.247 21.316 172.747 21.44 173.171 21.688C173.595 21.936 173.911 22.248 174.119 22.624V21.424H175.223V28H174.119V26.776C173.903 27.16 173.579 27.48 173.147 27.736C172.723 27.984 172.227 28.108 171.659 28.108C171.075 28.108 170.547 27.964 170.075 27.676C169.603 27.388 169.231 26.984 168.959 26.464C168.687 25.944 168.551 25.352 168.551 24.688ZM174.119 24.7C174.119 24.204 174.019 23.772 173.819 23.404C173.619 23.036 173.347 22.756 173.003 22.564C172.667 22.364 172.295 22.264 171.887 22.264C171.479 22.264 171.107 22.36 170.771 22.552C170.435 22.744 170.167 23.024 169.967 23.392C169.767 23.76 169.667 24.192 169.667 24.688C169.667 25.192 169.767 25.632 169.967 26.008C170.167 26.376 170.435 26.66 170.771 26.86C171.107 27.052 171.479 27.148 171.887 27.148C172.295 27.148 172.667 27.052 173.003 26.86C173.347 26.66 173.619 26.376 173.819 26.008C174.019 25.632 174.119 25.196 174.119 24.7ZM177.633 20.356C177.425 20.356 177.249 20.284 177.105 20.14C176.961 19.996 176.889 19.82 176.889 19.612C176.889 19.404 176.961 19.228 177.105 19.084C177.249 18.94 177.425 18.868 177.633 18.868C177.833 18.868 178.001 18.94 178.137 19.084C178.281 19.228 178.353 19.404 178.353 19.612C178.353 19.82 178.281 19.996 178.137 20.14C178.001 20.284 177.833 20.356 177.633 20.356ZM178.161 21.424V28H177.069V21.424H178.161ZM184.313 22.648C184.537 22.256 184.865 21.936 185.297 21.688C185.729 21.44 186.221 21.316 186.773 21.316C187.365 21.316 187.897 21.456 188.369 21.736C188.841 22.016 189.213 22.412 189.485 22.924C189.757 23.428 189.893 24.016 189.893 24.688C189.893 25.352 189.757 25.944 189.485 26.464C189.213 26.984 188.837 27.388 188.357 27.676C187.885 27.964 187.357 28.108 186.773 28.108C186.205 28.108 185.705 27.984 185.273 27.736C184.849 27.488 184.529 27.172 184.313 26.788V28H183.221V19.12H184.313V22.648ZM188.777 24.688C188.777 24.192 188.677 23.76 188.477 23.392C188.277 23.024 188.005 22.744 187.661 22.552C187.325 22.36 186.953 22.264 186.545 22.264C186.145 22.264 185.773 22.364 185.429 22.564C185.093 22.756 184.821 23.04 184.613 23.416C184.413 23.784 184.313 24.212 184.313 24.7C184.313 25.196 184.413 25.632 184.613 26.008C184.821 26.376 185.093 26.66 185.429 26.86C185.773 27.052 186.145 27.148 186.545 27.148C186.953 27.148 187.325 27.052 187.661 26.86C188.005 26.66 188.277 26.376 188.477 26.008C188.677 25.632 188.777 25.192 188.777 24.688ZM197.33 24.46C197.33 24.668 197.318 24.888 197.294 25.12H192.038C192.078 25.768 192.298 26.276 192.698 26.644C193.106 27.004 193.598 27.184 194.174 27.184C194.646 27.184 195.038 27.076 195.35 26.86C195.67 26.636 195.894 26.34 196.022 25.972H197.198C197.022 26.604 196.67 27.12 196.142 27.52C195.614 27.912 194.958 28.108 194.174 28.108C193.55 28.108 192.99 27.968 192.494 27.688C192.006 27.408 191.622 27.012 191.342 26.5C191.062 25.98 190.922 25.38 190.922 24.7C190.922 24.02 191.058 23.424 191.33 22.912C191.602 22.4 191.982 22.008 192.47 21.736C192.966 21.456 193.534 21.316 194.174 21.316C194.798 21.316 195.35 21.452 195.83 21.724C196.31 21.996 196.678 22.372 196.934 22.852C197.198 23.324 197.33 23.86 197.33 24.46ZM196.202 24.232C196.202 23.816 196.11 23.46 195.926 23.164C195.742 22.86 195.49 22.632 195.17 22.48C194.858 22.32 194.51 22.24 194.126 22.24C193.574 22.24 193.102 22.416 192.71 22.768C192.326 23.12 192.106 23.608 192.05 24.232H196.202ZM199.864 22.492C200.056 22.116 200.328 21.824 200.68 21.616C201.04 21.408 201.476 21.304 201.988 21.304V22.432H201.7C200.476 22.432 199.864 23.096 199.864 24.424V28H198.772V21.424H199.864V22.492ZM203.812 20.356C203.604 20.356 203.428 20.284 203.284 20.14C203.14 19.996 203.068 19.82 203.068 19.612C203.068 19.404 203.14 19.228 203.284 19.084C203.428 18.94 203.604 18.868 203.812 18.868C204.012 18.868 204.18 18.94 204.316 19.084C204.46 19.228 204.532 19.404 204.532 19.612C204.532 19.82 204.46 19.996 204.316 20.14C204.18 20.284 204.012 20.356 203.812 20.356ZM204.34 21.424V28H203.248V21.424H204.34ZM209.873 28L207.293 25.096V28H206.201V19.12H207.293V24.34L209.825 21.424H211.349L208.253 24.7L211.361 28H209.873ZM218.209 21.424V28H217.117V27.028C216.909 27.364 216.617 27.628 216.241 27.82C215.873 28.004 215.465 28.096 215.017 28.096C214.505 28.096 214.045 27.992 213.637 27.784C213.229 27.568 212.905 27.248 212.665 26.824C212.433 26.4 212.317 25.884 212.317 25.276V21.424H213.397V25.132C213.397 25.78 213.561 26.28 213.889 26.632C214.217 26.976 214.665 27.148 215.233 27.148C215.817 27.148 216.277 26.968 216.613 26.608C216.949 26.248 217.117 25.724 217.117 25.036V21.424H218.209ZM221.385 22.324V26.2C221.385 26.52 221.453 26.748 221.589 26.884C221.725 27.012 221.961 27.076 222.297 27.076H223.101V28H222.117C221.509 28 221.053 27.86 220.749 27.58C220.445 27.3 220.293 26.84 220.293 26.2V22.324H219.441V21.424H220.293V19.768H221.385V21.424H223.101V22.324H221.385ZM224.772 28.072C224.564 28.072 224.388 28 224.244 27.856C224.1 27.712 224.028 27.536 224.028 27.328C224.028 27.12 224.1 26.944 224.244 26.8C224.388 26.656 224.564 26.584 224.772 26.584C224.972 26.584 225.14 26.656 225.276 26.8C225.42 26.944 225.492 27.12 225.492 27.328C225.492 27.536 225.42 27.712 225.276 27.856C225.14 28 224.972 28.072 224.772 28.072ZM224.772 22.936C224.564 22.936 224.388 22.864 224.244 22.72C224.1 22.576 224.028 22.4 224.028 22.192C224.028 21.984 224.1 21.808 224.244 21.664C224.388 21.52 224.564 21.448 224.772 21.448C224.972 21.448 225.14 21.52 225.276 21.664C225.42 21.808 225.492 21.984 225.492 22.192C225.492 22.4 225.42 22.576 225.276 22.72C225.14 22.864 224.972 22.936 224.772 22.936Z" fill="black"/>
</svg>
