<svg width="306" height="50" viewBox="0 0 306 50" fill="none" xmlns="http://www.w3.org/2000/svg">
<path d="M2.016 1.636V10H0.924V1.636H2.016ZM7.08113 3.304C7.88113 3.304 8.52913 3.548 9.02513 4.036C9.52113 4.516 9.76913 5.212 9.76913 6.124V10H8.68913V6.28C8.68913 5.624 8.52513 5.124 8.19713 4.78C7.86913 4.428 7.42113 4.252 6.85313 4.252C6.27713 4.252 5.81713 4.432 5.47313 4.792C5.13713 5.152 4.96913 5.676 4.96913 6.364V10H3.87713V3.424H4.96913V4.36C5.18513 4.024 5.47713 3.764 5.84513 3.58C6.22113 3.396 6.63313 3.304 7.08113 3.304ZM12.8849 4.324V8.2C12.8849 8.52 12.9529 8.748 13.0889 8.884C13.2249 9.012 13.4609 9.076 13.7969 9.076H14.6009V10H13.6169C13.0089 10 12.5529 9.86 12.2489 9.58C11.9449 9.3 11.7929 8.84 11.7929 8.2V4.324H10.9409V3.424H11.7929V1.768H12.8849V3.424H14.6009V4.324H12.8849ZM21.924 6.46C21.924 6.668 21.912 6.888 21.888 7.12H16.632C16.672 7.768 16.892 8.276 17.292 8.644C17.7 9.004 18.192 9.184 18.768 9.184C19.24 9.184 19.632 9.076 19.944 8.86C20.264 8.636 20.488 8.34 20.616 7.972H21.792C21.616 8.604 21.264 9.12 20.736 9.52C20.208 9.912 19.552 10.108 18.768 10.108C18.144 10.108 17.584 9.968 17.088 9.688C16.6 9.408 16.216 9.012 15.936 8.5C15.656 7.98 15.516 7.38 15.516 6.7C15.516 6.02 15.652 5.424 15.924 4.912C16.196 4.4 16.576 4.008 17.064 3.736C17.56 3.456 18.128 3.316 18.768 3.316C19.392 3.316 19.944 3.452 20.424 3.724C20.904 3.996 21.272 4.372 21.528 4.852C21.792 5.324 21.924 5.86 21.924 6.46ZM20.796 6.232C20.796 5.816 20.704 5.46 20.52 5.164C20.336 4.86 20.084 4.632 19.764 4.48C19.452 4.32 19.104 4.24 18.72 4.24C18.168 4.24 17.696 4.416 17.304 4.768C16.92 5.12 16.7 5.608 16.644 6.232H20.796ZM26.5694 3.304C27.3694 3.304 28.0174 3.548 28.5134 4.036C29.0094 4.516 29.2574 5.212 29.2574 6.124V10H28.1774V6.28C28.1774 5.624 28.0134 5.124 27.6854 4.78C27.3574 4.428 26.9094 4.252 26.3414 4.252C25.7654 4.252 25.3054 4.432 24.9614 4.792C24.6254 5.152 24.4574 5.676 24.4574 6.364V10H23.3654V3.424H24.4574V4.36C24.6734 4.024 24.9654 3.764 25.3334 3.58C25.7094 3.396 26.1214 3.304 26.5694 3.304ZM33.3692 10.108C32.8652 10.108 32.4132 10.024 32.0132 9.856C31.6132 9.68 31.2972 9.44 31.0652 9.136C30.8332 8.824 30.7052 8.468 30.6812 8.068H31.8092C31.8412 8.396 31.9932 8.664 32.2652 8.872C32.5452 9.08 32.9092 9.184 33.3572 9.184C33.7732 9.184 34.1012 9.092 34.3412 8.908C34.5812 8.724 34.7012 8.492 34.7012 8.212C34.7012 7.924 34.5732 7.712 34.3172 7.576C34.0612 7.432 33.6652 7.292 33.1292 7.156C32.6412 7.028 32.2412 6.9 31.9292 6.772C31.6252 6.636 31.3612 6.44 31.1372 6.184C30.9212 5.92 30.8132 5.576 30.8132 5.152C30.8132 4.816 30.9132 4.508 31.1132 4.228C31.3132 3.948 31.5972 3.728 31.9652 3.568C32.3332 3.4 32.7532 3.316 33.2252 3.316C33.9532 3.316 34.5412 3.5 34.9892 3.868C35.4372 4.236 35.6772 4.74 35.7092 5.38H34.6172C34.5932 5.036 34.4532 4.76 34.1972 4.552C33.9492 4.344 33.6132 4.24 33.1892 4.24C32.7972 4.24 32.4852 4.324 32.2532 4.492C32.0212 4.66 31.9052 4.88 31.9052 5.152C31.9052 5.368 31.9732 5.548 32.1092 5.692C32.2532 5.828 32.4292 5.94 32.6372 6.028C32.8532 6.108 33.1492 6.2 33.5252 6.304C33.9972 6.432 34.3812 6.56 34.6772 6.688C34.9732 6.808 35.2252 6.992 35.4332 7.24C35.6492 7.488 35.7612 7.812 35.7692 8.212C35.7692 8.572 35.6692 8.896 35.4692 9.184C35.2692 9.472 34.9852 9.7 34.6172 9.868C34.2572 10.028 33.8412 10.108 33.3692 10.108ZM37.8747 2.356C37.6667 2.356 37.4907 2.284 37.3467 2.14C37.2027 1.996 37.1307 1.82 37.1307 1.612C37.1307 1.404 37.2027 1.228 37.3467 1.084C37.4907 0.94 37.6667 0.868 37.8747 0.868C38.0747 0.868 38.2427 0.94 38.3787 1.084C38.5227 1.228 38.5947 1.404 38.5947 1.612C38.5947 1.82 38.5227 1.996 38.3787 2.14C38.2427 2.284 38.0747 2.356 37.8747 2.356ZM38.4027 3.424V10H37.3107V3.424H38.4027ZM41.5958 4.324V8.2C41.5958 8.52 41.6638 8.748 41.7998 8.884C41.9358 9.012 42.1718 9.076 42.5078 9.076H43.3118V10H42.3278C41.7198 10 41.2638 9.86 40.9598 9.58C40.6558 9.3 40.5038 8.84 40.5038 8.2V4.324H39.6518V3.424H40.5038V1.768H41.5958V3.424H43.3118V4.324H41.5958ZM44.2269 6.688C44.2269 6.016 44.3629 5.428 44.6349 4.924C44.9069 4.412 45.2789 4.016 45.7509 3.736C46.2309 3.456 46.7629 3.316 47.3469 3.316C47.9229 3.316 48.4229 3.44 48.8469 3.688C49.2709 3.936 49.5869 4.248 49.7949 4.624V3.424H50.8989V10H49.7949V8.776C49.5789 9.16 49.2549 9.48 48.8229 9.736C48.3989 9.984 47.9029 10.108 47.3349 10.108C46.7509 10.108 46.2229 9.964 45.7509 9.676C45.2789 9.388 44.9069 8.984 44.6349 8.464C44.3629 7.944 44.2269 7.352 44.2269 6.688ZM49.7949 6.7C49.7949 6.204 49.6949 5.772 49.4949 5.404C49.2949 5.036 49.0229 4.756 48.6789 4.564C48.3429 4.364 47.9709 4.264 47.5629 4.264C47.1549 4.264 46.7829 4.36 46.4469 4.552C46.1109 4.744 45.8429 5.024 45.6429 5.392C45.4429 5.76 45.3429 6.192 45.3429 6.688C45.3429 7.192 45.4429 7.632 45.6429 8.008C45.8429 8.376 46.1109 8.66 46.4469 8.86C46.7829 9.052 47.1549 9.148 47.5629 9.148C47.9709 9.148 48.3429 9.052 48.6789 8.86C49.0229 8.66 49.2949 8.376 49.4949 8.008C49.6949 7.632 49.7949 7.196 49.7949 6.7ZM55.0723 10.108C54.5683 10.108 54.1163 10.024 53.7163 9.856C53.3163 9.68 53.0003 9.44 52.7683 9.136C52.5363 8.824 52.4083 8.468 52.3843 8.068H53.5123C53.5443 8.396 53.6963 8.664 53.9683 8.872C54.2483 9.08 54.6123 9.184 55.0603 9.184C55.4763 9.184 55.8043 9.092 56.0443 8.908C56.2843 8.724 56.4043 8.492 56.4043 8.212C56.4043 7.924 56.2763 7.712 56.0203 7.576C55.7643 7.432 55.3683 7.292 54.8323 7.156C54.3443 7.028 53.9443 6.9 53.6323 6.772C53.3283 6.636 53.0643 6.44 52.8403 6.184C52.6243 5.92 52.5163 5.576 52.5163 5.152C52.5163 4.816 52.6163 4.508 52.8163 4.228C53.0163 3.948 53.3003 3.728 53.6683 3.568C54.0363 3.4 54.4563 3.316 54.9283 3.316C55.6563 3.316 56.2443 3.5 56.6923 3.868C57.1403 4.236 57.3803 4.74 57.4123 5.38H56.3203C56.2963 5.036 56.1563 4.76 55.9003 4.552C55.6523 4.344 55.3163 4.24 54.8923 4.24C54.5003 4.24 54.1883 4.324 53.9563 4.492C53.7243 4.66 53.6083 4.88 53.6083 5.152C53.6083 5.368 53.6763 5.548 53.8123 5.692C53.9563 5.828 54.1323 5.94 54.3403 6.028C54.5563 6.108 54.8523 6.2 55.2283 6.304C55.7003 6.432 56.0843 6.56 56.3803 6.688C56.6763 6.808 56.9283 6.992 57.1363 7.24C57.3523 7.488 57.4643 7.812 57.4723 8.212C57.4723 8.572 57.3723 8.896 57.1723 9.184C56.9723 9.472 56.6883 9.7 56.3203 9.868C55.9603 10.028 55.5443 10.108 55.0723 10.108ZM69.3566 4.492C69.5486 4.116 69.8206 3.824 70.1726 3.616C70.5326 3.408 70.9686 3.304 71.4806 3.304V4.432H71.1926C69.9686 4.432 69.3566 5.096 69.3566 6.424V10H68.2646V3.424H69.3566V4.492ZM72.3332 6.688C72.3332 6.016 72.4692 5.428 72.7412 4.924C73.0132 4.412 73.3852 4.016 73.8572 3.736C74.3372 3.456 74.8692 3.316 75.4532 3.316C76.0292 3.316 76.5292 3.44 76.9532 3.688C77.3772 3.936 77.6932 4.248 77.9012 4.624V3.424H79.0052V10H77.9012V8.776C77.6852 9.16 77.3612 9.48 76.9292 9.736C76.5052 9.984 76.0092 10.108 75.4412 10.108C74.8572 10.108 74.3292 9.964 73.8572 9.676C73.3852 9.388 73.0132 8.984 72.7412 8.464C72.4692 7.944 72.3332 7.352 72.3332 6.688ZM77.9012 6.7C77.9012 6.204 77.8012 5.772 77.6012 5.404C77.4012 5.036 77.1292 4.756 76.7852 4.564C76.4492 4.364 76.0772 4.264 75.6692 4.264C75.2612 4.264 74.8892 4.36 74.5532 4.552C74.2172 4.744 73.9492 5.024 73.7492 5.392C73.5492 5.76 73.4492 6.192 73.4492 6.688C73.4492 7.192 73.5492 7.632 73.7492 8.008C73.9492 8.376 74.2172 8.66 74.5532 8.86C74.8892 9.052 75.2612 9.148 75.6692 9.148C76.0772 9.148 76.4492 9.052 76.7852 8.86C77.1292 8.66 77.4012 8.376 77.6012 8.008C77.8012 7.632 77.9012 7.196 77.9012 6.7ZM80.4426 6.688C80.4426 6.016 80.5786 5.428 80.8506 4.924C81.1226 4.412 81.4946 4.016 81.9666 3.736C82.4466 3.456 82.9826 3.316 83.5746 3.316C84.0866 3.316 84.5626 3.436 85.0026 3.676C85.4426 3.908 85.7786 4.216 86.0106 4.6V1.12H87.1146V10H86.0106V8.764C85.7946 9.156 85.4746 9.48 85.0506 9.736C84.6266 9.984 84.1306 10.108 83.5626 10.108C82.9786 10.108 82.4466 9.964 81.9666 9.676C81.4946 9.388 81.1226 8.984 80.8506 8.464C80.5786 7.944 80.4426 7.352 80.4426 6.688ZM86.0106 6.7C86.0106 6.204 85.9106 5.772 85.7106 5.404C85.5106 5.036 85.2386 4.756 84.8946 4.564C84.5586 4.364 84.1866 4.264 83.7786 4.264C83.3706 4.264 82.9986 4.36 82.6626 4.552C82.3266 4.744 82.0586 5.024 81.8586 5.392C81.6586 5.76 81.5586 6.192 81.5586 6.688C81.5586 7.192 81.6586 7.632 81.8586 8.008C82.0586 8.376 82.3266 8.66 82.6626 8.86C82.9986 9.052 83.3706 9.148 83.7786 9.148C84.1866 9.148 84.5586 9.052 84.8946 8.86C85.2386 8.66 85.5106 8.376 85.7106 8.008C85.9106 7.632 86.0106 7.196 86.0106 6.7ZM89.5239 2.356C89.3159 2.356 89.1399 2.284 88.9959 2.14C88.8519 1.996 88.7799 1.82 88.7799 1.612C88.7799 1.404 88.8519 1.228 88.9959 1.084C89.1399 0.94 89.3159 0.868 89.5239 0.868C89.7239 0.868 89.8919 0.94 90.0279 1.084C90.1719 1.228 90.2439 1.404 90.2439 1.612C90.2439 1.82 90.1719 1.996 90.0279 2.14C89.8919 2.284 89.7239 2.356 89.5239 2.356ZM90.0519 3.424V10H88.9599V3.424H90.0519ZM91.5051 6.688C91.5051 6.016 91.6411 5.428 91.9131 4.924C92.1851 4.412 92.5571 4.016 93.0291 3.736C93.5091 3.456 94.0411 3.316 94.6251 3.316C95.2011 3.316 95.7011 3.44 96.1251 3.688C96.5491 3.936 96.8651 4.248 97.0731 4.624V3.424H98.1771V10H97.0731V8.776C96.8571 9.16 96.5331 9.48 96.1011 9.736C95.6771 9.984 95.1811 10.108 94.6131 10.108C94.0291 10.108 93.5011 9.964 93.0291 9.676C92.5571 9.388 92.1851 8.984 91.9131 8.464C91.6411 7.944 91.5051 7.352 91.5051 6.688ZM97.0731 6.7C97.0731 6.204 96.9731 5.772 96.7731 5.404C96.5731 5.036 96.3011 4.756 95.9571 4.564C95.6211 4.364 95.2491 4.264 94.8411 4.264C94.4331 4.264 94.0611 4.36 93.7251 4.552C93.3891 4.744 93.1211 5.024 92.9211 5.392C92.7211 5.76 92.6211 6.192 92.6211 6.688C92.6211 7.192 92.7211 7.632 92.9211 8.008C93.1211 8.376 93.3891 8.66 93.7251 8.86C94.0611 9.052 94.4331 9.148 94.8411 9.148C95.2491 9.148 95.6211 9.052 95.9571 8.86C96.3011 8.66 96.5731 8.376 96.7731 8.008C96.9731 7.632 97.0731 7.196 97.0731 6.7ZM102.35 10.108C101.846 10.108 101.394 10.024 100.994 9.856C100.594 9.68 100.278 9.44 100.046 9.136C99.8144 8.824 99.6864 8.468 99.6624 8.068H100.79C100.822 8.396 100.974 8.664 101.246 8.872C101.526 9.08 101.89 9.184 102.338 9.184C102.754 9.184 103.082 9.092 103.322 8.908C103.562 8.724 103.682 8.492 103.682 8.212C103.682 7.924 103.554 7.712 103.298 7.576C103.042 7.432 102.646 7.292 102.11 7.156C101.622 7.028 101.222 6.9 100.91 6.772C100.606 6.636 100.342 6.44 100.118 6.184C99.9024 5.92 99.7944 5.576 99.7944 5.152C99.7944 4.816 99.8944 4.508 100.094 4.228C100.294 3.948 100.578 3.728 100.946 3.568C101.314 3.4 101.734 3.316 102.206 3.316C102.934 3.316 103.522 3.5 103.97 3.868C104.418 4.236 104.658 4.74 104.69 5.38H103.598C103.574 5.036 103.434 4.76 103.178 4.552C102.93 4.344 102.594 4.24 102.17 4.24C101.778 4.24 101.466 4.324 101.234 4.492C101.002 4.66 100.886 4.88 100.886 5.152C100.886 5.368 100.954 5.548 101.09 5.692C101.234 5.828 101.41 5.94 101.618 6.028C101.834 6.108 102.13 6.2 102.506 6.304C102.978 6.432 103.362 6.56 103.658 6.688C103.954 6.808 104.206 6.992 104.414 7.24C104.63 7.488 104.742 7.812 104.75 8.212C104.75 8.572 104.65 8.896 104.45 9.184C104.25 9.472 103.966 9.7 103.598 9.868C103.238 10.028 102.822 10.108 102.35 10.108ZM106.856 2.356C106.648 2.356 106.472 2.284 106.328 2.14C106.184 1.996 106.112 1.82 106.112 1.612C106.112 1.404 106.184 1.228 106.328 1.084C106.472 0.94 106.648 0.868 106.856 0.868C107.056 0.868 107.224 0.94 107.36 1.084C107.504 1.228 107.576 1.404 107.576 1.612C107.576 1.82 107.504 1.996 107.36 2.14C107.224 2.284 107.056 2.356 106.856 2.356ZM107.384 3.424V10H106.292V3.424H107.384ZM119.828 4.324V8.2C119.828 8.52 119.896 8.748 120.032 8.884C120.168 9.012 120.404 9.076 120.74 9.076H121.544V10H120.56C119.952 10 119.496 9.86 119.192 9.58C118.888 9.3 118.736 8.84 118.736 8.2V4.324H117.884V3.424H118.736V1.768H119.828V3.424H121.544V4.324H119.828ZM125.735 10.108C125.119 10.108 124.559 9.968 124.055 9.688C123.559 9.408 123.167 9.012 122.879 8.5C122.599 7.98 122.459 7.38 122.459 6.7C122.459 6.028 122.603 5.436 122.891 4.924C123.187 4.404 123.587 4.008 124.091 3.736C124.595 3.456 125.159 3.316 125.783 3.316C126.407 3.316 126.971 3.456 127.475 3.736C127.979 4.008 128.375 4.4 128.663 4.912C128.959 5.424 129.107 6.02 129.107 6.7C129.107 7.38 128.955 7.98 128.651 8.5C128.355 9.012 127.951 9.408 127.439 9.688C126.927 9.968 126.359 10.108 125.735 10.108ZM125.735 9.148C126.127 9.148 126.495 9.056 126.839 8.872C127.183 8.688 127.459 8.412 127.667 8.044C127.883 7.676 127.991 7.228 127.991 6.7C127.991 6.172 127.887 5.724 127.679 5.356C127.471 4.988 127.199 4.716 126.863 4.54C126.527 4.356 126.163 4.264 125.771 4.264C125.371 4.264 125.003 4.356 124.667 4.54C124.339 4.716 124.075 4.988 123.875 5.356C123.675 5.724 123.575 6.172 123.575 6.7C123.575 7.236 123.671 7.688 123.863 8.056C124.063 8.424 124.327 8.7 124.655 8.884C124.983 9.06 125.343 9.148 125.735 9.148ZM131.875 4.324V8.2C131.875 8.52 131.943 8.748 132.079 8.884C132.215 9.012 132.451 9.076 132.787 9.076H133.591V10H132.607C131.999 10 131.543 9.86 131.239 9.58C130.935 9.3 130.783 8.84 130.783 8.2V4.324H129.931V3.424H130.783V1.768H131.875V3.424H133.591V4.324H131.875ZM134.506 6.688C134.506 6.016 134.642 5.428 134.914 4.924C135.186 4.412 135.558 4.016 136.03 3.736C136.51 3.456 137.042 3.316 137.626 3.316C138.202 3.316 138.702 3.44 139.126 3.688C139.55 3.936 139.866 4.248 140.074 4.624V3.424H141.178V10H140.074V8.776C139.858 9.16 139.534 9.48 139.102 9.736C138.678 9.984 138.182 10.108 137.614 10.108C137.03 10.108 136.502 9.964 136.03 9.676C135.558 9.388 135.186 8.984 134.914 8.464C134.642 7.944 134.506 7.352 134.506 6.688ZM140.074 6.7C140.074 6.204 139.974 5.772 139.774 5.404C139.574 5.036 139.302 4.756 138.958 4.564C138.622 4.364 138.25 4.264 137.842 4.264C137.434 4.264 137.062 4.36 136.726 4.552C136.39 4.744 136.122 5.024 135.922 5.392C135.722 5.76 135.622 6.192 135.622 6.688C135.622 7.192 135.722 7.632 135.922 8.008C136.122 8.376 136.39 8.66 136.726 8.86C137.062 9.052 137.434 9.148 137.842 9.148C138.25 9.148 138.622 9.052 138.958 8.86C139.302 8.66 139.574 8.376 139.774 8.008C139.974 7.632 140.074 7.196 140.074 6.7ZM144.115 1.12V10H143.023V1.12H144.115ZM160.891 3.424L156.931 13.096H155.803L157.099 9.928L154.447 3.424H155.659L157.723 8.752L159.763 3.424H160.891ZM161.581 6.688C161.581 6.016 161.717 5.428 161.989 4.924C162.261 4.412 162.633 4.016 163.105 3.736C163.585 3.456 164.117 3.316 164.701 3.316C165.277 3.316 165.777 3.44 166.201 3.688C166.625 3.936 166.941 4.248 167.149 4.624V3.424H168.253V10H167.149V8.776C166.933 9.16 166.609 9.48 166.177 9.736C165.753 9.984 165.257 10.108 164.689 10.108C164.105 10.108 163.577 9.964 163.105 9.676C162.633 9.388 162.261 8.984 161.989 8.464C161.717 7.944 161.581 7.352 161.581 6.688ZM167.149 6.7C167.149 6.204 167.049 5.772 166.849 5.404C166.649 5.036 166.377 4.756 166.033 4.564C165.697 4.364 165.325 4.264 164.917 4.264C164.509 4.264 164.137 4.36 163.801 4.552C163.465 4.744 163.197 5.024 162.997 5.392C162.797 5.76 162.697 6.192 162.697 6.688C162.697 7.192 162.797 7.632 162.997 8.008C163.197 8.376 163.465 8.66 163.801 8.86C164.137 9.052 164.509 9.148 164.917 9.148C165.325 9.148 165.697 9.052 166.033 8.86C166.377 8.66 166.649 8.376 166.849 8.008C167.049 7.632 167.149 7.196 167.149 6.7ZM173.302 3.304C174.102 3.304 174.75 3.548 175.246 4.036C175.742 4.516 175.99 5.212 175.99 6.124V10H174.91V6.28C174.91 5.624 174.746 5.124 174.418 4.78C174.09 4.428 173.642 4.252 173.074 4.252C172.498 4.252 172.038 4.432 171.694 4.792C171.358 5.152 171.19 5.676 171.19 6.364V10H170.098V3.424H171.19V4.36C171.406 4.024 171.698 3.764 172.066 3.58C172.442 3.396 172.854 3.304 173.302 3.304ZM180.486 3.316C181.054 3.316 181.55 3.44 181.974 3.688C182.406 3.936 182.726 4.248 182.934 4.624V3.424H184.038V10.144C184.038 10.744 183.91 11.276 183.654 11.74C183.398 12.212 183.03 12.58 182.55 12.844C182.078 13.108 181.526 13.24 180.894 13.24C180.03 13.24 179.31 13.036 178.734 12.628C178.158 12.22 177.818 11.664 177.714 10.96H178.794C178.914 11.36 179.162 11.68 179.538 11.92C179.914 12.168 180.366 12.292 180.894 12.292C181.494 12.292 181.982 12.104 182.358 11.728C182.742 11.352 182.934 10.824 182.934 10.144V8.764C182.718 9.148 182.398 9.468 181.974 9.724C181.55 9.98 181.054 10.108 180.486 10.108C179.902 10.108 179.37 9.964 178.89 9.676C178.418 9.388 178.046 8.984 177.774 8.464C177.502 7.944 177.366 7.352 177.366 6.688C177.366 6.016 177.502 5.428 177.774 4.924C178.046 4.412 178.418 4.016 178.89 3.736C179.37 3.456 179.902 3.316 180.486 3.316ZM182.934 6.7C182.934 6.204 182.834 5.772 182.634 5.404C182.434 5.036 182.162 4.756 181.818 4.564C181.482 4.364 181.11 4.264 180.702 4.264C180.294 4.264 179.922 4.36 179.586 4.552C179.25 4.744 178.982 5.024 178.782 5.392C178.582 5.76 178.482 6.192 178.482 6.688C178.482 7.192 178.582 7.632 178.782 8.008C178.982 8.376 179.25 8.66 179.586 8.86C179.922 9.052 180.294 9.148 180.702 9.148C181.11 9.148 181.482 9.052 181.818 8.86C182.162 8.66 182.434 8.376 182.634 8.008C182.834 7.632 182.934 7.196 182.934 6.7ZM194.726 6.688C194.726 6.016 194.862 5.428 195.134 4.924C195.406 4.412 195.778 4.016 196.25 3.736C196.73 3.456 197.266 3.316 197.858 3.316C198.37 3.316 198.846 3.436 199.286 3.676C199.726 3.908 200.062 4.216 200.294 4.6V1.12H201.398V10H200.294V8.764C200.078 9.156 199.758 9.48 199.334 9.736C198.91 9.984 198.414 10.108 197.846 10.108C197.262 10.108 196.73 9.964 196.25 9.676C195.778 9.388 195.406 8.984 195.134 8.464C194.862 7.944 194.726 7.352 194.726 6.688ZM200.294 6.7C200.294 6.204 200.194 5.772 199.994 5.404C199.794 5.036 199.522 4.756 199.178 4.564C198.842 4.364 198.47 4.264 198.062 4.264C197.654 4.264 197.282 4.36 196.946 4.552C196.61 4.744 196.342 5.024 196.142 5.392C195.942 5.76 195.842 6.192 195.842 6.688C195.842 7.192 195.942 7.632 196.142 8.008C196.342 8.376 196.61 8.66 196.946 8.86C197.282 9.052 197.654 9.148 198.062 9.148C198.47 9.148 198.842 9.052 199.178 8.86C199.522 8.66 199.794 8.376 199.994 8.008C200.194 7.632 200.294 7.196 200.294 6.7ZM203.808 2.356C203.6 2.356 203.424 2.284 203.28 2.14C203.136 1.996 203.064 1.82 203.064 1.612C203.064 1.404 203.136 1.228 203.28 1.084C203.424 0.94 203.6 0.868 203.808 0.868C204.008 0.868 204.176 0.94 204.312 1.084C204.456 1.228 204.528 1.404 204.528 1.612C204.528 1.82 204.456 1.996 204.312 2.14C204.176 2.284 204.008 2.356 203.808 2.356ZM204.336 3.424V10H203.244V3.424H204.336ZM207.289 4.636C207.505 4.26 207.825 3.948 208.249 3.7C208.681 3.444 209.181 3.316 209.749 3.316C210.333 3.316 210.861 3.456 211.333 3.736C211.813 4.016 212.189 4.412 212.461 4.924C212.733 5.428 212.869 6.016 212.869 6.688C212.869 7.352 212.733 7.944 212.461 8.464C212.189 8.984 211.813 9.388 211.333 9.676C210.861 9.964 210.333 10.108 209.749 10.108C209.189 10.108 208.693 9.984 208.261 9.736C207.837 9.48 207.513 9.164 207.289 8.788V13.12H206.197V3.424H207.289V4.636ZM211.753 6.688C211.753 6.192 211.653 5.76 211.453 5.392C211.253 5.024 210.981 4.744 210.637 4.552C210.301 4.36 209.929 4.264 209.521 4.264C209.121 4.264 208.749 4.364 208.405 4.564C208.069 4.756 207.797 5.04 207.589 5.416C207.389 5.784 207.289 6.212 207.289 6.7C207.289 7.196 207.389 7.632 207.589 8.008C207.797 8.376 208.069 8.66 208.405 8.86C208.749 9.052 209.121 9.148 209.521 9.148C209.929 9.148 210.301 9.052 210.637 8.86C210.981 8.66 211.253 8.376 211.453 8.008C211.653 7.632 211.753 7.192 211.753 6.688ZM213.898 6.688C213.898 6.016 214.034 5.428 214.306 4.924C214.578 4.412 214.95 4.016 215.422 3.736C215.902 3.456 216.434 3.316 217.018 3.316C217.594 3.316 218.094 3.44 218.518 3.688C218.942 3.936 219.258 4.248 219.466 4.624V3.424H220.57V10H219.466V8.776C219.25 9.16 218.926 9.48 218.494 9.736C218.07 9.984 217.574 10.108 217.006 10.108C216.422 10.108 215.894 9.964 215.422 9.676C214.95 9.388 214.578 8.984 214.306 8.464C214.034 7.944 213.898 7.352 213.898 6.688ZM219.466 6.7C219.466 6.204 219.366 5.772 219.166 5.404C218.966 5.036 218.694 4.756 218.35 4.564C218.014 4.364 217.642 4.264 217.234 4.264C216.826 4.264 216.454 4.36 216.118 4.552C215.782 4.744 215.514 5.024 215.314 5.392C215.114 5.76 215.014 6.192 215.014 6.688C215.014 7.192 215.114 7.632 215.314 8.008C215.514 8.376 215.782 8.66 216.118 8.86C216.454 9.052 216.826 9.148 217.234 9.148C217.642 9.148 218.014 9.052 218.35 8.86C218.694 8.66 218.966 8.376 219.166 8.008C219.366 7.632 219.466 7.196 219.466 6.7ZM225.619 3.304C226.419 3.304 227.067 3.548 227.563 4.036C228.059 4.516 228.307 5.212 228.307 6.124V10H227.227V6.28C227.227 5.624 227.063 5.124 226.735 4.78C226.407 4.428 225.959 4.252 225.391 4.252C224.815 4.252 224.355 4.432 224.011 4.792C223.675 5.152 223.507 5.676 223.507 6.364V10H222.415V3.424H223.507V4.36C223.723 4.024 224.015 3.764 224.383 3.58C224.759 3.396 225.171 3.304 225.619 3.304ZM229.683 6.7C229.683 6.02 229.819 5.428 230.091 4.924C230.363 4.412 230.739 4.016 231.219 3.736C231.707 3.456 232.263 3.316 232.887 3.316C233.695 3.316 234.359 3.512 234.879 3.904C235.407 4.296 235.755 4.84 235.923 5.536H234.747C234.635 5.136 234.415 4.82 234.087 4.588C233.767 4.356 233.367 4.24 232.887 4.24C232.263 4.24 231.759 4.456 231.375 4.888C230.991 5.312 230.799 5.916 230.799 6.7C230.799 7.492 230.991 8.104 231.375 8.536C231.759 8.968 232.263 9.184 232.887 9.184C233.367 9.184 233.767 9.072 234.087 8.848C234.407 8.624 234.627 8.304 234.747 7.888H235.923C235.747 8.56 235.395 9.1 234.867 9.508C234.339 9.908 233.679 10.108 232.887 10.108C232.263 10.108 231.707 9.968 231.219 9.688C230.739 9.408 230.363 9.012 230.091 8.5C229.819 7.988 229.683 7.388 229.683 6.7ZM236.972 6.688C236.972 6.016 237.108 5.428 237.38 4.924C237.652 4.412 238.024 4.016 238.496 3.736C238.976 3.456 239.508 3.316 240.092 3.316C240.668 3.316 241.168 3.44 241.592 3.688C242.016 3.936 242.332 4.248 242.54 4.624V3.424H243.644V10H242.54V8.776C242.324 9.16 242 9.48 241.568 9.736C241.144 9.984 240.648 10.108 240.08 10.108C239.496 10.108 238.968 9.964 238.496 9.676C238.024 9.388 237.652 8.984 237.38 8.464C237.108 7.944 236.972 7.352 236.972 6.688ZM242.54 6.7C242.54 6.204 242.44 5.772 242.24 5.404C242.04 5.036 241.768 4.756 241.424 4.564C241.088 4.364 240.716 4.264 240.308 4.264C239.9 4.264 239.528 4.36 239.192 4.552C238.856 4.744 238.588 5.024 238.388 5.392C238.188 5.76 238.088 6.192 238.088 6.688C238.088 7.192 238.188 7.632 238.388 8.008C238.588 8.376 238.856 8.66 239.192 8.86C239.528 9.052 239.9 9.148 240.308 9.148C240.716 9.148 241.088 9.052 241.424 8.86C241.768 8.66 242.04 8.376 242.24 8.008C242.44 7.632 242.54 7.196 242.54 6.7ZM246.582 4.492C246.774 4.116 247.046 3.824 247.398 3.616C247.758 3.408 248.194 3.304 248.706 3.304V4.432H248.418C247.194 4.432 246.582 5.096 246.582 6.424V10H245.49V3.424H246.582V4.492ZM253.638 10L251.058 7.096V10H249.966V1.12H251.058V6.34L253.59 3.424H255.114L252.018 6.7L255.126 10H253.638ZM255.734 6.688C255.734 6.016 255.87 5.428 256.142 4.924C256.414 4.412 256.786 4.016 257.258 3.736C257.738 3.456 258.27 3.316 258.854 3.316C259.43 3.316 259.93 3.44 260.354 3.688C260.778 3.936 261.094 4.248 261.302 4.624V3.424H262.406V10H261.302V8.776C261.086 9.16 260.762 9.48 260.33 9.736C259.906 9.984 259.41 10.108 258.842 10.108C258.258 10.108 257.73 9.964 257.258 9.676C256.786 9.388 256.414 8.984 256.142 8.464C255.87 7.944 255.734 7.352 255.734 6.688ZM261.302 6.7C261.302 6.204 261.202 5.772 261.002 5.404C260.802 5.036 260.53 4.756 260.186 4.564C259.85 4.364 259.478 4.264 259.07 4.264C258.662 4.264 258.29 4.36 257.954 4.552C257.618 4.744 257.35 5.024 257.15 5.392C256.95 5.76 256.85 6.192 256.85 6.688C256.85 7.192 256.95 7.632 257.15 8.008C257.35 8.376 257.618 8.66 257.954 8.86C258.29 9.052 258.662 9.148 259.07 9.148C259.478 9.148 259.85 9.052 260.186 8.86C260.53 8.66 260.802 8.376 261.002 8.008C261.202 7.632 261.302 7.196 261.302 6.7ZM267.455 3.304C268.255 3.304 268.903 3.548 269.399 4.036C269.895 4.516 270.143 5.212 270.143 6.124V10H269.063V6.28C269.063 5.624 268.899 5.124 268.571 4.78C268.243 4.428 267.795 4.252 267.227 4.252C266.651 4.252 266.191 4.432 265.847 4.792C265.511 5.152 265.343 5.676 265.343 6.364V10H264.251V3.424H265.343V4.36C265.559 4.024 265.851 3.764 266.219 3.58C266.595 3.396 267.007 3.304 267.455 3.304ZM284.046 10.108C283.43 10.108 282.87 9.968 282.366 9.688C281.87 9.408 281.478 9.012 281.19 8.5C280.91 7.98 280.77 7.38 280.77 6.7C280.77 6.028 280.914 5.436 281.202 4.924C281.498 4.404 281.898 4.008 282.402 3.736C282.906 3.456 283.47 3.316 284.094 3.316C284.718 3.316 285.282 3.456 285.786 3.736C286.29 4.008 286.686 4.4 286.974 4.912C287.27 5.424 287.418 6.02 287.418 6.7C287.418 7.38 287.266 7.98 286.962 8.5C286.666 9.012 286.262 9.408 285.75 9.688C285.238 9.968 284.67 10.108 284.046 10.108ZM284.046 9.148C284.438 9.148 284.806 9.056 285.15 8.872C285.494 8.688 285.77 8.412 285.978 8.044C286.194 7.676 286.302 7.228 286.302 6.7C286.302 6.172 286.198 5.724 285.99 5.356C285.782 4.988 285.51 4.716 285.174 4.54C284.838 4.356 284.474 4.264 284.082 4.264C283.682 4.264 283.314 4.356 282.978 4.54C282.65 4.716 282.386 4.988 282.186 5.356C281.986 5.724 281.886 6.172 281.886 6.7C281.886 7.236 281.982 7.688 282.174 8.056C282.374 8.424 282.638 8.7 282.966 8.884C283.294 9.06 283.654 9.148 284.046 9.148ZM289.946 1.12V10H288.854V1.12H289.946ZM297.807 6.46C297.807 6.668 297.795 6.888 297.771 7.12H292.515C292.555 7.768 292.775 8.276 293.175 8.644C293.583 9.004 294.075 9.184 294.651 9.184C295.123 9.184 295.515 9.076 295.827 8.86C296.147 8.636 296.371 8.34 296.499 7.972H297.675C297.499 8.604 297.147 9.12 296.619 9.52C296.091 9.912 295.435 10.108 294.651 10.108C294.027 10.108 293.467 9.968 292.971 9.688C292.483 9.408 292.099 9.012 291.819 8.5C291.539 7.98 291.399 7.38 291.399 6.7C291.399 6.02 291.535 5.424 291.807 4.912C292.079 4.4 292.459 4.008 292.947 3.736C293.443 3.456 294.011 3.316 294.651 3.316C295.275 3.316 295.827 3.452 296.307 3.724C296.787 3.996 297.155 4.372 297.411 4.852C297.675 5.324 297.807 5.86 297.807 6.46ZM296.679 6.232C296.679 5.816 296.587 5.46 296.403 5.164C296.219 4.86 295.967 4.632 295.647 4.48C295.335 4.32 294.987 4.24 294.603 4.24C294.051 4.24 293.579 4.416 293.187 4.768C292.803 5.12 292.583 5.608 292.527 6.232H296.679ZM302.512 3.304C303.008 3.304 303.456 3.412 303.856 3.628C304.256 3.836 304.568 4.152 304.792 4.576C305.024 5 305.14 5.516 305.14 6.124V10H304.06V6.28C304.06 5.624 303.896 5.124 303.568 4.78C303.24 4.428 302.792 4.252 302.224 4.252C301.648 4.252 301.188 4.432 300.844 4.792C300.508 5.152 300.34 5.676 300.34 6.364V10H299.248V1.12H300.34V4.36C300.556 4.024 300.852 3.764 301.228 3.58C301.612 3.396 302.04 3.304 302.512 3.304ZM3.252 28.108C2.748 28.108 2.296 28.024 1.896 27.856C1.496 27.68 1.18 27.44 0.948 27.136C0.716 26.824 0.588 26.468 0.564 26.068H1.692C1.724 26.396 1.876 26.664 2.148 26.872C2.428 27.08 2.792 27.184 3.24 27.184C3.656 27.184 3.984 27.092 4.224 26.908C4.464 26.724 4.584 26.492 4.584 26.212C4.584 25.924 4.456 25.712 4.2 25.576C3.944 25.432 3.548 25.292 3.012 25.156C2.524 25.028 2.124 24.9 1.812 24.772C1.508 24.636 1.244 24.44 1.02 24.184C0.804 23.92 0.696 23.576 0.696 23.152C0.696 22.816 0.796 22.508 0.996 22.228C1.196 21.948 1.48 21.728 1.848 21.568C2.216 21.4 2.636 21.316 3.108 21.316C3.836 21.316 4.424 21.5 4.872 21.868C5.32 22.236 5.56 22.74 5.592 23.38H4.5C4.476 23.036 4.336 22.76 4.08 22.552C3.832 22.344 3.496 22.24 3.072 22.24C2.68 22.24 2.368 22.324 2.136 22.492C1.904 22.66 1.788 22.88 1.788 23.152C1.788 23.368 1.856 23.548 1.992 23.692C2.136 23.828 2.312 23.94 2.52 24.028C2.736 24.108 3.032 24.2 3.408 24.304C3.88 24.432 4.264 24.56 4.56 24.688C4.856 24.808 5.108 24.992 5.316 25.24C5.532 25.488 5.644 25.812 5.652 26.212C5.652 26.572 5.552 26.896 5.352 27.184C5.152 27.472 4.868 27.7 4.5 27.868C4.14 28.028 3.724 28.108 3.252 28.108ZM13.0255 21.424V28H11.9335V27.028C11.7255 27.364 11.4335 27.628 11.0575 27.82C10.6895 28.004 10.2815 28.096 9.83353 28.096C9.32153 28.096 8.86153 27.992 8.45353 27.784C8.04553 27.568 7.72153 27.248 7.48153 26.824C7.24953 26.4 7.13353 25.884 7.13353 25.276V21.424H8.21353V25.132C8.21353 25.78 8.37753 26.28 8.70553 26.632C9.03353 26.976 9.48153 27.148 10.0495 27.148C10.6335 27.148 11.0935 26.968 11.4295 26.608C11.7655 26.248 11.9335 25.724 11.9335 25.036V21.424H13.0255ZM14.4613 24.688C14.4613 24.016 14.5973 23.428 14.8693 22.924C15.1413 22.412 15.5133 22.016 15.9853 21.736C16.4653 21.456 16.9973 21.316 17.5813 21.316C18.1573 21.316 18.6573 21.44 19.0813 21.688C19.5053 21.936 19.8213 22.248 20.0293 22.624V21.424H21.1333V28H20.0293V26.776C19.8133 27.16 19.4893 27.48 19.0573 27.736C18.6333 27.984 18.1373 28.108 17.5693 28.108C16.9853 28.108 16.4573 27.964 15.9853 27.676C15.5133 27.388 15.1413 26.984 14.8693 26.464C14.5973 25.944 14.4613 25.352 14.4613 24.688ZM20.0293 24.7C20.0293 24.204 19.9293 23.772 19.7293 23.404C19.5293 23.036 19.2573 22.756 18.9133 22.564C18.5773 22.364 18.2053 22.264 17.7973 22.264C17.3893 22.264 17.0173 22.36 16.6813 22.552C16.3453 22.744 16.0773 23.024 15.8773 23.392C15.6773 23.76 15.5773 24.192 15.5773 24.688C15.5773 25.192 15.6773 25.632 15.8773 26.008C16.0773 26.376 16.3453 26.66 16.6813 26.86C17.0173 27.052 17.3893 27.148 17.7973 27.148C18.2053 27.148 18.5773 27.052 18.9133 26.86C19.2573 26.66 19.5293 26.376 19.7293 26.008C19.9293 25.632 20.0293 25.196 20.0293 24.7ZM24.3107 22.324V26.2C24.3107 26.52 24.3787 26.748 24.5147 26.884C24.6507 27.012 24.8867 27.076 25.2227 27.076H26.0267V28H25.0427C24.4347 28 23.9787 27.86 23.6747 27.58C23.3707 27.3 23.2187 26.84 23.2187 26.2V22.324H22.3667V21.424H23.2187V19.768H24.3107V21.424H26.0267V22.324H24.3107ZM33.1818 21.424V28H32.0898V27.028C31.8818 27.364 31.5898 27.628 31.2138 27.82C30.8458 28.004 30.4378 28.096 29.9898 28.096C29.4778 28.096 29.0178 27.992 28.6098 27.784C28.2018 27.568 27.8778 27.248 27.6378 26.824C27.4058 26.4 27.2898 25.884 27.2898 25.276V21.424H28.3698V25.132C28.3698 25.78 28.5338 26.28 28.8618 26.632C29.1898 26.976 29.6378 27.148 30.2058 27.148C30.7898 27.148 31.2498 26.968 31.5858 26.608C31.9218 26.248 32.0898 25.724 32.0898 25.036V21.424H33.1818ZM42.2207 22.648C42.4447 22.256 42.7727 21.936 43.2047 21.688C43.6367 21.44 44.1287 21.316 44.6807 21.316C45.2727 21.316 45.8047 21.456 46.2767 21.736C46.7487 22.016 47.1207 22.412 47.3927 22.924C47.6647 23.428 47.8007 24.016 47.8007 24.688C47.8007 25.352 47.6647 25.944 47.3927 26.464C47.1207 26.984 46.7447 27.388 46.2647 27.676C45.7927 27.964 45.2647 28.108 44.6807 28.108C44.1127 28.108 43.6127 27.984 43.1807 27.736C42.7567 27.488 42.4367 27.172 42.2207 26.788V28H41.1287V19.12H42.2207V22.648ZM46.6847 24.688C46.6847 24.192 46.5847 23.76 46.3847 23.392C46.1847 23.024 45.9127 22.744 45.5687 22.552C45.2327 22.36 44.8607 22.264 44.4527 22.264C44.0527 22.264 43.6807 22.364 43.3367 22.564C43.0007 22.756 42.7287 23.04 42.5207 23.416C42.3207 23.784 42.2207 24.212 42.2207 24.7C42.2207 25.196 42.3207 25.632 42.5207 26.008C42.7287 26.376 43.0007 26.66 43.3367 26.86C43.6807 27.052 44.0527 27.148 44.4527 27.148C44.8607 27.148 45.2327 27.052 45.5687 26.86C45.9127 26.66 46.1847 26.376 46.3847 26.008C46.5847 25.632 46.6847 25.192 46.6847 24.688ZM55.2381 24.46C55.2381 24.668 55.2261 24.888 55.2021 25.12H49.9461C49.9861 25.768 50.2061 26.276 50.6061 26.644C51.0141 27.004 51.5061 27.184 52.0821 27.184C52.5541 27.184 52.9461 27.076 53.2581 26.86C53.5781 26.636 53.8021 26.34 53.9301 25.972H55.1061C54.9301 26.604 54.5781 27.12 54.0501 27.52C53.5221 27.912 52.8661 28.108 52.0821 28.108C51.4581 28.108 50.8981 27.968 50.4021 27.688C49.9141 27.408 49.5301 27.012 49.2501 26.5C48.9701 25.98 48.8301 25.38 48.8301 24.7C48.8301 24.02 48.9661 23.424 49.2381 22.912C49.5101 22.4 49.8901 22.008 50.3781 21.736C50.8741 21.456 51.4421 21.316 52.0821 21.316C52.7061 21.316 53.2581 21.452 53.7381 21.724C54.2181 21.996 54.5861 22.372 54.8421 22.852C55.1061 23.324 55.2381 23.86 55.2381 24.46ZM54.1101 24.232C54.1101 23.816 54.0181 23.46 53.8341 23.164C53.6501 22.86 53.3981 22.632 53.0781 22.48C52.7661 22.32 52.4181 22.24 52.0341 22.24C51.4821 22.24 51.0101 22.416 50.6181 22.768C50.2341 23.12 50.0141 23.608 49.9581 24.232H54.1101ZM59.8835 21.304C60.6835 21.304 61.3315 21.548 61.8275 22.036C62.3235 22.516 62.5715 23.212 62.5715 24.124V28H61.4915V24.28C61.4915 23.624 61.3275 23.124 60.9995 22.78C60.6715 22.428 60.2235 22.252 59.6555 22.252C59.0795 22.252 58.6195 22.432 58.2755 22.792C57.9395 23.152 57.7715 23.676 57.7715 24.364V28H56.6795V21.424H57.7715V22.36C57.9875 22.024 58.2795 21.764 58.6475 21.58C59.0235 21.396 59.4355 21.304 59.8835 21.304ZM63.9473 24.688C63.9473 24.016 64.0833 23.428 64.3553 22.924C64.6273 22.412 64.9993 22.016 65.4713 21.736C65.9513 21.456 66.4873 21.316 67.0793 21.316C67.5913 21.316 68.0673 21.436 68.5073 21.676C68.9473 21.908 69.2833 22.216 69.5153 22.6V19.12H70.6193V28H69.5153V26.764C69.2993 27.156 68.9793 27.48 68.5553 27.736C68.1313 27.984 67.6353 28.108 67.0673 28.108C66.4833 28.108 65.9513 27.964 65.4713 27.676C64.9993 27.388 64.6273 26.984 64.3553 26.464C64.0833 25.944 63.9473 25.352 63.9473 24.688ZM69.5153 24.7C69.5153 24.204 69.4153 23.772 69.2153 23.404C69.0153 23.036 68.7433 22.756 68.3993 22.564C68.0633 22.364 67.6913 22.264 67.2833 22.264C66.8753 22.264 66.5033 22.36 66.1673 22.552C65.8313 22.744 65.5633 23.024 65.3633 23.392C65.1633 23.76 65.0633 24.192 65.0633 24.688C65.0633 25.192 65.1633 25.632 65.3633 26.008C65.5633 26.376 65.8313 26.66 66.1673 26.86C66.5033 27.052 66.8753 27.148 67.2833 27.148C67.6913 27.148 68.0633 27.052 68.3993 26.86C68.7433 26.66 69.0153 26.376 69.2153 26.008C69.4153 25.632 69.5153 25.196 69.5153 24.7ZM72.0566 24.688C72.0566 24.016 72.1926 23.428 72.4646 22.924C72.7366 22.412 73.1086 22.016 73.5806 21.736C74.0606 21.456 74.5926 21.316 75.1766 21.316C75.7526 21.316 76.2526 21.44 76.6766 21.688C77.1006 21.936 77.4166 22.248 77.6246 22.624V21.424H78.7286V28H77.6246V26.776C77.4086 27.16 77.0846 27.48 76.6526 27.736C76.2286 27.984 75.7326 28.108 75.1646 28.108C74.5806 28.108 74.0526 27.964 73.5806 27.676C73.1086 27.388 72.7366 26.984 72.4646 26.464C72.1926 25.944 72.0566 25.352 72.0566 24.688ZM77.6246 24.7C77.6246 24.204 77.5246 23.772 77.3246 23.404C77.1246 23.036 76.8526 22.756 76.5086 22.564C76.1726 22.364 75.8006 22.264 75.3926 22.264C74.9846 22.264 74.6126 22.36 74.2766 22.552C73.9406 22.744 73.6726 23.024 73.4726 23.392C73.2726 23.76 73.1726 24.192 73.1726 24.688C73.1726 25.192 73.2726 25.632 73.4726 26.008C73.6726 26.376 73.9406 26.66 74.2766 26.86C74.6126 27.052 74.9846 27.148 75.3926 27.148C75.8006 27.148 76.1726 27.052 76.5086 26.86C76.8526 26.66 77.1246 26.376 77.3246 26.008C77.5246 25.632 77.6246 25.196 77.6246 24.7ZM86.2691 24.688C86.2691 24.016 86.4051 23.428 86.6771 22.924C86.9491 22.412 87.3211 22.016 87.7931 21.736C88.2731 21.456 88.8091 21.316 89.4011 21.316C89.9131 21.316 90.3891 21.436 90.8291 21.676C91.2691 21.908 91.6051 22.216 91.8371 22.6V19.12H92.9411V28H91.8371V26.764C91.6211 27.156 91.3011 27.48 90.8771 27.736C90.4531 27.984 89.9571 28.108 89.3891 28.108C88.8051 28.108 88.2731 27.964 87.7931 27.676C87.3211 27.388 86.9491 26.984 86.6771 26.464C86.4051 25.944 86.2691 25.352 86.2691 24.688ZM91.8371 24.7C91.8371 24.204 91.7371 23.772 91.5371 23.404C91.3371 23.036 91.0651 22.756 90.7211 22.564C90.3851 22.364 90.0131 22.264 89.6051 22.264C89.1971 22.264 88.8251 22.36 88.4891 22.552C88.1531 22.744 87.8851 23.024 87.6851 23.392C87.4851 23.76 87.3851 24.192 87.3851 24.688C87.3851 25.192 87.4851 25.632 87.6851 26.008C87.8851 26.376 88.1531 26.66 88.4891 26.86C88.8251 27.052 89.1971 27.148 89.6051 27.148C90.0131 27.148 90.3851 27.052 90.7211 26.86C91.0651 26.66 91.3371 26.376 91.5371 26.008C91.7371 25.632 91.8371 25.196 91.8371 24.7ZM95.3505 20.356C95.1425 20.356 94.9665 20.284 94.8225 20.14C94.6785 19.996 94.6065 19.82 94.6065 19.612C94.6065 19.404 94.6785 19.228 94.8225 19.084C94.9665 18.94 95.1425 18.868 95.3505 18.868C95.5505 18.868 95.7185 18.94 95.8545 19.084C95.9985 19.228 96.0705 19.404 96.0705 19.612C96.0705 19.82 95.9985 19.996 95.8545 20.14C95.7185 20.284 95.5505 20.356 95.3505 20.356ZM95.8785 21.424V28H94.7865V21.424H95.8785ZM100.944 21.304C101.744 21.304 102.392 21.548 102.888 22.036C103.384 22.516 103.632 23.212 103.632 24.124V28H102.552V24.28C102.552 23.624 102.388 23.124 102.06 22.78C101.732 22.428 101.284 22.252 100.716 22.252C100.14 22.252 99.6796 22.432 99.3356 22.792C98.9996 23.152 98.8316 23.676 98.8316 24.364V28H97.7396V21.424H98.8316V22.36C99.0476 22.024 99.3396 21.764 99.7076 21.58C100.084 21.396 100.496 21.304 100.944 21.304ZM111.079 21.424L107.119 31.096H105.991L107.287 27.928L104.635 21.424H105.847L107.911 26.752L109.951 21.424H111.079ZM111.769 24.688C111.769 24.016 111.905 23.428 112.177 22.924C112.449 22.412 112.821 22.016 113.293 21.736C113.773 21.456 114.305 21.316 114.889 21.316C115.465 21.316 115.965 21.44 116.389 21.688C116.813 21.936 117.129 22.248 117.337 22.624V21.424H118.441V28H117.337V26.776C117.121 27.16 116.797 27.48 116.365 27.736C115.941 27.984 115.445 28.108 114.877 28.108C114.293 28.108 113.765 27.964 113.293 27.676C112.821 27.388 112.449 26.984 112.177 26.464C111.905 25.944 111.769 25.352 111.769 24.688ZM117.337 24.7C117.337 24.204 117.237 23.772 117.037 23.404C116.837 23.036 116.565 22.756 116.221 22.564C115.885 22.364 115.513 22.264 115.105 22.264C114.697 22.264 114.325 22.36 113.989 22.552C113.653 22.744 113.385 23.024 113.185 23.392C112.985 23.76 112.885 24.192 112.885 24.688C112.885 25.192 112.985 25.632 113.185 26.008C113.385 26.376 113.653 26.66 113.989 26.86C114.325 27.052 114.697 27.148 115.105 27.148C115.513 27.148 115.885 27.052 116.221 26.86C116.565 26.66 116.837 26.376 117.037 26.008C117.237 25.632 117.337 25.196 117.337 24.7ZM121.619 22.324V26.2C121.619 26.52 121.687 26.748 121.823 26.884C121.959 27.012 122.195 27.076 122.531 27.076H123.335V28H122.351C121.743 28 121.287 27.86 120.983 27.58C120.679 27.3 120.527 26.84 120.527 26.2V22.324H119.675V21.424H120.527V19.768H121.619V21.424H123.335V22.324H121.619ZM124.25 24.688C124.25 24.016 124.386 23.428 124.658 22.924C124.93 22.412 125.302 22.016 125.774 21.736C126.254 21.456 126.786 21.316 127.37 21.316C127.946 21.316 128.446 21.44 128.87 21.688C129.294 21.936 129.61 22.248 129.818 22.624V21.424H130.922V28H129.818V26.776C129.602 27.16 129.278 27.48 128.846 27.736C128.422 27.984 127.926 28.108 127.358 28.108C126.774 28.108 126.246 27.964 125.774 27.676C125.302 27.388 124.93 26.984 124.658 26.464C124.386 25.944 124.25 25.352 124.25 24.688ZM129.818 24.7C129.818 24.204 129.718 23.772 129.518 23.404C129.318 23.036 129.046 22.756 128.702 22.564C128.366 22.364 127.994 22.264 127.586 22.264C127.178 22.264 126.806 22.36 126.47 22.552C126.134 22.744 125.866 23.024 125.666 23.392C125.466 23.76 125.366 24.192 125.366 24.688C125.366 25.192 125.466 25.632 125.666 26.008C125.866 26.376 126.134 26.66 126.47 26.86C126.806 27.052 127.178 27.148 127.586 27.148C127.994 27.148 128.366 27.052 128.702 26.86C129.046 26.66 129.318 26.376 129.518 26.008C129.718 25.632 129.818 25.196 129.818 24.7ZM136.439 28L133.859 25.096V28H132.767V19.12H133.859V24.34L136.391 21.424H137.915L134.819 24.7L137.927 28H136.439ZM138.535 24.688C138.535 24.016 138.671 23.428 138.943 22.924C139.215 22.412 139.587 22.016 140.059 21.736C140.539 21.456 141.071 21.316 141.655 21.316C142.231 21.316 142.731 21.44 143.155 21.688C143.579 21.936 143.895 22.248 144.103 22.624V21.424H145.207V28H144.103V26.776C143.887 27.16 143.563 27.48 143.131 27.736C142.707 27.984 142.211 28.108 141.643 28.108C141.059 28.108 140.531 27.964 140.059 27.676C139.587 27.388 139.215 26.984 138.943 26.464C138.671 25.944 138.535 25.352 138.535 24.688ZM144.103 24.7C144.103 24.204 144.003 23.772 143.803 23.404C143.603 23.036 143.331 22.756 142.987 22.564C142.651 22.364 142.279 22.264 141.871 22.264C141.463 22.264 141.091 22.36 140.755 22.552C140.419 22.744 140.151 23.024 139.951 23.392C139.751 23.76 139.651 24.192 139.651 24.688C139.651 25.192 139.751 25.632 139.951 26.008C140.151 26.376 140.419 26.66 140.755 26.86C141.091 27.052 141.463 27.148 141.871 27.148C142.279 27.148 142.651 27.052 142.987 26.86C143.331 26.66 143.603 26.376 143.803 26.008C144.003 25.632 144.103 25.196 144.103 24.7ZM150.256 21.304C151.056 21.304 151.704 21.548 152.2 22.036C152.696 22.516 152.944 23.212 152.944 24.124V28H151.864V24.28C151.864 23.624 151.7 23.124 151.372 22.78C151.044 22.428 150.596 22.252 150.028 22.252C149.452 22.252 148.992 22.432 148.648 22.792C148.312 23.152 148.144 23.676 148.144 24.364V28H147.052V21.424H148.144V22.36C148.36 22.024 148.652 21.764 149.02 21.58C149.396 21.396 149.808 21.304 150.256 21.304ZM160.423 24.688C160.423 24.016 160.559 23.428 160.831 22.924C161.103 22.412 161.475 22.016 161.947 21.736C162.427 21.456 162.963 21.316 163.555 21.316C164.067 21.316 164.543 21.436 164.983 21.676C165.423 21.908 165.759 22.216 165.991 22.6V19.12H167.095V28H165.991V26.764C165.775 27.156 165.455 27.48 165.031 27.736C164.607 27.984 164.111 28.108 163.543 28.108C162.959 28.108 162.427 27.964 161.947 27.676C161.475 27.388 161.103 26.984 160.831 26.464C160.559 25.944 160.423 25.352 160.423 24.688ZM165.991 24.7C165.991 24.204 165.891 23.772 165.691 23.404C165.491 23.036 165.219 22.756 164.875 22.564C164.539 22.364 164.167 22.264 163.759 22.264C163.351 22.264 162.979 22.36 162.643 22.552C162.307 22.744 162.039 23.024 161.839 23.392C161.639 23.76 161.539 24.192 161.539 24.688C161.539 25.192 161.639 25.632 161.839 26.008C162.039 26.376 162.307 26.66 162.643 26.86C162.979 27.052 163.351 27.148 163.759 27.148C164.167 27.148 164.539 27.052 164.875 26.86C165.219 26.66 165.491 26.376 165.691 26.008C165.891 25.632 165.991 25.196 165.991 24.7ZM174.94 24.46C174.94 24.668 174.928 24.888 174.904 25.12H169.648C169.688 25.768 169.908 26.276 170.308 26.644C170.716 27.004 171.208 27.184 171.784 27.184C172.256 27.184 172.648 27.076 172.96 26.86C173.28 26.636 173.504 26.34 173.632 25.972H174.808C174.632 26.604 174.28 27.12 173.752 27.52C173.224 27.912 172.568 28.108 171.784 28.108C171.16 28.108 170.6 27.968 170.104 27.688C169.616 27.408 169.232 27.012 168.952 26.5C168.672 25.98 168.532 25.38 168.532 24.7C168.532 24.02 168.668 23.424 168.94 22.912C169.212 22.4 169.592 22.008 170.08 21.736C170.576 21.456 171.144 21.316 171.784 21.316C172.408 21.316 172.96 21.452 173.44 21.724C173.92 21.996 174.288 22.372 174.544 22.852C174.808 23.324 174.94 23.86 174.94 24.46ZM173.812 24.232C173.812 23.816 173.72 23.46 173.536 23.164C173.352 22.86 173.1 22.632 172.78 22.48C172.468 22.32 172.12 22.24 171.736 22.24C171.184 22.24 170.712 22.416 170.32 22.768C169.936 23.12 169.716 23.608 169.66 24.232H173.812ZM179.586 21.304C180.386 21.304 181.034 21.548 181.53 22.036C182.026 22.516 182.274 23.212 182.274 24.124V28H181.194V24.28C181.194 23.624 181.03 23.124 180.702 22.78C180.374 22.428 179.926 22.252 179.358 22.252C178.782 22.252 178.322 22.432 177.978 22.792C177.642 23.152 177.474 23.676 177.474 24.364V28H176.382V21.424H177.474V22.36C177.69 22.024 177.982 21.764 178.35 21.58C178.726 21.396 179.138 21.304 179.586 21.304ZM186.77 21.316C187.338 21.316 187.834 21.44 188.258 21.688C188.69 21.936 189.01 22.248 189.218 22.624V21.424H190.322V28.144C190.322 28.744 190.194 29.276 189.938 29.74C189.682 30.212 189.314 30.58 188.834 30.844C188.362 31.108 187.81 31.24 187.178 31.24C186.314 31.24 185.594 31.036 185.018 30.628C184.442 30.22 184.102 29.664 183.998 28.96H185.078C185.198 29.36 185.446 29.68 185.822 29.92C186.198 30.168 186.65 30.292 187.178 30.292C187.778 30.292 188.266 30.104 188.642 29.728C189.026 29.352 189.218 28.824 189.218 28.144V26.764C189.002 27.148 188.682 27.468 188.258 27.724C187.834 27.98 187.338 28.108 186.77 28.108C186.186 28.108 185.654 27.964 185.174 27.676C184.702 27.388 184.33 26.984 184.058 26.464C183.786 25.944 183.65 25.352 183.65 24.688C183.65 24.016 183.786 23.428 184.058 22.924C184.33 22.412 184.702 22.016 185.174 21.736C185.654 21.456 186.186 21.316 186.77 21.316ZM189.218 24.7C189.218 24.204 189.118 23.772 188.918 23.404C188.718 23.036 188.446 22.756 188.102 22.564C187.766 22.364 187.394 22.264 186.986 22.264C186.578 22.264 186.206 22.36 185.87 22.552C185.534 22.744 185.266 23.024 185.066 23.392C184.866 23.76 184.766 24.192 184.766 24.688C184.766 25.192 184.866 25.632 185.066 26.008C185.266 26.376 185.534 26.66 185.87 26.86C186.206 27.052 186.578 27.148 186.986 27.148C187.394 27.148 187.766 27.052 188.102 26.86C188.446 26.66 188.718 26.376 188.918 26.008C189.118 25.632 189.218 25.196 189.218 24.7ZM191.759 24.688C191.759 24.016 191.895 23.428 192.167 22.924C192.439 22.412 192.811 22.016 193.283 21.736C193.763 21.456 194.295 21.316 194.879 21.316C195.455 21.316 195.955 21.44 196.379 21.688C196.803 21.936 197.119 22.248 197.327 22.624V21.424H198.431V28H197.327V26.776C197.111 27.16 196.787 27.48 196.355 27.736C195.931 27.984 195.435 28.108 194.867 28.108C194.283 28.108 193.755 27.964 193.283 27.676C192.811 27.388 192.439 26.984 192.167 26.464C191.895 25.944 191.759 25.352 191.759 24.688ZM197.327 24.7C197.327 24.204 197.227 23.772 197.027 23.404C196.827 23.036 196.555 22.756 196.211 22.564C195.875 22.364 195.503 22.264 195.095 22.264C194.687 22.264 194.315 22.36 193.979 22.552C193.643 22.744 193.375 23.024 193.175 23.392C192.975 23.76 192.875 24.192 192.875 24.688C192.875 25.192 192.975 25.632 193.175 26.008C193.375 26.376 193.643 26.66 193.979 26.86C194.315 27.052 194.687 27.148 195.095 27.148C195.503 27.148 195.875 27.052 196.211 26.86C196.555 26.66 196.827 26.376 197.027 26.008C197.227 25.632 197.327 25.196 197.327 24.7ZM203.48 21.304C204.28 21.304 204.928 21.548 205.424 22.036C205.92 22.516 206.168 23.212 206.168 24.124V28H205.088V24.28C205.088 23.624 204.924 23.124 204.596 22.78C204.268 22.428 203.82 22.252 203.252 22.252C202.676 22.252 202.216 22.432 201.872 22.792C201.536 23.152 201.368 23.676 201.368 24.364V28H200.276V21.424H201.368V22.36C201.584 22.024 201.876 21.764 202.244 21.58C202.62 21.396 203.032 21.304 203.48 21.304ZM217.319 21.304C217.815 21.304 218.263 21.412 218.663 21.628C219.063 21.836 219.375 22.152 219.599 22.576C219.831 23 219.947 23.516 219.947 24.124V28H218.867V24.28C218.867 23.624 218.703 23.124 218.375 22.78C218.047 22.428 217.599 22.252 217.031 22.252C216.455 22.252 215.995 22.432 215.651 22.792C215.315 23.152 215.147 23.676 215.147 24.364V28H214.055V19.12H215.147V22.36C215.363 22.024 215.659 21.764 216.035 21.58C216.419 21.396 216.847 21.304 217.319 21.304ZM227.563 21.424V28H226.471V27.028C226.263 27.364 225.971 27.628 225.595 27.82C225.227 28.004 224.819 28.096 224.371 28.096C223.859 28.096 223.399 27.992 222.991 27.784C222.583 27.568 222.259 27.248 222.019 26.824C221.787 26.4 221.671 25.884 221.671 25.276V21.424H222.751V25.132C222.751 25.78 222.915 26.28 223.243 26.632C223.571 26.976 224.019 27.148 224.587 27.148C225.171 27.148 225.631 26.968 225.967 26.608C226.303 26.248 226.471 25.724 226.471 25.036V21.424H227.563ZM233.079 28L230.499 25.096V28H229.407V19.12H230.499V24.34L233.031 21.424H234.555L231.459 24.7L234.567 28H233.079ZM241.415 21.424V28H240.323V27.028C240.115 27.364 239.823 27.628 239.447 27.82C239.079 28.004 238.671 28.096 238.223 28.096C237.711 28.096 237.251 27.992 236.843 27.784C236.435 27.568 236.111 27.248 235.871 26.824C235.639 26.4 235.523 25.884 235.523 25.276V21.424H236.603V25.132C236.603 25.78 236.767 26.28 237.095 26.632C237.423 26.976 237.871 27.148 238.439 27.148C239.023 27.148 239.483 26.968 239.819 26.608C240.155 26.248 240.323 25.724 240.323 25.036V21.424H241.415ZM251.166 21.304C251.678 21.304 252.134 21.412 252.534 21.628C252.934 21.836 253.25 22.152 253.482 22.576C253.714 23 253.83 23.516 253.83 24.124V28H252.75V24.28C252.75 23.624 252.586 23.124 252.258 22.78C251.938 22.428 251.502 22.252 250.95 22.252C250.382 22.252 249.93 22.436 249.594 22.804C249.258 23.164 249.09 23.688 249.09 24.376V28H248.01V24.28C248.01 23.624 247.846 23.124 247.518 22.78C247.198 22.428 246.762 22.252 246.21 22.252C245.642 22.252 245.19 22.436 244.854 22.804C244.518 23.164 244.35 23.688 244.35 24.376V28H243.258V21.424H244.35V22.372C244.566 22.028 244.854 21.764 245.214 21.58C245.582 21.396 245.986 21.304 246.426 21.304C246.978 21.304 247.466 21.428 247.89 21.676C248.314 21.924 248.63 22.288 248.838 22.768C249.022 22.304 249.326 21.944 249.75 21.688C250.174 21.432 250.646 21.304 251.166 21.304ZM264.377 28.084C263.825 28.084 263.329 27.988 262.889 27.796C262.457 27.596 262.117 27.324 261.869 26.98C261.621 26.628 261.493 26.224 261.485 25.768H262.649C262.689 26.16 262.849 26.492 263.129 26.764C263.417 27.028 263.833 27.16 264.377 27.16C264.897 27.16 265.305 27.032 265.601 26.776C265.905 26.512 266.057 26.176 266.057 25.768C266.057 25.448 265.969 25.188 265.793 24.988C265.617 24.788 265.397 24.636 265.133 24.532C264.869 24.428 264.513 24.316 264.065 24.196C263.513 24.052 263.069 23.908 262.733 23.764C262.405 23.62 262.121 23.396 261.881 23.092C261.649 22.78 261.533 22.364 261.533 21.844C261.533 21.388 261.649 20.984 261.881 20.632C262.113 20.28 262.437 20.008 262.853 19.816C263.277 19.624 263.761 19.528 264.305 19.528C265.089 19.528 265.729 19.724 266.225 20.116C266.729 20.508 267.013 21.028 267.077 21.676H265.877C265.837 21.356 265.669 21.076 265.373 20.836C265.077 20.588 264.685 20.464 264.197 20.464C263.741 20.464 263.369 20.584 263.081 20.824C262.793 21.056 262.649 21.384 262.649 21.808C262.649 22.112 262.733 22.36 262.901 22.552C263.077 22.744 263.289 22.892 263.537 22.996C263.793 23.092 264.149 23.204 264.605 23.332C265.157 23.484 265.601 23.636 265.937 23.788C266.273 23.932 266.561 24.16 266.801 24.472C267.041 24.776 267.161 25.192 267.161 25.72C267.161 26.128 267.053 26.512 266.837 26.872C266.621 27.232 266.301 27.524 265.877 27.748C265.453 27.972 264.953 28.084 264.377 28.084ZM270.1 22.324V26.2C270.1 26.52 270.168 26.748 270.304 26.884C270.44 27.012 270.676 27.076 271.012 27.076H271.816V28H270.832C270.224 28 269.768 27.86 269.464 27.58C269.16 27.3 269.008 26.84 269.008 26.2V22.324H268.156V21.424H269.008V19.768H270.1V21.424H271.816V22.324H270.1ZM279.139 24.46C279.139 24.668 279.127 24.888 279.103 25.12H273.847C273.887 25.768 274.107 26.276 274.507 26.644C274.915 27.004 275.407 27.184 275.983 27.184C276.455 27.184 276.847 27.076 277.159 26.86C277.479 26.636 277.703 26.34 277.831 25.972H279.007C278.831 26.604 278.479 27.12 277.951 27.52C277.423 27.912 276.767 28.108 275.983 28.108C275.359 28.108 274.799 27.968 274.303 27.688C273.815 27.408 273.431 27.012 273.151 26.5C272.871 25.98 272.731 25.38 272.731 24.7C272.731 24.02 272.867 23.424 273.139 22.912C273.411 22.4 273.791 22.008 274.279 21.736C274.775 21.456 275.343 21.316 275.983 21.316C276.607 21.316 277.159 21.452 277.639 21.724C278.119 21.996 278.487 22.372 278.743 22.852C279.007 23.324 279.139 23.86 279.139 24.46ZM278.011 24.232C278.011 23.816 277.919 23.46 277.735 23.164C277.551 22.86 277.299 22.632 276.979 22.48C276.667 22.32 276.319 22.24 275.935 22.24C275.383 22.24 274.911 22.416 274.519 22.768C274.135 23.12 273.915 23.608 273.859 24.232H278.011ZM283.256 22.324H281.876V28H280.784V22.324H279.932V21.424H280.784V20.956C280.784 20.22 280.972 19.684 281.348 19.348C281.732 19.004 282.344 18.832 283.184 18.832V19.744C282.704 19.744 282.364 19.84 282.164 20.032C281.972 20.216 281.876 20.524 281.876 20.956V21.424H283.256V22.324ZM284.121 24.688C284.121 24.016 284.257 23.428 284.529 22.924C284.801 22.412 285.173 22.016 285.645 21.736C286.125 21.456 286.657 21.316 287.241 21.316C287.817 21.316 288.317 21.44 288.741 21.688C289.165 21.936 289.481 22.248 289.689 22.624V21.424H290.793V28H289.689V26.776C289.473 27.16 289.149 27.48 288.717 27.736C288.293 27.984 287.797 28.108 287.229 28.108C286.645 28.108 286.117 27.964 285.645 27.676C285.173 27.388 284.801 26.984 284.529 26.464C284.257 25.944 284.121 25.352 284.121 24.688ZM289.689 24.7C289.689 24.204 289.589 23.772 289.389 23.404C289.189 23.036 288.917 22.756 288.573 22.564C288.237 22.364 287.865 22.264 287.457 22.264C287.049 22.264 286.677 22.36 286.341 22.552C286.005 22.744 285.737 23.024 285.537 23.392C285.337 23.76 285.237 24.192 285.237 24.688C285.237 25.192 285.337 25.632 285.537 26.008C285.737 26.376 286.005 26.66 286.341 26.86C286.677 27.052 287.049 27.148 287.457 27.148C287.865 27.148 288.237 27.052 288.573 26.86C288.917 26.66 289.189 26.376 289.389 26.008C289.589 25.632 289.689 25.196 289.689 24.7ZM295.843 21.304C296.643 21.304 297.291 21.548 297.787 22.036C298.283 22.516 298.531 23.212 298.531 24.124V28H297.451V24.28C297.451 23.624 297.287 23.124 296.959 22.78C296.631 22.428 296.183 22.252 295.615 22.252C295.039 22.252 294.579 22.432 294.235 22.792C293.899 23.152 293.731 23.676 293.731 24.364V28H292.639V21.424H293.731V22.36C293.947 22.024 294.239 21.764 294.607 21.58C294.983 21.396 295.395 21.304 295.843 21.304ZM304.875 23.14V24.064H300.087V23.14H304.875ZM5.112 41.692C5.416 41.74 5.692 41.864 5.94 42.064C6.196 42.264 6.396 42.512 6.54 42.808C6.692 43.104 6.768 43.42 6.768 43.756C6.768 44.18 6.66 44.564 6.444 44.908C6.228 45.244 5.912 45.512 5.496 45.712C5.088 45.904 4.604 46 4.044 46H0.924V37.636H3.924C4.492 37.636 4.976 37.732 5.376 37.924C5.776 38.108 6.076 38.36 6.276 38.68C6.476 39 6.576 39.36 6.576 39.76C6.576 40.256 6.44 40.668 6.168 40.996C5.904 41.316 5.552 41.548 5.112 41.692ZM2.016 41.248H3.852C4.364 41.248 4.76 41.128 5.04 40.888C5.32 40.648 5.46 40.316 5.46 39.892C5.46 39.468 5.32 39.136 5.04 38.896C4.76 38.656 4.356 38.536 3.828 38.536H2.016V41.248ZM3.948 45.1C4.492 45.1 4.916 44.972 5.22 44.716C5.524 44.46 5.676 44.104 5.676 43.648C5.676 43.184 5.516 42.82 5.196 42.556C4.876 42.284 4.448 42.148 3.912 42.148H2.016V45.1H3.948ZM11.1514 46.108C10.5354 46.108 9.97538 45.968 9.47138 45.688C8.97538 45.408 8.58338 45.012 8.29538 44.5C8.01538 43.98 7.87538 43.38 7.87538 42.7C7.87538 42.028 8.01938 41.436 8.30738 40.924C8.60338 40.404 9.00338 40.008 9.50738 39.736C10.0114 39.456 10.5754 39.316 11.1994 39.316C11.8234 39.316 12.3874 39.456 12.8914 39.736C13.3954 40.008 13.7914 40.4 14.0794 40.912C14.3754 41.424 14.5234 42.02 14.5234 42.7C14.5234 43.38 14.3714 43.98 14.0674 44.5C13.7714 45.012 13.3674 45.408 12.8554 45.688C12.3434 45.968 11.7754 46.108 11.1514 46.108ZM11.1514 45.148C11.5434 45.148 11.9114 45.056 12.2554 44.872C12.5994 44.688 12.8754 44.412 13.0834 44.044C13.2994 43.676 13.4074 43.228 13.4074 42.7C13.4074 42.172 13.3034 41.724 13.0954 41.356C12.8874 40.988 12.6154 40.716 12.2794 40.54C11.9434 40.356 11.5794 40.264 11.1874 40.264C10.7874 40.264 10.4194 40.356 10.0834 40.54C9.75538 40.716 9.49138 40.988 9.29138 41.356C9.09138 41.724 8.99138 42.172 8.99138 42.7C8.99138 43.236 9.08738 43.688 9.27938 44.056C9.47938 44.424 9.74338 44.7 10.0714 44.884C10.3994 45.06 10.7594 45.148 11.1514 45.148ZM17.0512 37.12V46H15.9592V37.12H17.0512ZM20.2443 40.324V44.2C20.2443 44.52 20.3123 44.748 20.4483 44.884C20.5843 45.012 20.8203 45.076 21.1563 45.076H21.9603V46H20.9763C20.3683 46 19.9123 45.86 19.6083 45.58C19.3043 45.3 19.1523 44.84 19.1523 44.2V40.324H18.3003V39.424H19.1523V37.768H20.2443V39.424H21.9603V40.324H20.2443ZM24.0994 45.1H27.3274V46H22.8514V45.1L26.0434 40.312H22.8754V39.424H27.3034V40.312L24.0994 45.1ZM36.6523 39.304C37.1643 39.304 37.6203 39.412 38.0203 39.628C38.4203 39.836 38.7363 40.152 38.9683 40.576C39.2003 41 39.3163 41.516 39.3163 42.124V46H38.2363V42.28C38.2363 41.624 38.0723 41.124 37.7443 40.78C37.4243 40.428 36.9883 40.252 36.4363 40.252C35.8683 40.252 35.4163 40.436 35.0803 40.804C34.7443 41.164 34.5763 41.688 34.5763 42.376V46H33.4963V42.28C33.4963 41.624 33.3323 41.124 33.0043 40.78C32.6843 40.428 32.2483 40.252 31.6963 40.252C31.1283 40.252 30.6763 40.436 30.3403 40.804C30.0043 41.164 29.8363 41.688 29.8363 42.376V46H28.7443V39.424H29.8363V40.372C30.0523 40.028 30.3403 39.764 30.7003 39.58C31.0683 39.396 31.4723 39.304 31.9123 39.304C32.4643 39.304 32.9523 39.428 33.3763 39.676C33.8003 39.924 34.1163 40.288 34.3243 40.768C34.5083 40.304 34.8123 39.944 35.2363 39.688C35.6603 39.432 36.1323 39.304 36.6523 39.304ZM40.6996 42.688C40.6996 42.016 40.8356 41.428 41.1076 40.924C41.3796 40.412 41.7516 40.016 42.2236 39.736C42.7036 39.456 43.2356 39.316 43.8196 39.316C44.3956 39.316 44.8956 39.44 45.3196 39.688C45.7436 39.936 46.0596 40.248 46.2676 40.624V39.424H47.3716V46H46.2676V44.776C46.0516 45.16 45.7276 45.48 45.2956 45.736C44.8716 45.984 44.3756 46.108 43.8076 46.108C43.2236 46.108 42.6956 45.964 42.2236 45.676C41.7516 45.388 41.3796 44.984 41.1076 44.464C40.8356 43.944 40.6996 43.352 40.6996 42.688ZM46.2676 42.7C46.2676 42.204 46.1676 41.772 45.9676 41.404C45.7676 41.036 45.4956 40.756 45.1516 40.564C44.8156 40.364 44.4436 40.264 44.0356 40.264C43.6276 40.264 43.2556 40.36 42.9196 40.552C42.5836 40.744 42.3156 41.024 42.1156 41.392C41.9156 41.76 41.8156 42.192 41.8156 42.688C41.8156 43.192 41.9156 43.632 42.1156 44.008C42.3156 44.376 42.5836 44.66 42.9196 44.86C43.2556 45.052 43.6276 45.148 44.0356 45.148C44.4436 45.148 44.8156 45.052 45.1516 44.86C45.4956 44.66 45.7676 44.376 45.9676 44.008C46.1676 43.632 46.2676 43.196 46.2676 42.7ZM52.421 39.304C53.221 39.304 53.869 39.548 54.365 40.036C54.861 40.516 55.109 41.212 55.109 42.124V46H54.029V42.28C54.029 41.624 53.865 41.124 53.537 40.78C53.209 40.428 52.761 40.252 52.193 40.252C51.617 40.252 51.157 40.432 50.813 40.792C50.477 41.152 50.309 41.676 50.309 42.364V46H49.217V39.424H50.309V40.36C50.525 40.024 50.817 39.764 51.185 39.58C51.561 39.396 51.973 39.304 52.421 39.304ZM60.0968 39.304C60.8968 39.304 61.5448 39.548 62.0408 40.036C62.5368 40.516 62.7848 41.212 62.7848 42.124V46H61.7048V42.28C61.7048 41.624 61.5408 41.124 61.2128 40.78C60.8848 40.428 60.4368 40.252 59.8688 40.252C59.2928 40.252 58.8328 40.432 58.4888 40.792C58.1528 41.152 57.9848 41.676 57.9848 42.364V46H56.8928V39.424H57.9848V40.36C58.2008 40.024 58.4928 39.764 58.8608 39.58C59.2368 39.396 59.6488 39.304 60.0968 39.304ZM65.6965 44.488L64.3525 47.716H63.6205L64.4965 44.488H65.6965ZM75.8107 39.424L71.8507 49.096H70.7227L72.0187 45.928L69.3667 39.424H70.5787L72.6427 44.752L74.6827 39.424H75.8107ZM76.5004 42.688C76.5004 42.016 76.6364 41.428 76.9084 40.924C77.1804 40.412 77.5524 40.016 78.0244 39.736C78.5044 39.456 79.0364 39.316 79.6204 39.316C80.1964 39.316 80.6964 39.44 81.1204 39.688C81.5444 39.936 81.8604 40.248 82.0684 40.624V39.424H83.1724V46H82.0684V44.776C81.8524 45.16 81.5284 45.48 81.0964 45.736C80.6724 45.984 80.1764 46.108 79.6084 46.108C79.0244 46.108 78.4964 45.964 78.0244 45.676C77.5524 45.388 77.1804 44.984 76.9084 44.464C76.6364 43.944 76.5004 43.352 76.5004 42.688ZM82.0684 42.7C82.0684 42.204 81.9684 41.772 81.7684 41.404C81.5684 41.036 81.2964 40.756 80.9524 40.564C80.6164 40.364 80.2444 40.264 79.8364 40.264C79.4284 40.264 79.0564 40.36 78.7204 40.552C78.3844 40.744 78.1164 41.024 77.9164 41.392C77.7164 41.76 77.6164 42.192 77.6164 42.688C77.6164 43.192 77.7164 43.632 77.9164 44.008C78.1164 44.376 78.3844 44.66 78.7204 44.86C79.0564 45.052 79.4284 45.148 79.8364 45.148C80.2444 45.148 80.6164 45.052 80.9524 44.86C81.2964 44.66 81.5684 44.376 81.7684 44.008C81.9684 43.632 82.0684 43.196 82.0684 42.7ZM85.5818 38.356C85.3738 38.356 85.1978 38.284 85.0538 38.14C84.9098 37.996 84.8378 37.82 84.8378 37.612C84.8378 37.404 84.9098 37.228 85.0538 37.084C85.1978 36.94 85.3738 36.868 85.5818 36.868C85.7818 36.868 85.9498 36.94 86.0858 37.084C86.2298 37.228 86.3018 37.404 86.3018 37.612C86.3018 37.82 86.2298 37.996 86.0858 38.14C85.9498 38.284 85.7818 38.356 85.5818 38.356ZM86.1098 39.424V46H85.0178V39.424H86.1098ZM89.3029 40.324V44.2C89.3029 44.52 89.3709 44.748 89.5069 44.884C89.6429 45.012 89.8789 45.076 90.2149 45.076H91.0189V46H90.0349C89.4269 46 88.9709 45.86 88.6669 45.58C88.3629 45.3 88.2109 44.84 88.2109 44.2V40.324H87.3589V39.424H88.2109V37.768H89.3029V39.424H91.0189V40.324H89.3029ZM98.174 39.424V46H97.082V45.028C96.874 45.364 96.582 45.628 96.206 45.82C95.838 46.004 95.43 46.096 94.982 46.096C94.47 46.096 94.01 45.992 93.602 45.784C93.194 45.568 92.87 45.248 92.63 44.824C92.398 44.4 92.282 43.884 92.282 43.276V39.424H93.362V43.132C93.362 43.78 93.526 44.28 93.854 44.632C94.182 44.976 94.63 45.148 95.198 45.148C95.782 45.148 96.242 44.968 96.578 44.608C96.914 44.248 97.082 43.724 97.082 43.036V39.424H98.174Z" fill="black"/>
</svg>
