<svg width="306" height="54" viewBox="0 0 306 54" fill="none" xmlns="http://www.w3.org/2000/svg">
<path d="M5.46 13L2.016 9.184V13H0.924V4.636H2.016V8.512L5.472 4.636H6.852L3.06 8.824L6.888 13H5.46ZM14.1076 9.46C14.1076 9.668 14.0956 9.888 14.0716 10.12H8.81559C8.85559 10.768 9.07559 11.276 9.47559 11.644C9.88359 12.004 10.3756 12.184 10.9516 12.184C11.4236 12.184 11.8156 12.076 12.1276 11.86C12.4476 11.636 12.6716 11.34 12.7996 10.972H13.9756C13.7996 11.604 13.4476 12.12 12.9196 12.52C12.3916 12.912 11.7356 13.108 10.9516 13.108C10.3276 13.108 9.76759 12.968 9.27159 12.688C8.78359 12.408 8.39959 12.012 8.11959 11.5C7.83959 10.98 7.69959 10.38 7.69959 9.7C7.69959 9.02 7.83559 8.424 8.10759 7.912C8.37959 7.4 8.75959 7.008 9.24759 6.736C9.74359 6.456 10.3116 6.316 10.9516 6.316C11.5756 6.316 12.1276 6.452 12.6076 6.724C13.0876 6.996 13.4556 7.372 13.7116 7.852C13.9756 8.324 14.1076 8.86 14.1076 9.46ZM12.9796 9.232C12.9796 8.816 12.8876 8.46 12.7036 8.164C12.5196 7.86 12.2676 7.632 11.9476 7.48C11.6356 7.32 11.2876 7.24 10.9036 7.24C10.3516 7.24 9.87959 7.416 9.48759 7.768C9.10359 8.12 8.88359 8.608 8.82759 9.232H12.9796ZM16.641 7.648C16.865 7.256 17.193 6.936 17.625 6.688C18.057 6.44 18.549 6.316 19.101 6.316C19.693 6.316 20.225 6.456 20.697 6.736C21.169 7.016 21.541 7.412 21.813 7.924C22.085 8.428 22.221 9.016 22.221 9.688C22.221 10.352 22.085 10.944 21.813 11.464C21.541 11.984 21.165 12.388 20.685 12.676C20.213 12.964 19.685 13.108 19.101 13.108C18.533 13.108 18.033 12.984 17.601 12.736C17.177 12.488 16.857 12.172 16.641 11.788V13H15.549V4.12H16.641V7.648ZM21.105 9.688C21.105 9.192 21.005 8.76 20.805 8.392C20.605 8.024 20.333 7.744 19.989 7.552C19.653 7.36 19.281 7.264 18.873 7.264C18.473 7.264 18.101 7.364 17.757 7.564C17.421 7.756 17.149 8.04 16.941 8.416C16.741 8.784 16.641 9.212 16.641 9.7C16.641 10.196 16.741 10.632 16.941 11.008C17.149 11.376 17.421 11.66 17.757 11.86C18.101 12.052 18.473 12.148 18.873 12.148C19.281 12.148 19.653 12.052 19.989 11.86C20.333 11.66 20.605 11.376 20.805 11.008C21.005 10.632 21.105 10.192 21.105 9.688ZM23.2504 9.688C23.2504 9.016 23.3864 8.428 23.6584 7.924C23.9304 7.412 24.3024 7.016 24.7744 6.736C25.2544 6.456 25.7864 6.316 26.3704 6.316C26.9464 6.316 27.4464 6.44 27.8704 6.688C28.2944 6.936 28.6104 7.248 28.8184 7.624V6.424H29.9224V13H28.8184V11.776C28.6024 12.16 28.2784 12.48 27.8464 12.736C27.4224 12.984 26.9264 13.108 26.3584 13.108C25.7744 13.108 25.2464 12.964 24.7744 12.676C24.3024 12.388 23.9304 11.984 23.6584 11.464C23.3864 10.944 23.2504 10.352 23.2504 9.688ZM28.8184 9.7C28.8184 9.204 28.7184 8.772 28.5184 8.404C28.3184 8.036 28.0464 7.756 27.7024 7.564C27.3664 7.364 26.9944 7.264 26.5864 7.264C26.1784 7.264 25.8064 7.36 25.4704 7.552C25.1344 7.744 24.8664 8.024 24.6664 8.392C24.4664 8.76 24.3664 9.192 24.3664 9.688C24.3664 10.192 24.4664 10.632 24.6664 11.008C24.8664 11.376 25.1344 11.66 25.4704 11.86C25.8064 12.052 26.1784 12.148 26.5864 12.148C26.9944 12.148 27.3664 12.052 27.7024 11.86C28.0464 11.66 28.3184 11.376 28.5184 11.008C28.7184 10.632 28.8184 10.196 28.8184 9.7ZM32.8598 4.12V13H31.7678V4.12H32.8598ZM35.2849 5.356C35.0769 5.356 34.9009 5.284 34.7569 5.14C34.6129 4.996 34.5409 4.82 34.5409 4.612C34.5409 4.404 34.6129 4.228 34.7569 4.084C34.9009 3.94 35.0769 3.868 35.2849 3.868C35.4849 3.868 35.6529 3.94 35.7889 4.084C35.9329 4.228 36.0049 4.404 36.0049 4.612C36.0049 4.82 35.9329 4.996 35.7889 5.14C35.6529 5.284 35.4849 5.356 35.2849 5.356ZM35.8129 6.424V13H34.7209V6.424H35.8129ZM41.346 13L38.766 10.096V13H37.674V4.12H38.766V9.34L41.298 6.424H42.822L39.726 9.7L42.834 13H41.346ZM43.4418 9.688C43.4418 9.016 43.5778 8.428 43.8498 7.924C44.1218 7.412 44.4938 7.016 44.9658 6.736C45.4458 6.456 45.9778 6.316 46.5618 6.316C47.1378 6.316 47.6378 6.44 48.0618 6.688C48.4858 6.936 48.8018 7.248 49.0098 7.624V6.424H50.1138V13H49.0098V11.776C48.7938 12.16 48.4698 12.48 48.0378 12.736C47.6138 12.984 47.1178 13.108 46.5498 13.108C45.9658 13.108 45.4378 12.964 44.9658 12.676C44.4938 12.388 44.1218 11.984 43.8498 11.464C43.5778 10.944 43.4418 10.352 43.4418 9.688ZM49.0098 9.7C49.0098 9.204 48.9098 8.772 48.7098 8.404C48.5098 8.036 48.2378 7.756 47.8938 7.564C47.5578 7.364 47.1858 7.264 46.7778 7.264C46.3698 7.264 45.9978 7.36 45.6618 7.552C45.3258 7.744 45.0578 8.024 44.8578 8.392C44.6578 8.76 44.5578 9.192 44.5578 9.688C44.5578 10.192 44.6578 10.632 44.8578 11.008C45.0578 11.376 45.3258 11.66 45.6618 11.86C45.9978 12.052 46.3698 12.148 46.7778 12.148C47.1858 12.148 47.5578 12.052 47.8938 11.86C48.2378 11.66 48.5098 11.376 48.7098 11.008C48.9098 10.632 49.0098 10.196 49.0098 9.7ZM55.1632 6.304C55.9632 6.304 56.6112 6.548 57.1072 7.036C57.6032 7.516 57.8512 8.212 57.8512 9.124V13H56.7712V9.28C56.7712 8.624 56.6072 8.124 56.2792 7.78C55.9512 7.428 55.5032 7.252 54.9352 7.252C54.3592 7.252 53.8992 7.432 53.5552 7.792C53.2192 8.152 53.0512 8.676 53.0512 9.364V13H51.9592V6.424H53.0512V7.36C53.2672 7.024 53.5592 6.764 53.9272 6.58C54.3032 6.396 54.7152 6.304 55.1632 6.304ZM68.2129 9.688C68.2129 9.016 68.3489 8.428 68.6209 7.924C68.8929 7.412 69.2649 7.016 69.7369 6.736C70.2169 6.456 70.7529 6.316 71.3449 6.316C71.8569 6.316 72.3329 6.436 72.7729 6.676C73.2129 6.908 73.5489 7.216 73.7809 7.6V4.12H74.8849V13H73.7809V11.764C73.5649 12.156 73.2449 12.48 72.8209 12.736C72.3969 12.984 71.9009 13.108 71.3329 13.108C70.7489 13.108 70.2169 12.964 69.7369 12.676C69.2649 12.388 68.8929 11.984 68.6209 11.464C68.3489 10.944 68.2129 10.352 68.2129 9.688ZM73.7809 9.7C73.7809 9.204 73.6809 8.772 73.4809 8.404C73.2809 8.036 73.0089 7.756 72.6649 7.564C72.3289 7.364 71.9569 7.264 71.5489 7.264C71.1409 7.264 70.7689 7.36 70.4329 7.552C70.0969 7.744 69.8289 8.024 69.6289 8.392C69.4289 8.76 69.3289 9.192 69.3289 9.688C69.3289 10.192 69.4289 10.632 69.6289 11.008C69.8289 11.376 70.0969 11.66 70.4329 11.86C70.7689 12.052 71.1409 12.148 71.5489 12.148C71.9569 12.148 72.3289 12.052 72.6649 11.86C73.0089 11.66 73.2809 11.376 73.4809 11.008C73.6809 10.632 73.7809 10.196 73.7809 9.7ZM76.3223 9.688C76.3223 9.016 76.4583 8.428 76.7303 7.924C77.0023 7.412 77.3743 7.016 77.8463 6.736C78.3263 6.456 78.8583 6.316 79.4423 6.316C80.0183 6.316 80.5183 6.44 80.9423 6.688C81.3663 6.936 81.6823 7.248 81.8903 7.624V6.424H82.9943V13H81.8903V11.776C81.6743 12.16 81.3503 12.48 80.9183 12.736C80.4943 12.984 79.9983 13.108 79.4303 13.108C78.8463 13.108 78.3183 12.964 77.8463 12.676C77.3743 12.388 77.0023 11.984 76.7303 11.464C76.4583 10.944 76.3223 10.352 76.3223 9.688ZM81.8903 9.7C81.8903 9.204 81.7903 8.772 81.5903 8.404C81.3903 8.036 81.1183 7.756 80.7743 7.564C80.4383 7.364 80.0663 7.264 79.6583 7.264C79.2503 7.264 78.8783 7.36 78.5423 7.552C78.2063 7.744 77.9383 8.024 77.7383 8.392C77.5383 8.76 77.4383 9.192 77.4383 9.688C77.4383 10.192 77.5383 10.632 77.7383 11.008C77.9383 11.376 78.2063 11.66 78.5423 11.86C78.8783 12.052 79.2503 12.148 79.6583 12.148C80.0663 12.148 80.4383 12.052 80.7743 11.86C81.1183 11.66 81.3903 11.376 81.5903 11.008C81.7903 10.632 81.8903 10.196 81.8903 9.7ZM85.9316 7.492C86.1236 7.116 86.3956 6.824 86.7476 6.616C87.1076 6.408 87.5436 6.304 88.0556 6.304V7.432H87.7676C86.5436 7.432 85.9316 8.096 85.9316 9.424V13H84.8396V6.424H85.9316V7.492ZM89.8802 5.356C89.6722 5.356 89.4962 5.284 89.3522 5.14C89.2082 4.996 89.1362 4.82 89.1362 4.612C89.1362 4.404 89.2082 4.228 89.3522 4.084C89.4962 3.94 89.6722 3.868 89.8802 3.868C90.0802 3.868 90.2482 3.94 90.3842 4.084C90.5282 4.228 90.6002 4.404 90.6002 4.612C90.6002 4.82 90.5282 4.996 90.3842 5.14C90.2482 5.284 90.0802 5.356 89.8802 5.356ZM90.4082 6.424V13H89.3162V6.424H90.4082ZM102.347 7.636C102.563 7.26 102.883 6.948 103.307 6.7C103.739 6.444 104.239 6.316 104.807 6.316C105.391 6.316 105.919 6.456 106.391 6.736C106.871 7.016 107.247 7.412 107.519 7.924C107.791 8.428 107.927 9.016 107.927 9.688C107.927 10.352 107.791 10.944 107.519 11.464C107.247 11.984 106.871 12.388 106.391 12.676C105.919 12.964 105.391 13.108 104.807 13.108C104.247 13.108 103.751 12.984 103.319 12.736C102.895 12.48 102.571 12.164 102.347 11.788V16.12H101.255V6.424H102.347V7.636ZM106.811 9.688C106.811 9.192 106.711 8.76 106.511 8.392C106.311 8.024 106.039 7.744 105.695 7.552C105.359 7.36 104.987 7.264 104.579 7.264C104.179 7.264 103.807 7.364 103.463 7.564C103.127 7.756 102.855 8.04 102.647 8.416C102.447 8.784 102.347 9.212 102.347 9.7C102.347 10.196 102.447 10.632 102.647 11.008C102.855 11.376 103.127 11.66 103.463 11.86C103.807 12.052 104.179 12.148 104.579 12.148C104.987 12.148 105.359 12.052 105.695 11.86C106.039 11.66 106.311 11.376 106.511 11.008C106.711 10.632 106.811 10.192 106.811 9.688ZM110.457 7.492C110.649 7.116 110.921 6.824 111.273 6.616C111.633 6.408 112.069 6.304 112.581 6.304V7.432H112.293C111.069 7.432 110.457 8.096 110.457 9.424V13H109.365V6.424H110.457V7.492ZM116.709 13.108C116.093 13.108 115.533 12.968 115.029 12.688C114.533 12.408 114.141 12.012 113.853 11.5C113.573 10.98 113.433 10.38 113.433 9.7C113.433 9.028 113.577 8.436 113.865 7.924C114.161 7.404 114.561 7.008 115.065 6.736C115.569 6.456 116.133 6.316 116.757 6.316C117.381 6.316 117.945 6.456 118.449 6.736C118.953 7.008 119.349 7.4 119.637 7.912C119.933 8.424 120.081 9.02 120.081 9.7C120.081 10.38 119.929 10.98 119.625 11.5C119.329 12.012 118.925 12.408 118.413 12.688C117.901 12.968 117.333 13.108 116.709 13.108ZM116.709 12.148C117.101 12.148 117.469 12.056 117.813 11.872C118.157 11.688 118.433 11.412 118.641 11.044C118.857 10.676 118.965 10.228 118.965 9.7C118.965 9.172 118.861 8.724 118.653 8.356C118.445 7.988 118.173 7.716 117.837 7.54C117.501 7.356 117.137 7.264 116.745 7.264C116.345 7.264 115.977 7.356 115.641 7.54C115.313 7.716 115.049 7.988 114.849 8.356C114.649 8.724 114.549 9.172 114.549 9.7C114.549 10.236 114.645 10.688 114.837 11.056C115.037 11.424 115.301 11.7 115.629 11.884C115.957 12.06 116.317 12.148 116.709 12.148ZM121.109 9.688C121.109 9.016 121.245 8.428 121.517 7.924C121.789 7.412 122.161 7.016 122.633 6.736C123.113 6.456 123.649 6.316 124.241 6.316C124.753 6.316 125.229 6.436 125.669 6.676C126.109 6.908 126.445 7.216 126.677 7.6V4.12H127.781V13H126.677V11.764C126.461 12.156 126.141 12.48 125.717 12.736C125.293 12.984 124.797 13.108 124.229 13.108C123.645 13.108 123.113 12.964 122.633 12.676C122.161 12.388 121.789 11.984 121.517 11.464C121.245 10.944 121.109 10.352 121.109 9.688ZM126.677 9.7C126.677 9.204 126.577 8.772 126.377 8.404C126.177 8.036 125.905 7.756 125.561 7.564C125.225 7.364 124.853 7.264 124.445 7.264C124.037 7.264 123.665 7.36 123.329 7.552C122.993 7.744 122.725 8.024 122.525 8.392C122.325 8.76 122.225 9.192 122.225 9.688C122.225 10.192 122.325 10.632 122.525 11.008C122.725 11.376 122.993 11.66 123.329 11.86C123.665 12.052 124.037 12.148 124.445 12.148C124.853 12.148 125.225 12.052 125.561 11.86C125.905 11.66 126.177 11.376 126.377 11.008C126.577 10.632 126.677 10.196 126.677 9.7ZM135.458 6.424V13H134.366V12.028C134.158 12.364 133.866 12.628 133.49 12.82C133.122 13.004 132.714 13.096 132.266 13.096C131.754 13.096 131.294 12.992 130.886 12.784C130.478 12.568 130.154 12.248 129.914 11.824C129.682 11.4 129.566 10.884 129.566 10.276V6.424H130.646V10.132C130.646 10.78 130.81 11.28 131.138 11.632C131.466 11.976 131.914 12.148 132.482 12.148C133.066 12.148 133.526 11.968 133.862 11.608C134.198 11.248 134.366 10.724 134.366 10.036V6.424H135.458ZM140.974 13L138.394 10.096V13H137.302V4.12H138.394V9.34L140.926 6.424H142.45L139.354 9.7L142.462 13H140.974ZM145.806 13.108C145.302 13.108 144.85 13.024 144.45 12.856C144.05 12.68 143.734 12.44 143.502 12.136C143.27 11.824 143.142 11.468 143.118 11.068H144.246C144.278 11.396 144.43 11.664 144.702 11.872C144.982 12.08 145.346 12.184 145.794 12.184C146.21 12.184 146.538 12.092 146.778 11.908C147.018 11.724 147.138 11.492 147.138 11.212C147.138 10.924 147.01 10.712 146.754 10.576C146.498 10.432 146.102 10.292 145.566 10.156C145.078 10.028 144.678 9.9 144.366 9.772C144.062 9.636 143.798 9.44 143.574 9.184C143.358 8.92 143.25 8.576 143.25 8.152C143.25 7.816 143.35 7.508 143.55 7.228C143.75 6.948 144.034 6.728 144.402 6.568C144.77 6.4 145.19 6.316 145.662 6.316C146.39 6.316 146.978 6.5 147.426 6.868C147.874 7.236 148.114 7.74 148.146 8.38H147.054C147.03 8.036 146.89 7.76 146.634 7.552C146.386 7.344 146.05 7.24 145.626 7.24C145.234 7.24 144.922 7.324 144.69 7.492C144.458 7.66 144.342 7.88 144.342 8.152C144.342 8.368 144.41 8.548 144.546 8.692C144.69 8.828 144.866 8.94 145.074 9.028C145.29 9.108 145.586 9.2 145.962 9.304C146.434 9.432 146.818 9.56 147.114 9.688C147.41 9.808 147.662 9.992 147.87 10.24C148.086 10.488 148.198 10.812 148.206 11.212C148.206 11.572 148.106 11.896 147.906 12.184C147.706 12.472 147.422 12.7 147.054 12.868C146.694 13.028 146.278 13.108 145.806 13.108ZM150.311 5.356C150.103 5.356 149.927 5.284 149.783 5.14C149.639 4.996 149.567 4.82 149.567 4.612C149.567 4.404 149.639 4.228 149.783 4.084C149.927 3.94 150.103 3.868 150.311 3.868C150.511 3.868 150.679 3.94 150.815 4.084C150.959 4.228 151.031 4.404 151.031 4.612C151.031 4.82 150.959 4.996 150.815 5.14C150.679 5.284 150.511 5.356 150.311 5.356ZM150.839 6.424V13H149.747V6.424H150.839ZM162.778 7.636C162.994 7.26 163.314 6.948 163.738 6.7C164.17 6.444 164.67 6.316 165.238 6.316C165.822 6.316 166.35 6.456 166.822 6.736C167.302 7.016 167.678 7.412 167.95 7.924C168.222 8.428 168.358 9.016 168.358 9.688C168.358 10.352 168.222 10.944 167.95 11.464C167.678 11.984 167.302 12.388 166.822 12.676C166.35 12.964 165.822 13.108 165.238 13.108C164.678 13.108 164.182 12.984 163.75 12.736C163.326 12.48 163.002 12.164 162.778 11.788V16.12H161.686V6.424H162.778V7.636ZM167.242 9.688C167.242 9.192 167.142 8.76 166.942 8.392C166.742 8.024 166.47 7.744 166.126 7.552C165.79 7.36 165.418 7.264 165.01 7.264C164.61 7.264 164.238 7.364 163.894 7.564C163.558 7.756 163.286 8.04 163.078 8.416C162.878 8.784 162.778 9.212 162.778 9.7C162.778 10.196 162.878 10.632 163.078 11.008C163.286 11.376 163.558 11.66 163.894 11.86C164.238 12.052 164.61 12.148 165.01 12.148C165.418 12.148 165.79 12.052 166.126 11.86C166.47 11.66 166.742 11.376 166.942 11.008C167.142 10.632 167.242 10.192 167.242 9.688ZM169.388 9.688C169.388 9.016 169.524 8.428 169.796 7.924C170.068 7.412 170.44 7.016 170.912 6.736C171.392 6.456 171.924 6.316 172.508 6.316C173.084 6.316 173.584 6.44 174.008 6.688C174.432 6.936 174.748 7.248 174.956 7.624V6.424H176.06V13H174.956V11.776C174.74 12.16 174.416 12.48 173.984 12.736C173.56 12.984 173.064 13.108 172.496 13.108C171.912 13.108 171.384 12.964 170.912 12.676C170.44 12.388 170.068 11.984 169.796 11.464C169.524 10.944 169.388 10.352 169.388 9.688ZM174.956 9.7C174.956 9.204 174.856 8.772 174.656 8.404C174.456 8.036 174.184 7.756 173.84 7.564C173.504 7.364 173.132 7.264 172.724 7.264C172.316 7.264 171.944 7.36 171.608 7.552C171.272 7.744 171.004 8.024 170.804 8.392C170.604 8.76 170.504 9.192 170.504 9.688C170.504 10.192 170.604 10.632 170.804 11.008C171.004 11.376 171.272 11.66 171.608 11.86C171.944 12.052 172.316 12.148 172.724 12.148C173.132 12.148 173.504 12.052 173.84 11.86C174.184 11.66 174.456 11.376 174.656 11.008C174.856 10.632 174.956 10.196 174.956 9.7ZM180.233 13.108C179.729 13.108 179.277 13.024 178.877 12.856C178.477 12.68 178.161 12.44 177.929 12.136C177.697 11.824 177.569 11.468 177.545 11.068H178.673C178.705 11.396 178.857 11.664 179.129 11.872C179.409 12.08 179.773 12.184 180.221 12.184C180.637 12.184 180.965 12.092 181.205 11.908C181.445 11.724 181.565 11.492 181.565 11.212C181.565 10.924 181.437 10.712 181.181 10.576C180.925 10.432 180.529 10.292 179.993 10.156C179.505 10.028 179.105 9.9 178.793 9.772C178.489 9.636 178.225 9.44 178.001 9.184C177.785 8.92 177.677 8.576 177.677 8.152C177.677 7.816 177.777 7.508 177.977 7.228C178.177 6.948 178.461 6.728 178.829 6.568C179.197 6.4 179.617 6.316 180.089 6.316C180.817 6.316 181.405 6.5 181.853 6.868C182.301 7.236 182.541 7.74 182.573 8.38H181.481C181.457 8.036 181.317 7.76 181.061 7.552C180.813 7.344 180.477 7.24 180.053 7.24C179.661 7.24 179.349 7.324 179.117 7.492C178.885 7.66 178.769 7.88 178.769 8.152C178.769 8.368 178.837 8.548 178.973 8.692C179.117 8.828 179.293 8.94 179.501 9.028C179.717 9.108 180.013 9.2 180.389 9.304C180.861 9.432 181.245 9.56 181.541 9.688C181.837 9.808 182.089 9.992 182.297 10.24C182.513 10.488 182.625 10.812 182.633 11.212C182.633 11.572 182.533 11.896 182.333 12.184C182.133 12.472 181.849 12.7 181.481 12.868C181.121 13.028 180.705 13.108 180.233 13.108ZM183.767 9.688C183.767 9.016 183.903 8.428 184.175 7.924C184.447 7.412 184.819 7.016 185.291 6.736C185.771 6.456 186.303 6.316 186.887 6.316C187.463 6.316 187.963 6.44 188.387 6.688C188.811 6.936 189.127 7.248 189.335 7.624V6.424H190.439V13H189.335V11.776C189.119 12.16 188.795 12.48 188.363 12.736C187.939 12.984 187.443 13.108 186.875 13.108C186.291 13.108 185.763 12.964 185.291 12.676C184.819 12.388 184.447 11.984 184.175 11.464C183.903 10.944 183.767 10.352 183.767 9.688ZM189.335 9.7C189.335 9.204 189.235 8.772 189.035 8.404C188.835 8.036 188.563 7.756 188.219 7.564C187.883 7.364 187.511 7.264 187.103 7.264C186.695 7.264 186.323 7.36 185.987 7.552C185.651 7.744 185.383 8.024 185.183 8.392C184.983 8.76 184.883 9.192 184.883 9.688C184.883 10.192 184.983 10.632 185.183 11.008C185.383 11.376 185.651 11.66 185.987 11.86C186.323 12.052 186.695 12.148 187.103 12.148C187.511 12.148 187.883 12.052 188.219 11.86C188.563 11.66 188.835 11.376 189.035 11.008C189.235 10.632 189.335 10.196 189.335 9.7ZM195.488 6.304C196.288 6.304 196.936 6.548 197.432 7.036C197.928 7.516 198.176 8.212 198.176 9.124V13H197.096V9.28C197.096 8.624 196.932 8.124 196.604 7.78C196.276 7.428 195.828 7.252 195.26 7.252C194.684 7.252 194.224 7.432 193.88 7.792C193.544 8.152 193.376 8.676 193.376 9.364V13H192.284V6.424H193.376V7.36C193.592 7.024 193.884 6.764 194.252 6.58C194.628 6.396 195.04 6.304 195.488 6.304ZM202.672 6.316C203.24 6.316 203.736 6.44 204.16 6.688C204.592 6.936 204.912 7.248 205.12 7.624V6.424H206.224V13.144C206.224 13.744 206.096 14.276 205.84 14.74C205.584 15.212 205.216 15.58 204.736 15.844C204.264 16.108 203.712 16.24 203.08 16.24C202.216 16.24 201.496 16.036 200.92 15.628C200.344 15.22 200.004 14.664 199.9 13.96H200.98C201.1 14.36 201.348 14.68 201.724 14.92C202.1 15.168 202.552 15.292 203.08 15.292C203.68 15.292 204.168 15.104 204.544 14.728C204.928 14.352 205.12 13.824 205.12 13.144V11.764C204.904 12.148 204.584 12.468 204.16 12.724C203.736 12.98 203.24 13.108 202.672 13.108C202.088 13.108 201.556 12.964 201.076 12.676C200.604 12.388 200.232 11.984 199.96 11.464C199.688 10.944 199.552 10.352 199.552 9.688C199.552 9.016 199.688 8.428 199.96 7.924C200.232 7.412 200.604 7.016 201.076 6.736C201.556 6.456 202.088 6.316 202.672 6.316ZM205.12 9.7C205.12 9.204 205.02 8.772 204.82 8.404C204.62 8.036 204.348 7.756 204.004 7.564C203.668 7.364 203.296 7.264 202.888 7.264C202.48 7.264 202.108 7.36 201.772 7.552C201.436 7.744 201.168 8.024 200.968 8.392C200.768 8.76 200.668 9.192 200.668 9.688C200.668 10.192 200.768 10.632 200.968 11.008C201.168 11.376 201.436 11.66 201.772 11.86C202.108 12.052 202.48 12.148 202.888 12.148C203.296 12.148 203.668 12.052 204.004 11.86C204.348 11.66 204.62 11.376 204.82 11.008C205.02 10.632 205.12 10.196 205.12 9.7ZM207.661 9.688C207.661 9.016 207.797 8.428 208.069 7.924C208.341 7.412 208.713 7.016 209.185 6.736C209.665 6.456 210.197 6.316 210.781 6.316C211.357 6.316 211.857 6.44 212.281 6.688C212.705 6.936 213.021 7.248 213.229 7.624V6.424H214.333V13H213.229V11.776C213.013 12.16 212.689 12.48 212.257 12.736C211.833 12.984 211.337 13.108 210.769 13.108C210.185 13.108 209.657 12.964 209.185 12.676C208.713 12.388 208.341 11.984 208.069 11.464C207.797 10.944 207.661 10.352 207.661 9.688ZM213.229 9.7C213.229 9.204 213.129 8.772 212.929 8.404C212.729 8.036 212.457 7.756 212.113 7.564C211.777 7.364 211.405 7.264 210.997 7.264C210.589 7.264 210.217 7.36 209.881 7.552C209.545 7.744 209.277 8.024 209.077 8.392C208.877 8.76 208.777 9.192 208.777 9.688C208.777 10.192 208.877 10.632 209.077 11.008C209.277 11.376 209.545 11.66 209.881 11.86C210.217 12.052 210.589 12.148 210.997 12.148C211.405 12.148 211.777 12.052 212.113 11.86C212.457 11.66 212.729 11.376 212.929 11.008C213.129 10.632 213.229 10.196 213.229 9.7ZM219.383 6.304C220.183 6.304 220.831 6.548 221.327 7.036C221.823 7.516 222.071 8.212 222.071 9.124V13H220.991V9.28C220.991 8.624 220.827 8.124 220.499 7.78C220.171 7.428 219.723 7.252 219.155 7.252C218.579 7.252 218.119 7.432 217.775 7.792C217.439 8.152 217.271 8.676 217.271 9.364V13H216.179V6.424H217.271V7.36C217.487 7.024 217.779 6.764 218.147 6.58C218.523 6.396 218.935 6.304 219.383 6.304ZM238.504 6.424L234.544 16.096H233.416L234.712 12.928L232.06 6.424H233.272L235.336 11.752L237.376 6.424H238.504ZM239.194 9.688C239.194 9.016 239.33 8.428 239.602 7.924C239.874 7.412 240.246 7.016 240.718 6.736C241.198 6.456 241.73 6.316 242.314 6.316C242.89 6.316 243.39 6.44 243.814 6.688C244.238 6.936 244.554 7.248 244.762 7.624V6.424H245.866V13H244.762V11.776C244.546 12.16 244.222 12.48 243.79 12.736C243.366 12.984 242.87 13.108 242.302 13.108C241.718 13.108 241.19 12.964 240.718 12.676C240.246 12.388 239.874 11.984 239.602 11.464C239.33 10.944 239.194 10.352 239.194 9.688ZM244.762 9.7C244.762 9.204 244.662 8.772 244.462 8.404C244.262 8.036 243.99 7.756 243.646 7.564C243.31 7.364 242.938 7.264 242.53 7.264C242.122 7.264 241.75 7.36 241.414 7.552C241.078 7.744 240.81 8.024 240.61 8.392C240.41 8.76 240.31 9.192 240.31 9.688C240.31 10.192 240.41 10.632 240.61 11.008C240.81 11.376 241.078 11.66 241.414 11.86C241.75 12.052 242.122 12.148 242.53 12.148C242.938 12.148 243.31 12.052 243.646 11.86C243.99 11.66 244.262 11.376 244.462 11.008C244.662 10.632 244.762 10.196 244.762 9.7ZM248.276 5.356C248.068 5.356 247.892 5.284 247.748 5.14C247.604 4.996 247.532 4.82 247.532 4.612C247.532 4.404 247.604 4.228 247.748 4.084C247.892 3.94 248.068 3.868 248.276 3.868C248.476 3.868 248.644 3.94 248.78 4.084C248.924 4.228 248.996 4.404 248.996 4.612C248.996 4.82 248.924 4.996 248.78 5.14C248.644 5.284 248.476 5.356 248.276 5.356ZM248.804 6.424V13H247.712V6.424H248.804ZM251.997 7.324V11.2C251.997 11.52 252.065 11.748 252.201 11.884C252.337 12.012 252.573 12.076 252.909 12.076H253.713V13H252.729C252.121 13 251.665 12.86 251.361 12.58C251.057 12.3 250.905 11.84 250.905 11.2V7.324H250.053V6.424H250.905V4.768H251.997V6.424H253.713V7.324H251.997ZM260.868 6.424V13H259.776V12.028C259.568 12.364 259.276 12.628 258.9 12.82C258.532 13.004 258.124 13.096 257.676 13.096C257.164 13.096 256.704 12.992 256.296 12.784C255.888 12.568 255.564 12.248 255.324 11.824C255.092 11.4 254.976 10.884 254.976 10.276V6.424H256.056V10.132C256.056 10.78 256.22 11.28 256.548 11.632C256.876 11.976 257.324 12.148 257.892 12.148C258.476 12.148 258.936 11.968 259.272 11.608C259.608 11.248 259.776 10.724 259.776 10.036V6.424H260.868ZM275.369 13L272.789 10.096V13H271.697V4.12H272.789V9.34L275.321 6.424H276.845L273.749 9.7L276.857 13H275.369ZM283.873 9.46C283.873 9.668 283.861 9.888 283.837 10.12H278.581C278.621 10.768 278.841 11.276 279.241 11.644C279.649 12.004 280.141 12.184 280.717 12.184C281.189 12.184 281.581 12.076 281.893 11.86C282.213 11.636 282.437 11.34 282.565 10.972H283.741C283.565 11.604 283.213 12.12 282.685 12.52C282.157 12.912 281.501 13.108 280.717 13.108C280.093 13.108 279.533 12.968 279.037 12.688C278.549 12.408 278.165 12.012 277.885 11.5C277.605 10.98 277.465 10.38 277.465 9.7C277.465 9.02 277.601 8.424 277.873 7.912C278.145 7.4 278.525 7.008 279.013 6.736C279.509 6.456 280.077 6.316 280.717 6.316C281.341 6.316 281.893 6.452 282.373 6.724C282.853 6.996 283.221 7.372 283.477 7.852C283.741 8.324 283.873 8.86 283.873 9.46ZM282.745 9.232C282.745 8.816 282.653 8.46 282.469 8.164C282.285 7.86 282.033 7.632 281.713 7.48C281.401 7.32 281.053 7.24 280.669 7.24C280.117 7.24 279.645 7.416 279.253 7.768C278.869 8.12 278.649 8.608 278.593 9.232H282.745ZM286.647 7.324V11.2C286.647 11.52 286.715 11.748 286.851 11.884C286.987 12.012 287.223 12.076 287.559 12.076H288.363V13H287.379C286.771 13 286.315 12.86 286.011 12.58C285.707 12.3 285.555 11.84 285.555 11.2V7.324H284.703V6.424H285.555V4.768H286.647V6.424H288.363V7.324H286.647ZM290.25 5.356C290.042 5.356 289.866 5.284 289.722 5.14C289.578 4.996 289.506 4.82 289.506 4.612C289.506 4.404 289.578 4.228 289.722 4.084C289.866 3.94 290.042 3.868 290.25 3.868C290.45 3.868 290.618 3.94 290.754 4.084C290.898 4.228 290.97 4.404 290.97 4.612C290.97 4.82 290.898 4.996 290.754 5.14C290.618 5.284 290.45 5.356 290.25 5.356ZM290.778 6.424V13H289.686V6.424H290.778ZM296.311 13L293.731 10.096V13H292.639V4.12H293.731V9.34L296.263 6.424H297.787L294.691 9.7L297.799 13H296.311ZM298.407 9.688C298.407 9.016 298.543 8.428 298.815 7.924C299.087 7.412 299.459 7.016 299.931 6.736C300.411 6.456 300.943 6.316 301.527 6.316C302.103 6.316 302.603 6.44 303.027 6.688C303.451 6.936 303.767 7.248 303.975 7.624V6.424H305.079V13H303.975V11.776C303.759 12.16 303.435 12.48 303.003 12.736C302.579 12.984 302.083 13.108 301.515 13.108C300.931 13.108 300.403 12.964 299.931 12.676C299.459 12.388 299.087 11.984 298.815 11.464C298.543 10.944 298.407 10.352 298.407 9.688ZM303.975 9.7C303.975 9.204 303.875 8.772 303.675 8.404C303.475 8.036 303.203 7.756 302.859 7.564C302.523 7.364 302.151 7.264 301.743 7.264C301.335 7.264 300.963 7.36 300.627 7.552C300.291 7.744 300.023 8.024 299.823 8.392C299.623 8.76 299.523 9.192 299.523 9.688C299.523 10.192 299.623 10.632 299.823 11.008C300.023 11.376 300.291 11.66 300.627 11.86C300.963 12.052 301.335 12.148 301.743 12.148C302.151 12.148 302.523 12.052 302.859 11.86C303.203 11.66 303.475 11.376 303.675 11.008C303.875 10.632 303.975 10.196 303.975 9.7ZM8.832 24.304C9.344 24.304 9.8 24.412 10.2 24.628C10.6 24.836 10.916 25.152 11.148 25.576C11.38 26 11.496 26.516 11.496 27.124V31H10.416V27.28C10.416 26.624 10.252 26.124 9.924 25.78C9.604 25.428 9.168 25.252 8.616 25.252C8.048 25.252 7.596 25.436 7.26 25.804C6.924 26.164 6.756 26.688 6.756 27.376V31H5.676V27.28C5.676 26.624 5.512 26.124 5.184 25.78C4.864 25.428 4.428 25.252 3.876 25.252C3.308 25.252 2.856 25.436 2.52 25.804C2.184 26.164 2.016 26.688 2.016 27.376V31H0.924V24.424H2.016V25.372C2.232 25.028 2.52 24.764 2.88 24.58C3.248 24.396 3.652 24.304 4.092 24.304C4.644 24.304 5.132 24.428 5.556 24.676C5.98 24.924 6.296 25.288 6.504 25.768C6.688 25.304 6.992 24.944 7.416 24.688C7.84 24.432 8.312 24.304 8.832 24.304ZM12.8793 27.688C12.8793 27.016 13.0153 26.428 13.2873 25.924C13.5593 25.412 13.9313 25.016 14.4033 24.736C14.8833 24.456 15.4153 24.316 15.9993 24.316C16.5753 24.316 17.0753 24.44 17.4993 24.688C17.9233 24.936 18.2393 25.248 18.4473 25.624V24.424H19.5513V31H18.4473V29.776C18.2313 30.16 17.9073 30.48 17.4753 30.736C17.0513 30.984 16.5553 31.108 15.9873 31.108C15.4033 31.108 14.8753 30.964 14.4033 30.676C13.9313 30.388 13.5593 29.984 13.2873 29.464C13.0153 28.944 12.8793 28.352 12.8793 27.688ZM18.4473 27.7C18.4473 27.204 18.3473 26.772 18.1473 26.404C17.9473 26.036 17.6753 25.756 17.3313 25.564C16.9953 25.364 16.6233 25.264 16.2153 25.264C15.8073 25.264 15.4353 25.36 15.0993 25.552C14.7633 25.744 14.4953 26.024 14.2953 26.392C14.0953 26.76 13.9953 27.192 13.9953 27.688C13.9953 28.192 14.0953 28.632 14.2953 29.008C14.4953 29.376 14.7633 29.66 15.0993 29.86C15.4353 30.052 15.8073 30.148 16.2153 30.148C16.6233 30.148 16.9953 30.052 17.3313 29.86C17.6753 29.66 17.9473 29.376 18.1473 29.008C18.3473 28.632 18.4473 28.196 18.4473 27.7ZM22.7287 25.324V29.2C22.7287 29.52 22.7967 29.748 22.9327 29.884C23.0687 30.012 23.3047 30.076 23.6407 30.076H24.4447V31H23.4607C22.8527 31 22.3967 30.86 22.0927 30.58C21.7887 30.3 21.6367 29.84 21.6367 29.2V25.324H20.7847V24.424H21.6367V22.768H22.7287V24.424H24.4447V25.324H22.7287ZM31.7678 27.46C31.7678 27.668 31.7558 27.888 31.7318 28.12H26.4758C26.5158 28.768 26.7358 29.276 27.1358 29.644C27.5438 30.004 28.0358 30.184 28.6118 30.184C29.0838 30.184 29.4758 30.076 29.7878 29.86C30.1078 29.636 30.3318 29.34 30.4598 28.972H31.6358C31.4598 29.604 31.1078 30.12 30.5798 30.52C30.0518 30.912 29.3958 31.108 28.6118 31.108C27.9878 31.108 27.4278 30.968 26.9318 30.688C26.4438 30.408 26.0598 30.012 25.7798 29.5C25.4998 28.98 25.3598 28.38 25.3598 27.7C25.3598 27.02 25.4958 26.424 25.7678 25.912C26.0398 25.4 26.4198 25.008 26.9078 24.736C27.4038 24.456 27.9718 24.316 28.6118 24.316C29.2358 24.316 29.7878 24.452 30.2678 24.724C30.7478 24.996 31.1158 25.372 31.3718 25.852C31.6358 26.324 31.7678 26.86 31.7678 27.46ZM30.6398 27.232C30.6398 26.816 30.5478 26.46 30.3638 26.164C30.1798 25.86 29.9278 25.632 29.6078 25.48C29.2958 25.32 28.9478 25.24 28.5638 25.24C28.0118 25.24 27.5398 25.416 27.1478 25.768C26.7638 26.12 26.5438 26.608 26.4878 27.232H30.6398ZM34.3012 25.492C34.4932 25.116 34.7652 24.824 35.1172 24.616C35.4772 24.408 35.9132 24.304 36.4252 24.304V25.432H36.1372C34.9132 25.432 34.3012 26.096 34.3012 27.424V31H33.2092V24.424H34.3012V25.492ZM38.2497 23.356C38.0417 23.356 37.8657 23.284 37.7217 23.14C37.5777 22.996 37.5057 22.82 37.5057 22.612C37.5057 22.404 37.5777 22.228 37.7217 22.084C37.8657 21.94 38.0417 21.868 38.2497 21.868C38.4497 21.868 38.6177 21.94 38.7537 22.084C38.8977 22.228 38.9697 22.404 38.9697 22.612C38.9697 22.82 38.8977 22.996 38.7537 23.14C38.6177 23.284 38.4497 23.356 38.2497 23.356ZM38.7777 24.424V31H37.6857V24.424H38.7777ZM56.3394 22.12V31H55.2474V22.12H56.3394ZM64.2006 27.46C64.2006 27.668 64.1886 27.888 64.1646 28.12H58.9086C58.9486 28.768 59.1686 29.276 59.5686 29.644C59.9766 30.004 60.4686 30.184 61.0446 30.184C61.5166 30.184 61.9086 30.076 62.2206 29.86C62.5406 29.636 62.7646 29.34 62.8926 28.972H64.0686C63.8926 29.604 63.5406 30.12 63.0126 30.52C62.4846 30.912 61.8286 31.108 61.0446 31.108C60.4206 31.108 59.8606 30.968 59.3646 30.688C58.8766 30.408 58.4926 30.012 58.2126 29.5C57.9326 28.98 57.7926 28.38 57.7926 27.7C57.7926 27.02 57.9286 26.424 58.2006 25.912C58.4726 25.4 58.8526 25.008 59.3406 24.736C59.8366 24.456 60.4046 24.316 61.0446 24.316C61.6686 24.316 62.2206 24.452 62.7006 24.724C63.1806 24.996 63.5486 25.372 63.8046 25.852C64.0686 26.324 64.2006 26.86 64.2006 27.46ZM63.0726 27.232C63.0726 26.816 62.9806 26.46 62.7966 26.164C62.6126 25.86 62.3606 25.632 62.0406 25.48C61.7286 25.32 61.3806 25.24 60.9966 25.24C60.4446 25.24 59.9726 25.416 59.5806 25.768C59.1966 26.12 58.9766 26.608 58.9206 27.232H63.0726ZM68.846 24.304C69.646 24.304 70.294 24.548 70.79 25.036C71.286 25.516 71.534 26.212 71.534 27.124V31H70.454V27.28C70.454 26.624 70.29 26.124 69.962 25.78C69.634 25.428 69.186 25.252 68.618 25.252C68.042 25.252 67.582 25.432 67.238 25.792C66.902 26.152 66.734 26.676 66.734 27.364V31H65.642V24.424H66.734V25.36C66.95 25.024 67.242 24.764 67.61 24.58C67.986 24.396 68.398 24.304 68.846 24.304ZM78.9818 24.424L75.0218 34.096H73.8938L75.1898 30.928L72.5378 24.424H73.7498L75.8138 29.752L77.8538 24.424H78.9818ZM79.6715 27.688C79.6715 27.016 79.8075 26.428 80.0795 25.924C80.3515 25.412 80.7235 25.016 81.1955 24.736C81.6755 24.456 82.2075 24.316 82.7915 24.316C83.3675 24.316 83.8675 24.44 84.2915 24.688C84.7155 24.936 85.0315 25.248 85.2395 25.624V24.424H86.3435V31H85.2395V29.776C85.0235 30.16 84.6995 30.48 84.2675 30.736C83.8435 30.984 83.3475 31.108 82.7795 31.108C82.1955 31.108 81.6675 30.964 81.1955 30.676C80.7235 30.388 80.3515 29.984 80.0795 29.464C79.8075 28.944 79.6715 28.352 79.6715 27.688ZM85.2395 27.7C85.2395 27.204 85.1395 26.772 84.9395 26.404C84.7395 26.036 84.4675 25.756 84.1235 25.564C83.7875 25.364 83.4155 25.264 83.0075 25.264C82.5995 25.264 82.2275 25.36 81.8915 25.552C81.5555 25.744 81.2875 26.024 81.0875 26.392C80.8875 26.76 80.7875 27.192 80.7875 27.688C80.7875 28.192 80.8875 28.632 81.0875 29.008C81.2875 29.376 81.5555 29.66 81.8915 29.86C82.2275 30.052 82.5995 30.148 83.0075 30.148C83.4155 30.148 83.7875 30.052 84.1235 29.86C84.4675 29.66 84.7395 29.376 84.9395 29.008C85.1395 28.632 85.2395 28.196 85.2395 27.7ZM89.2808 25.636C89.4968 25.26 89.8168 24.948 90.2408 24.7C90.6728 24.444 91.1728 24.316 91.7408 24.316C92.3248 24.316 92.8528 24.456 93.3248 24.736C93.8048 25.016 94.1808 25.412 94.4528 25.924C94.7248 26.428 94.8608 27.016 94.8608 27.688C94.8608 28.352 94.7248 28.944 94.4528 29.464C94.1808 29.984 93.8048 30.388 93.3248 30.676C92.8528 30.964 92.3248 31.108 91.7408 31.108C91.1808 31.108 90.6848 30.984 90.2528 30.736C89.8288 30.48 89.5048 30.164 89.2808 29.788V34.12H88.1888V24.424H89.2808V25.636ZM93.7448 27.688C93.7448 27.192 93.6448 26.76 93.4448 26.392C93.2448 26.024 92.9728 25.744 92.6288 25.552C92.2928 25.36 91.9208 25.264 91.5128 25.264C91.1128 25.264 90.7408 25.364 90.3968 25.564C90.0608 25.756 89.7888 26.04 89.5808 26.416C89.3808 26.784 89.2808 27.212 89.2808 27.7C89.2808 28.196 89.3808 28.632 89.5808 29.008C89.7888 29.376 90.0608 29.66 90.3968 29.86C90.7408 30.052 91.1128 30.148 91.5128 30.148C91.9208 30.148 92.2928 30.052 92.6288 29.86C92.9728 29.66 93.2448 29.376 93.4448 29.008C93.6448 28.632 93.7448 28.192 93.7448 27.688ZM110.499 27.688C110.499 27.016 110.635 26.428 110.907 25.924C111.179 25.412 111.551 25.016 112.023 24.736C112.503 24.456 113.039 24.316 113.631 24.316C114.143 24.316 114.619 24.436 115.059 24.676C115.499 24.908 115.835 25.216 116.067 25.6V22.12H117.171V31H116.067V29.764C115.851 30.156 115.531 30.48 115.107 30.736C114.683 30.984 114.187 31.108 113.619 31.108C113.035 31.108 112.503 30.964 112.023 30.676C111.551 30.388 111.179 29.984 110.907 29.464C110.635 28.944 110.499 28.352 110.499 27.688ZM116.067 27.7C116.067 27.204 115.967 26.772 115.767 26.404C115.567 26.036 115.295 25.756 114.951 25.564C114.615 25.364 114.243 25.264 113.835 25.264C113.427 25.264 113.055 25.36 112.719 25.552C112.383 25.744 112.115 26.024 111.915 26.392C111.715 26.76 111.615 27.192 111.615 27.688C111.615 28.192 111.715 28.632 111.915 29.008C112.115 29.376 112.383 29.66 112.719 29.86C113.055 30.052 113.427 30.148 113.835 30.148C114.243 30.148 114.615 30.052 114.951 29.86C115.295 29.66 115.567 29.376 115.767 29.008C115.967 28.632 116.067 28.196 116.067 27.7ZM118.608 27.688C118.608 27.016 118.744 26.428 119.016 25.924C119.288 25.412 119.66 25.016 120.132 24.736C120.612 24.456 121.144 24.316 121.728 24.316C122.304 24.316 122.804 24.44 123.228 24.688C123.652 24.936 123.968 25.248 124.176 25.624V24.424H125.28V31H124.176V29.776C123.96 30.16 123.636 30.48 123.204 30.736C122.78 30.984 122.284 31.108 121.716 31.108C121.132 31.108 120.604 30.964 120.132 30.676C119.66 30.388 119.288 29.984 119.016 29.464C118.744 28.944 118.608 28.352 118.608 27.688ZM124.176 27.7C124.176 27.204 124.076 26.772 123.876 26.404C123.676 26.036 123.404 25.756 123.06 25.564C122.724 25.364 122.352 25.264 121.944 25.264C121.536 25.264 121.164 25.36 120.828 25.552C120.492 25.744 120.224 26.024 120.024 26.392C119.824 26.76 119.724 27.192 119.724 27.688C119.724 28.192 119.824 28.632 120.024 29.008C120.224 29.376 120.492 29.66 120.828 29.86C121.164 30.052 121.536 30.148 121.944 30.148C122.352 30.148 122.724 30.052 123.06 29.86C123.404 29.66 123.676 29.376 123.876 29.008C124.076 28.632 124.176 28.196 124.176 27.7ZM130.33 24.304C131.13 24.304 131.778 24.548 132.274 25.036C132.77 25.516 133.018 26.212 133.018 27.124V31H131.938V27.28C131.938 26.624 131.774 26.124 131.446 25.78C131.118 25.428 130.67 25.252 130.102 25.252C129.526 25.252 129.066 25.432 128.722 25.792C128.386 26.152 128.218 26.676 128.218 27.364V31H127.126V24.424H128.218V25.36C128.434 25.024 128.726 24.764 129.094 24.58C129.47 24.396 129.882 24.304 130.33 24.304ZM157.318 24.304C157.83 24.304 158.286 24.412 158.686 24.628C159.086 24.836 159.402 25.152 159.634 25.576C159.866 26 159.982 26.516 159.982 27.124V31H158.902V27.28C158.902 26.624 158.738 26.124 158.41 25.78C158.09 25.428 157.654 25.252 157.102 25.252C156.534 25.252 156.082 25.436 155.746 25.804C155.41 26.164 155.242 26.688 155.242 27.376V31H154.162V27.28C154.162 26.624 153.998 26.124 153.67 25.78C153.35 25.428 152.914 25.252 152.362 25.252C151.794 25.252 151.342 25.436 151.006 25.804C150.67 26.164 150.502 26.688 150.502 27.376V31H149.41V24.424H150.502V25.372C150.718 25.028 151.006 24.764 151.366 24.58C151.734 24.396 152.138 24.304 152.578 24.304C153.13 24.304 153.618 24.428 154.042 24.676C154.466 24.924 154.782 25.288 154.99 25.768C155.174 25.304 155.478 24.944 155.902 24.688C156.326 24.432 156.798 24.304 157.318 24.304ZM167.773 27.46C167.773 27.668 167.761 27.888 167.737 28.12H162.481C162.521 28.768 162.741 29.276 163.141 29.644C163.549 30.004 164.041 30.184 164.617 30.184C165.089 30.184 165.481 30.076 165.793 29.86C166.113 29.636 166.337 29.34 166.465 28.972H167.641C167.465 29.604 167.113 30.12 166.585 30.52C166.057 30.912 165.401 31.108 164.617 31.108C163.993 31.108 163.433 30.968 162.937 30.688C162.449 30.408 162.065 30.012 161.785 29.5C161.505 28.98 161.365 28.38 161.365 27.7C161.365 27.02 161.501 26.424 161.773 25.912C162.045 25.4 162.425 25.008 162.913 24.736C163.409 24.456 163.977 24.316 164.617 24.316C165.241 24.316 165.793 24.452 166.273 24.724C166.753 24.996 167.121 25.372 167.377 25.852C167.641 26.324 167.773 26.86 167.773 27.46ZM166.645 27.232C166.645 26.816 166.553 26.46 166.369 26.164C166.185 25.86 165.933 25.632 165.613 25.48C165.301 25.32 164.953 25.24 164.569 25.24C164.017 25.24 163.545 25.416 163.153 25.768C162.769 26.12 162.549 26.608 162.493 27.232H166.645ZM172.419 24.304C173.219 24.304 173.867 24.548 174.363 25.036C174.859 25.516 175.107 26.212 175.107 27.124V31H174.027V27.28C174.027 26.624 173.863 26.124 173.535 25.78C173.207 25.428 172.759 25.252 172.191 25.252C171.615 25.252 171.155 25.432 170.811 25.792C170.475 26.152 170.307 26.676 170.307 27.364V31H169.215V24.424H170.307V25.36C170.523 25.024 170.815 24.764 171.183 24.58C171.559 24.396 171.971 24.304 172.419 24.304ZM177.478 23.356C177.27 23.356 177.094 23.284 176.95 23.14C176.814 22.996 176.746 22.82 176.746 22.612C176.746 22.404 176.814 22.228 176.95 22.084C177.094 21.94 177.27 21.868 177.478 21.868C177.686 21.868 177.858 21.94 177.994 22.084C178.138 22.228 178.21 22.404 178.21 22.612C178.21 22.82 178.138 22.996 177.994 23.14C177.858 23.284 177.686 23.356 177.478 23.356ZM178.018 32.428C178.018 33.012 177.87 33.44 177.574 33.712C177.278 33.984 176.846 34.12 176.278 34.12H175.642V33.196H176.098C176.402 33.196 176.614 33.136 176.734 33.016C176.862 32.896 176.926 32.692 176.926 32.404V24.424H178.018V32.428ZM179.459 27.688C179.459 27.016 179.595 26.428 179.867 25.924C180.139 25.412 180.511 25.016 180.983 24.736C181.463 24.456 181.995 24.316 182.579 24.316C183.155 24.316 183.655 24.44 184.079 24.688C184.503 24.936 184.819 25.248 185.027 25.624V24.424H186.131V31H185.027V29.776C184.811 30.16 184.487 30.48 184.055 30.736C183.631 30.984 183.135 31.108 182.567 31.108C181.983 31.108 181.455 30.964 180.983 30.676C180.511 30.388 180.139 29.984 179.867 29.464C179.595 28.944 179.459 28.352 179.459 27.688ZM185.027 27.7C185.027 27.204 184.927 26.772 184.727 26.404C184.527 26.036 184.255 25.756 183.911 25.564C183.575 25.364 183.203 25.264 182.795 25.264C182.387 25.264 182.015 25.36 181.679 25.552C181.343 25.744 181.075 26.024 180.875 26.392C180.675 26.76 180.575 27.192 180.575 27.688C180.575 28.192 180.675 28.632 180.875 29.008C181.075 29.376 181.343 29.66 181.679 29.86C182.015 30.052 182.387 30.148 182.795 30.148C183.203 30.148 183.575 30.052 183.911 29.86C184.255 29.66 184.527 29.376 184.727 29.008C184.927 28.632 185.027 28.196 185.027 27.7ZM187.568 27.688C187.568 27.016 187.704 26.428 187.976 25.924C188.248 25.412 188.62 25.016 189.092 24.736C189.572 24.456 190.108 24.316 190.7 24.316C191.212 24.316 191.688 24.436 192.128 24.676C192.568 24.908 192.904 25.216 193.136 25.6V22.12H194.24V31H193.136V29.764C192.92 30.156 192.6 30.48 192.176 30.736C191.752 30.984 191.256 31.108 190.688 31.108C190.104 31.108 189.572 30.964 189.092 30.676C188.62 30.388 188.248 29.984 187.976 29.464C187.704 28.944 187.568 28.352 187.568 27.688ZM193.136 27.7C193.136 27.204 193.036 26.772 192.836 26.404C192.636 26.036 192.364 25.756 192.02 25.564C191.684 25.364 191.312 25.264 190.904 25.264C190.496 25.264 190.124 25.36 189.788 25.552C189.452 25.744 189.184 26.024 188.984 26.392C188.784 26.76 188.684 27.192 188.684 27.688C188.684 28.192 188.784 28.632 188.984 29.008C189.184 29.376 189.452 29.66 189.788 29.86C190.124 30.052 190.496 30.148 190.904 30.148C191.312 30.148 191.684 30.052 192.02 29.86C192.364 29.66 192.636 29.376 192.836 29.008C193.036 28.632 193.136 28.196 193.136 27.7ZM196.65 23.356C196.442 23.356 196.266 23.284 196.122 23.14C195.978 22.996 195.906 22.82 195.906 22.612C195.906 22.404 195.978 22.228 196.122 22.084C196.266 21.94 196.442 21.868 196.65 21.868C196.85 21.868 197.018 21.94 197.154 22.084C197.298 22.228 197.37 22.404 197.37 22.612C197.37 22.82 197.298 22.996 197.154 23.14C197.018 23.284 196.85 23.356 196.65 23.356ZM197.178 24.424V31H196.086V24.424H197.178ZM216.323 25.324H214.943V31H213.851V25.324H212.999V24.424H213.851V23.956C213.851 23.22 214.039 22.684 214.415 22.348C214.799 22.004 215.411 21.832 216.251 21.832V22.744C215.771 22.744 215.431 22.84 215.231 23.032C215.039 23.216 214.943 23.524 214.943 23.956V24.424H216.323V25.324ZM220.465 31.108C219.849 31.108 219.289 30.968 218.785 30.688C218.289 30.408 217.897 30.012 217.609 29.5C217.329 28.98 217.189 28.38 217.189 27.7C217.189 27.028 217.333 26.436 217.621 25.924C217.917 25.404 218.317 25.008 218.821 24.736C219.325 24.456 219.889 24.316 220.513 24.316C221.137 24.316 221.701 24.456 222.205 24.736C222.709 25.008 223.105 25.4 223.393 25.912C223.689 26.424 223.837 27.02 223.837 27.7C223.837 28.38 223.685 28.98 223.381 29.5C223.085 30.012 222.681 30.408 222.169 30.688C221.657 30.968 221.089 31.108 220.465 31.108ZM220.465 30.148C220.857 30.148 221.225 30.056 221.569 29.872C221.913 29.688 222.189 29.412 222.397 29.044C222.613 28.676 222.721 28.228 222.721 27.7C222.721 27.172 222.617 26.724 222.409 26.356C222.201 25.988 221.929 25.716 221.593 25.54C221.257 25.356 220.893 25.264 220.501 25.264C220.101 25.264 219.733 25.356 219.397 25.54C219.069 25.716 218.805 25.988 218.605 26.356C218.405 26.724 218.305 27.172 218.305 27.7C218.305 28.236 218.401 28.688 218.593 29.056C218.793 29.424 219.057 29.7 219.385 29.884C219.713 30.06 220.073 30.148 220.465 30.148ZM226.604 25.324V29.2C226.604 29.52 226.672 29.748 226.808 29.884C226.944 30.012 227.18 30.076 227.516 30.076H228.32V31H227.336C226.728 31 226.272 30.86 225.968 30.58C225.664 30.3 225.512 29.84 225.512 29.2V25.324H224.66V24.424H225.512V22.768H226.604V24.424H228.32V25.324H226.604ZM232.512 31.108C231.896 31.108 231.336 30.968 230.832 30.688C230.336 30.408 229.944 30.012 229.656 29.5C229.376 28.98 229.236 28.38 229.236 27.7C229.236 27.028 229.38 26.436 229.668 25.924C229.964 25.404 230.364 25.008 230.868 24.736C231.372 24.456 231.936 24.316 232.56 24.316C233.184 24.316 233.748 24.456 234.252 24.736C234.756 25.008 235.152 25.4 235.44 25.912C235.736 26.424 235.884 27.02 235.884 27.7C235.884 28.38 235.732 28.98 235.428 29.5C235.132 30.012 234.728 30.408 234.216 30.688C233.704 30.968 233.136 31.108 232.512 31.108ZM232.512 30.148C232.904 30.148 233.272 30.056 233.616 29.872C233.96 29.688 234.236 29.412 234.444 29.044C234.66 28.676 234.768 28.228 234.768 27.7C234.768 27.172 234.664 26.724 234.456 26.356C234.248 25.988 233.976 25.716 233.64 25.54C233.304 25.356 232.94 25.264 232.548 25.264C232.148 25.264 231.78 25.356 231.444 25.54C231.116 25.716 230.852 25.988 230.652 26.356C230.452 26.724 230.352 27.172 230.352 27.7C230.352 28.236 230.448 28.688 230.64 29.056C230.84 29.424 231.104 29.7 231.432 29.884C231.76 30.06 232.12 30.148 232.512 30.148ZM240.523 24.304C241.323 24.304 241.971 24.548 242.467 25.036C242.963 25.516 243.211 26.212 243.211 27.124V31H242.131V27.28C242.131 26.624 241.967 26.124 241.639 25.78C241.311 25.428 240.863 25.252 240.295 25.252C239.719 25.252 239.259 25.432 238.915 25.792C238.579 26.152 238.411 26.676 238.411 27.364V31H237.319V24.424H238.411V25.36C238.627 25.024 238.919 24.764 239.287 24.58C239.663 24.396 240.075 24.304 240.523 24.304ZM246.123 29.488L244.779 32.716H244.047L244.923 29.488H246.123ZM263.075 25.648C263.299 25.256 263.627 24.936 264.059 24.688C264.491 24.44 264.983 24.316 265.535 24.316C266.127 24.316 266.659 24.456 267.131 24.736C267.603 25.016 267.975 25.412 268.247 25.924C268.519 26.428 268.655 27.016 268.655 27.688C268.655 28.352 268.519 28.944 268.247 29.464C267.975 29.984 267.599 30.388 267.119 30.676C266.647 30.964 266.119 31.108 265.535 31.108C264.967 31.108 264.467 30.984 264.035 30.736C263.611 30.488 263.291 30.172 263.075 29.788V31H261.983V22.12H263.075V25.648ZM267.539 27.688C267.539 27.192 267.439 26.76 267.239 26.392C267.039 26.024 266.767 25.744 266.423 25.552C266.087 25.36 265.715 25.264 265.307 25.264C264.907 25.264 264.535 25.364 264.191 25.564C263.855 25.756 263.583 26.04 263.375 26.416C263.175 26.784 263.075 27.212 263.075 27.7C263.075 28.196 263.175 28.632 263.375 29.008C263.583 29.376 263.855 29.66 264.191 29.86C264.535 30.052 264.907 30.148 265.307 30.148C265.715 30.148 266.087 30.052 266.423 29.86C266.767 29.66 267.039 29.376 267.239 29.008C267.439 28.632 267.539 28.192 267.539 27.688ZM276.092 27.46C276.092 27.668 276.08 27.888 276.056 28.12H270.8C270.84 28.768 271.06 29.276 271.46 29.644C271.868 30.004 272.36 30.184 272.936 30.184C273.408 30.184 273.8 30.076 274.112 29.86C274.432 29.636 274.656 29.34 274.784 28.972H275.96C275.784 29.604 275.432 30.12 274.904 30.52C274.376 30.912 273.72 31.108 272.936 31.108C272.312 31.108 271.752 30.968 271.256 30.688C270.768 30.408 270.384 30.012 270.104 29.5C269.824 28.98 269.684 28.38 269.684 27.7C269.684 27.02 269.82 26.424 270.092 25.912C270.364 25.4 270.744 25.008 271.232 24.736C271.728 24.456 272.296 24.316 272.936 24.316C273.56 24.316 274.112 24.452 274.592 24.724C275.072 24.996 275.44 25.372 275.696 25.852C275.96 26.324 276.092 26.86 276.092 27.46ZM274.964 27.232C274.964 26.816 274.872 26.46 274.688 26.164C274.504 25.86 274.252 25.632 273.932 25.48C273.62 25.32 273.272 25.24 272.888 25.24C272.336 25.24 271.864 25.416 271.472 25.768C271.088 26.12 270.868 26.608 270.812 27.232H274.964ZM278.625 25.492C278.817 25.116 279.089 24.824 279.441 24.616C279.801 24.408 280.237 24.304 280.749 24.304V25.432H280.461C279.237 25.432 278.625 26.096 278.625 27.424V31H277.533V24.424H278.625V25.492ZM283.102 22.12V31H282.01V22.12H283.102ZM284.555 27.688C284.555 27.016 284.691 26.428 284.963 25.924C285.235 25.412 285.607 25.016 286.079 24.736C286.559 24.456 287.091 24.316 287.675 24.316C288.251 24.316 288.751 24.44 289.175 24.688C289.599 24.936 289.915 25.248 290.123 25.624V24.424H291.227V31H290.123V29.776C289.907 30.16 289.583 30.48 289.151 30.736C288.727 30.984 288.231 31.108 287.663 31.108C287.079 31.108 286.551 30.964 286.079 30.676C285.607 30.388 285.235 29.984 284.963 29.464C284.691 28.944 284.555 28.352 284.555 27.688ZM290.123 27.7C290.123 27.204 290.023 26.772 289.823 26.404C289.623 26.036 289.351 25.756 289.007 25.564C288.671 25.364 288.299 25.264 287.891 25.264C287.483 25.264 287.111 25.36 286.775 25.552C286.439 25.744 286.171 26.024 285.971 26.392C285.771 26.76 285.671 27.192 285.671 27.688C285.671 28.192 285.771 28.632 285.971 29.008C286.171 29.376 286.439 29.66 286.775 29.86C287.111 30.052 287.483 30.148 287.891 30.148C288.299 30.148 288.671 30.052 289.007 29.86C289.351 29.66 289.623 29.376 289.823 29.008C290.023 28.632 290.123 28.196 290.123 27.7ZM296.744 31L294.164 28.096V31H293.072V22.12H294.164V27.34L296.696 24.424H298.22L295.124 27.7L298.232 31H296.744ZM305.08 24.424V31H303.988V30.028C303.78 30.364 303.488 30.628 303.112 30.82C302.744 31.004 302.336 31.096 301.888 31.096C301.376 31.096 300.916 30.992 300.508 30.784C300.1 30.568 299.776 30.248 299.536 29.824C299.304 29.4 299.188 28.884 299.188 28.276V24.424H300.268V28.132C300.268 28.78 300.432 29.28 300.76 29.632C301.088 29.976 301.536 30.148 302.104 30.148C302.688 30.148 303.148 29.968 303.484 29.608C303.82 29.248 303.988 28.724 303.988 28.036V24.424H305.08ZM2.016 43.636C2.232 43.26 2.552 42.948 2.976 42.7C3.408 42.444 3.908 42.316 4.476 42.316C5.06 42.316 5.588 42.456 6.06 42.736C6.54 43.016 6.916 43.412 7.188 43.924C7.46 44.428 7.596 45.016 7.596 45.688C7.596 46.352 7.46 46.944 7.188 47.464C6.916 47.984 6.54 48.388 6.06 48.676C5.588 48.964 5.06 49.108 4.476 49.108C3.916 49.108 3.42 48.984 2.988 48.736C2.564 48.48 2.24 48.164 2.016 47.788V52.12H0.924V42.424H2.016V43.636ZM6.48 45.688C6.48 45.192 6.38 44.76 6.18 44.392C5.98 44.024 5.708 43.744 5.364 43.552C5.028 43.36 4.656 43.264 4.248 43.264C3.848 43.264 3.476 43.364 3.132 43.564C2.796 43.756 2.524 44.04 2.316 44.416C2.116 44.784 2.016 45.212 2.016 45.7C2.016 46.196 2.116 46.632 2.316 47.008C2.524 47.376 2.796 47.66 3.132 47.86C3.476 48.052 3.848 48.148 4.248 48.148C4.656 48.148 5.028 48.052 5.364 47.86C5.708 47.66 5.98 47.376 6.18 47.008C6.38 46.632 6.48 46.192 6.48 45.688ZM15.0334 45.46C15.0334 45.668 15.0214 45.888 14.9974 46.12H9.74138C9.78138 46.768 10.0014 47.276 10.4014 47.644C10.8094 48.004 11.3014 48.184 11.8774 48.184C12.3494 48.184 12.7414 48.076 13.0534 47.86C13.3734 47.636 13.5974 47.34 13.7254 46.972H14.9014C14.7254 47.604 14.3734 48.12 13.8454 48.52C13.3174 48.912 12.6614 49.108 11.8774 49.108C11.2534 49.108 10.6934 48.968 10.1974 48.688C9.70938 48.408 9.32538 48.012 9.04538 47.5C8.76538 46.98 8.62538 46.38 8.62538 45.7C8.62538 45.02 8.76138 44.424 9.03338 43.912C9.30538 43.4 9.68538 43.008 10.1734 42.736C10.6694 42.456 11.2374 42.316 11.8774 42.316C12.5014 42.316 13.0534 42.452 13.5334 42.724C14.0134 42.996 14.3814 43.372 14.6374 43.852C14.9014 44.324 15.0334 44.86 15.0334 45.46ZM13.9054 45.232C13.9054 44.816 13.8134 44.46 13.6294 44.164C13.4454 43.86 13.1934 43.632 12.8734 43.48C12.5614 43.32 12.2134 43.24 11.8294 43.24C11.2774 43.24 10.8054 43.416 10.4134 43.768C10.0294 44.12 9.80938 44.608 9.75338 45.232H13.9054ZM17.5668 43.492C17.7588 43.116 18.0308 42.824 18.3828 42.616C18.7428 42.408 19.1788 42.304 19.6908 42.304V43.432H19.4028C18.1788 43.432 17.5668 44.096 17.5668 45.424V49H16.4748V42.424H17.5668V43.492ZM23.2793 49.108C22.7753 49.108 22.3233 49.024 21.9233 48.856C21.5233 48.68 21.2073 48.44 20.9753 48.136C20.7433 47.824 20.6153 47.468 20.5913 47.068H21.7193C21.7513 47.396 21.9033 47.664 22.1753 47.872C22.4553 48.08 22.8193 48.184 23.2673 48.184C23.6833 48.184 24.0113 48.092 24.2513 47.908C24.4913 47.724 24.6113 47.492 24.6113 47.212C24.6113 46.924 24.4833 46.712 24.2273 46.576C23.9713 46.432 23.5753 46.292 23.0393 46.156C22.5513 46.028 22.1513 45.9 21.8393 45.772C21.5353 45.636 21.2713 45.44 21.0473 45.184C20.8313 44.92 20.7233 44.576 20.7233 44.152C20.7233 43.816 20.8233 43.508 21.0233 43.228C21.2233 42.948 21.5073 42.728 21.8753 42.568C22.2433 42.4 22.6633 42.316 23.1353 42.316C23.8633 42.316 24.4513 42.5 24.8993 42.868C25.3473 43.236 25.5873 43.74 25.6193 44.38H24.5273C24.5033 44.036 24.3633 43.76 24.1073 43.552C23.8593 43.344 23.5233 43.24 23.0993 43.24C22.7073 43.24 22.3953 43.324 22.1633 43.492C21.9313 43.66 21.8153 43.88 21.8153 44.152C21.8153 44.368 21.8833 44.548 22.0193 44.692C22.1633 44.828 22.3393 44.94 22.5473 45.028C22.7633 45.108 23.0593 45.2 23.4353 45.304C23.9073 45.432 24.2913 45.56 24.5873 45.688C24.8833 45.808 25.1353 45.992 25.3433 46.24C25.5593 46.488 25.6713 46.812 25.6793 47.212C25.6793 47.572 25.5793 47.896 25.3793 48.184C25.1793 48.472 24.8953 48.7 24.5273 48.868C24.1673 49.028 23.7513 49.108 23.2793 49.108ZM26.8129 45.688C26.8129 45.016 26.9489 44.428 27.2209 43.924C27.4929 43.412 27.8649 43.016 28.3369 42.736C28.8169 42.456 29.3489 42.316 29.9329 42.316C30.5089 42.316 31.0089 42.44 31.4329 42.688C31.8569 42.936 32.1729 43.248 32.3809 43.624V42.424H33.4849V49H32.3809V47.776C32.1649 48.16 31.8409 48.48 31.4089 48.736C30.9849 48.984 30.4889 49.108 29.9209 49.108C29.3369 49.108 28.8089 48.964 28.3369 48.676C27.8649 48.388 27.4929 47.984 27.2209 47.464C26.9489 46.944 26.8129 46.352 26.8129 45.688ZM32.3809 45.7C32.3809 45.204 32.2809 44.772 32.0809 44.404C31.8809 44.036 31.6089 43.756 31.2649 43.564C30.9289 43.364 30.5569 43.264 30.1489 43.264C29.7409 43.264 29.3689 43.36 29.0329 43.552C28.6969 43.744 28.4289 44.024 28.2289 44.392C28.0289 44.76 27.9289 45.192 27.9289 45.688C27.9289 46.192 28.0289 46.632 28.2289 47.008C28.4289 47.376 28.6969 47.66 29.0329 47.86C29.3689 48.052 29.7409 48.148 30.1489 48.148C30.5569 48.148 30.9289 48.052 31.2649 47.86C31.6089 47.66 31.8809 47.376 32.0809 47.008C32.2809 46.632 32.3809 46.196 32.3809 45.7ZM43.2383 42.304C43.7503 42.304 44.2063 42.412 44.6063 42.628C45.0063 42.836 45.3223 43.152 45.5543 43.576C45.7863 44 45.9023 44.516 45.9023 45.124V49H44.8223V45.28C44.8223 44.624 44.6583 44.124 44.3303 43.78C44.0103 43.428 43.5743 43.252 43.0223 43.252C42.4543 43.252 42.0023 43.436 41.6663 43.804C41.3303 44.164 41.1623 44.688 41.1623 45.376V49H40.0823V45.28C40.0823 44.624 39.9183 44.124 39.5903 43.78C39.2703 43.428 38.8343 43.252 38.2823 43.252C37.7143 43.252 37.2623 43.436 36.9263 43.804C36.5903 44.164 36.4223 44.688 36.4223 45.376V49H35.3303V42.424H36.4223V43.372C36.6383 43.028 36.9263 42.764 37.2863 42.58C37.6543 42.396 38.0583 42.304 38.4983 42.304C39.0503 42.304 39.5383 42.428 39.9623 42.676C40.3863 42.924 40.7023 43.288 40.9103 43.768C41.0943 43.304 41.3983 42.944 41.8223 42.688C42.2463 42.432 42.7183 42.304 43.2383 42.304ZM47.2855 45.688C47.2855 45.016 47.4215 44.428 47.6935 43.924C47.9655 43.412 48.3375 43.016 48.8095 42.736C49.2895 42.456 49.8215 42.316 50.4055 42.316C50.9815 42.316 51.4815 42.44 51.9055 42.688C52.3295 42.936 52.6455 43.248 52.8535 43.624V42.424H53.9575V49H52.8535V47.776C52.6375 48.16 52.3135 48.48 51.8815 48.736C51.4575 48.984 50.9615 49.108 50.3935 49.108C49.8095 49.108 49.2815 48.964 48.8095 48.676C48.3375 48.388 47.9655 47.984 47.6935 47.464C47.4215 46.944 47.2855 46.352 47.2855 45.688ZM52.8535 45.7C52.8535 45.204 52.7535 44.772 52.5535 44.404C52.3535 44.036 52.0815 43.756 51.7375 43.564C51.4015 43.364 51.0295 43.264 50.6215 43.264C50.2135 43.264 49.8415 43.36 49.5055 43.552C49.1695 43.744 48.9015 44.024 48.7015 44.392C48.5015 44.76 48.4015 45.192 48.4015 45.688C48.4015 46.192 48.5015 46.632 48.7015 47.008C48.9015 47.376 49.1695 47.66 49.5055 47.86C49.8415 48.052 50.2135 48.148 50.6215 48.148C51.0295 48.148 51.4015 48.052 51.7375 47.86C52.0815 47.66 52.3535 47.376 52.5535 47.008C52.7535 46.632 52.8535 46.196 52.8535 45.7ZM55.3949 45.688C55.3949 45.016 55.5309 44.428 55.8029 43.924C56.0749 43.412 56.4469 43.016 56.9189 42.736C57.3989 42.456 57.9309 42.316 58.5149 42.316C59.0909 42.316 59.5909 42.44 60.0149 42.688C60.4389 42.936 60.7549 43.248 60.9629 43.624V42.424H62.0669V49H60.9629V47.776C60.7469 48.16 60.4229 48.48 59.9909 48.736C59.5669 48.984 59.0709 49.108 58.5029 49.108C57.9189 49.108 57.3909 48.964 56.9189 48.676C56.4469 48.388 56.0749 47.984 55.8029 47.464C55.5309 46.944 55.3949 46.352 55.3949 45.688ZM60.9629 45.7C60.9629 45.204 60.8629 44.772 60.6629 44.404C60.4629 44.036 60.1909 43.756 59.8469 43.564C59.5109 43.364 59.1389 43.264 58.7309 43.264C58.3229 43.264 57.9509 43.36 57.6149 43.552C57.2789 43.744 57.0109 44.024 56.8109 44.392C56.6109 44.76 56.5109 45.192 56.5109 45.688C56.5109 46.192 56.6109 46.632 56.8109 47.008C57.0109 47.376 57.2789 47.66 57.6149 47.86C57.9509 48.052 58.3229 48.148 58.7309 48.148C59.1389 48.148 59.5109 48.052 59.8469 47.86C60.1909 47.66 60.4629 47.376 60.6629 47.008C60.8629 46.632 60.9629 46.196 60.9629 45.7ZM67.1163 42.304C67.9163 42.304 68.5643 42.548 69.0603 43.036C69.5563 43.516 69.8043 44.212 69.8043 45.124V49H68.7243V45.28C68.7243 44.624 68.5603 44.124 68.2323 43.78C67.9043 43.428 67.4563 43.252 66.8883 43.252C66.3123 43.252 65.8523 43.432 65.5083 43.792C65.1723 44.152 65.0043 44.676 65.0043 45.364V49H63.9123V42.424H65.0043V43.36C65.2203 43.024 65.5123 42.764 65.8803 42.58C66.2563 42.396 66.6683 42.304 67.1163 42.304ZM75.8793 43.648C76.1033 43.256 76.4313 42.936 76.8633 42.688C77.2953 42.44 77.7873 42.316 78.3393 42.316C78.9313 42.316 79.4633 42.456 79.9353 42.736C80.4073 43.016 80.7793 43.412 81.0513 43.924C81.3233 44.428 81.4593 45.016 81.4593 45.688C81.4593 46.352 81.3233 46.944 81.0513 47.464C80.7793 47.984 80.4033 48.388 79.9233 48.676C79.4513 48.964 78.9233 49.108 78.3393 49.108C77.7713 49.108 77.2713 48.984 76.8393 48.736C76.4153 48.488 76.0953 48.172 75.8793 47.788V49H74.7873V40.12H75.8793V43.648ZM80.3433 45.688C80.3433 45.192 80.2433 44.76 80.0433 44.392C79.8433 44.024 79.5713 43.744 79.2273 43.552C78.8913 43.36 78.5193 43.264 78.1113 43.264C77.7113 43.264 77.3393 43.364 76.9953 43.564C76.6593 43.756 76.3873 44.04 76.1793 44.416C75.9793 44.784 75.8793 45.212 75.8793 45.7C75.8793 46.196 75.9793 46.632 76.1793 47.008C76.3873 47.376 76.6593 47.66 76.9953 47.86C77.3393 48.052 77.7113 48.148 78.1113 48.148C78.5193 48.148 78.8913 48.052 79.2273 47.86C79.5713 47.66 79.8433 47.376 80.0433 47.008C80.2433 46.632 80.3433 46.192 80.3433 45.688ZM88.8967 45.46C88.8967 45.668 88.8847 45.888 88.8607 46.12H83.6047C83.6447 46.768 83.8647 47.276 84.2647 47.644C84.6727 48.004 85.1647 48.184 85.7407 48.184C86.2127 48.184 86.6047 48.076 86.9167 47.86C87.2367 47.636 87.4607 47.34 87.5887 46.972H88.7647C88.5887 47.604 88.2367 48.12 87.7087 48.52C87.1807 48.912 86.5247 49.108 85.7407 49.108C85.1167 49.108 84.5567 48.968 84.0607 48.688C83.5727 48.408 83.1887 48.012 82.9087 47.5C82.6287 46.98 82.4887 46.38 82.4887 45.7C82.4887 45.02 82.6247 44.424 82.8967 43.912C83.1687 43.4 83.5487 43.008 84.0367 42.736C84.5327 42.456 85.1007 42.316 85.7407 42.316C86.3647 42.316 86.9167 42.452 87.3967 42.724C87.8767 42.996 88.2447 43.372 88.5007 43.852C88.7647 44.324 88.8967 44.86 88.8967 45.46ZM87.7687 45.232C87.7687 44.816 87.6767 44.46 87.4927 44.164C87.3087 43.86 87.0567 43.632 86.7367 43.48C86.4247 43.32 86.0767 43.24 85.6927 43.24C85.1407 43.24 84.6687 43.416 84.2767 43.768C83.8927 44.12 83.6727 44.608 83.6167 45.232H87.7687ZM91.4301 43.492C91.6221 43.116 91.8941 42.824 92.2461 42.616C92.6061 42.408 93.0421 42.304 93.5541 42.304V43.432H93.2661C92.0421 43.432 91.4301 44.096 91.4301 45.424V49H90.3381V42.424H91.4301V43.492ZM95.3786 41.356C95.1706 41.356 94.9946 41.284 94.8506 41.14C94.7066 40.996 94.6346 40.82 94.6346 40.612C94.6346 40.404 94.7066 40.228 94.8506 40.084C94.9946 39.94 95.1706 39.868 95.3786 39.868C95.5786 39.868 95.7466 39.94 95.8826 40.084C96.0266 40.228 96.0986 40.404 96.0986 40.612C96.0986 40.82 96.0266 40.996 95.8826 41.14C95.7466 41.284 95.5786 41.356 95.3786 41.356ZM95.9066 42.424V49H94.8146V42.424H95.9066ZM101.44 49L98.8598 46.096V49H97.7678V40.12H98.8598V45.34L101.392 42.424H102.916L99.8198 45.7L102.928 49H101.44ZM109.776 42.424V49H108.684V48.028C108.476 48.364 108.184 48.628 107.808 48.82C107.44 49.004 107.032 49.096 106.584 49.096C106.072 49.096 105.612 48.992 105.204 48.784C104.796 48.568 104.472 48.248 104.232 47.824C104 47.4 103.884 46.884 103.884 46.276V42.424H104.964V46.132C104.964 46.78 105.128 47.28 105.456 47.632C105.784 47.976 106.232 48.148 106.8 48.148C107.384 48.148 107.844 47.968 108.18 47.608C108.516 47.248 108.684 46.724 108.684 46.036V42.424H109.776ZM112.951 43.324V47.2C112.951 47.52 113.019 47.748 113.155 47.884C113.291 48.012 113.527 48.076 113.863 48.076H114.667V49H113.683C113.075 49 112.619 48.86 112.315 48.58C112.011 48.3 111.859 47.84 111.859 47.2V43.324H111.007V42.424H111.859V40.768H112.951V42.424H114.667V43.324H112.951ZM116.338 49.072C116.13 49.072 115.954 49 115.81 48.856C115.666 48.712 115.594 48.536 115.594 48.328C115.594 48.12 115.666 47.944 115.81 47.8C115.954 47.656 116.13 47.584 116.338 47.584C116.538 47.584 116.706 47.656 116.842 47.8C116.986 47.944 117.058 48.12 117.058 48.328C117.058 48.536 116.986 48.712 116.842 48.856C116.706 49 116.538 49.072 116.338 49.072Z" fill="black"/>
</svg>
