<svg width="55" height="49" viewBox="0 0 55 49" fill="none" xmlns="http://www.w3.org/2000/svg">
<path d="M10.5 0H3.5C1.56406 0 0 1.56406 0 3.5V7H14V3.5C14 1.56406 12.4359 0 10.5 0Z" fill="#3356D3"/>
<path d="M0 45.5C0 47.4359 1.56406 49 3.5 49H10.5C12.4359 49 14 47.4359 14 45.5V42H0V45.5Z" fill="#3356D3"/>
<path d="M14 10.5H0V38.5H14V10.5Z" fill="#3356D3"/>
<path d="M28 0H21C19.0641 0 17.5 1.56406 17.5 3.5V7H31.5V3.5C31.5 1.56406 29.936 0 28 0Z" fill="#3356D3"/>
<path d="M17.5 45.5C17.5 47.4359 19.0641 49 21 49H28C29.936 49 31.5 47.4359 31.5 45.5V42H17.5V45.5Z" fill="#3356D3"/>
<path d="M31.5 10.5H17.5V38.5H31.5V10.5Z" fill="#3356D3"/>
<path d="M39.2742 0.350074L35.8836 1.23601C34.0133 1.7282 32.8867 3.63132 33.3789 5.50164L34.2649 8.89226L44.4258 6.24539L43.5399 2.85476C43.0477 0.984449 41.1446 -0.142114 39.2742 0.350074Z" fill="#3356D3"/>
<path d="M45.3096 9.6291L35.1477 12.273L42.1981 39.3714L52.36 36.7275L45.3096 9.6291Z" fill="#3356D3"/>
<path d="M43.9552 46.1455C44.4474 48.0158 46.3505 49.1424 48.2208 48.6502L51.6114 47.7643C53.4818 47.2721 54.6083 45.3689 54.1161 43.4986L53.2302 40.108L43.0693 42.7549L43.9552 46.1455Z" fill="#3356D3"/>
</svg>
