<svg width="57" height="57" viewBox="0 0 57 57" fill="none" xmlns="http://www.w3.org/2000/svg">
<path fill-rule="evenodd" clip-rule="evenodd" d="M54.1716 2.82734C52.3521 1.00652 49.9307 0 47.3632 0C44.7957 0 42.3743 1.00652 40.5547 2.81604L0.010437 43.3608L0.507935 56.4005L14.0691 56.5362L54.1716 16.4439C57.9254 12.6892 57.9254 6.58206 54.1716 2.82734ZM11.432 50.1014L6.68317 50.0559L6.52313 45.9281L37.5558 14.8947L42.0925 19.4298L11.432 50.1014ZM46.6534 14.8832L49.6384 11.8975C50.8804 10.6536 50.8804 8.61771 49.6384 7.36244C48.4277 6.1524 46.3125 6.1524 45.1018 7.36244L42.1168 10.3481L46.6534 14.8832Z" fill="#3356D3"/>
</svg>
