<svg width="48" height="48" viewBox="0 0 48 48" fill="none" xmlns="http://www.w3.org/2000/svg">
<path d="M27 6C27 7.6593 25.6582 9 24 9C22.3418 9 21 7.6593 21 6V3C21 1.3407 22.3418 0 24 0C25.6582 0 27 1.3407 27 3V6Z" fill="#3356D3"/>
<path fill-rule="evenodd" clip-rule="evenodd" d="M12 24C12 17.3719 17.373 12 24 12C30.627 12 36 17.3719 36 24C36 30.6281 30.627 36 24 36C17.373 36 12 30.6281 12 24ZM24 30C25.6025 30 27.1113 29.3719 28.248 28.2469C29.373 27.1124 30 25.6031 30 24C30 22.3969 29.3818 20.8781 28.248 19.7531C27.1113 18.6281 25.6025 18 24 18C22.3975 18 20.8887 18.6187 19.752 19.7531C18.627 20.8876 18 22.3969 18 24C18 25.6031 18.627 27.1124 19.752 28.2469C20.8887 29.3719 22.3975 30 24 30Z" fill="#3356D3"/>
<path d="M45 21H42C40.3418 21 39 22.3407 39 24C39 25.6593 40.3418 27 42 27H45C46.6582 27 48 25.6593 48 24C48 22.3407 46.6582 21 45 21Z" fill="#3356D3"/>
<path d="M6 21C7.6582 21 9 22.3407 9 24C9 25.6593 7.6582 27 6 27H3C1.3418 27 0 25.6593 0 24C0 22.3407 1.3418 21 3 21H6Z" fill="#3356D3"/>
<path d="M24 39C22.3418 39 21 40.3407 21 42V45C21 46.6593 22.3418 48 24 48C25.6582 48 27 46.6593 27 45V42C27 40.3407 25.6582 39 24 39Z" fill="#3356D3"/>
<path d="M38.8506 34.6031C37.6787 33.4312 35.7744 33.4312 34.6025 34.6031C33.4307 35.775 33.4307 37.6782 34.6025 38.85L36.7207 40.9688C37.8926 42.1406 39.7969 42.1406 40.9688 40.9688C42.1406 39.7969 42.1406 37.8937 40.9688 36.7218L38.8506 34.6031Z" fill="#3356D3"/>
<path d="M13.3975 13.3969C12.2256 14.5688 10.3213 14.5688 9.14941 13.3969L7.03125 11.2782C5.85938 10.1063 5.85938 8.20312 7.03125 7.03125C8.20312 5.85938 10.0957 5.85938 11.2676 7.03125L13.3975 9.14996C14.5693 10.3218 14.5693 12.225 13.3975 13.3969Z" fill="#3356D3"/>
<path d="M13.3975 34.6031C12.2256 33.4312 10.3213 33.4312 9.14941 34.6031L7.03125 36.7311C5.85938 37.903 5.85938 39.8062 7.03125 40.9781C8.20312 42.15 10.1074 42.15 11.2793 40.9781L13.3975 38.8594C14.5693 37.6782 14.5693 35.775 13.3975 34.6031Z" fill="#3356D3"/>
<path d="M38.8506 13.3969C37.6787 14.5688 35.7744 14.5688 34.6025 13.3969C33.4307 12.225 33.4307 10.3218 34.6025 9.14996L36.7207 7.03125C37.8926 5.85938 39.7969 5.85938 40.9688 7.03125C42.1406 8.20312 42.1406 10.1063 40.9688 11.2782L38.8506 13.3969Z" fill="#3356D3"/>
</svg>
