<svg width="65" height="65" viewBox="0 0 65 65" fill="none" xmlns="http://www.w3.org/2000/svg">
<path d="M15.7422 4.0625H49.2832C53.4854 4.0625 56.8877 7.46484 56.8877 11.667V53.3457C56.8877 57.5479 53.4854 60.9502 49.2832 60.9502H15.7295C11.5273 60.9502 8.125 57.5479 8.125 53.3457V11.667C8.1377 7.46484 11.54 4.0625 15.7422 4.0625ZM40.6377 16.25H24.3877C22.1406 16.25 20.3252 14.4346 20.3252 12.1875H16.2627V52.8125H48.7627V12.1875H44.7002C44.7002 14.4346 42.8848 16.25 40.6377 16.25ZM26.4189 24.375H38.6064C41.2725 24.375 41.2725 28.4375 38.6064 28.4375H26.4189C23.7529 28.4375 23.7529 24.375 26.4189 24.375ZM26.4189 32.5H38.6064C41.2725 32.5 41.2725 36.5625 38.6064 36.5625H26.4189C23.7529 36.5625 23.7529 32.5 26.4189 32.5ZM34.5439 40.625H38.6064C41.2725 40.625 41.2725 44.6875 38.6064 44.6875H34.5439C31.8779 44.6875 31.8779 40.625 34.5439 40.625Z" fill="#3356D3"/>
</svg>
