<svg width="48" height="48" viewBox="0 0 48 48" fill="none" xmlns="http://www.w3.org/2000/svg">
<path fill-rule="evenodd" clip-rule="evenodd" d="M39 0H5.94434C2.66309 0 0 2.66235 0 5.9436V42C0 45.2812 2.66309 47.9436 5.94434 47.9436H41.5869C44.8682 47.9436 48 45.2812 48 42V9L39 0ZM42 41.7561C41.8887 41.8499 41.71 41.9436 41.5869 41.9436H6V6H30V18H42V41.7561ZM36 6V12H42L36 6Z" fill="#3356D3"/>
<path d="M17.648 20.2V17.878H21.986V31H19.394V20.2H17.648Z" fill="white"/>
<path d="M17.648 20.2H15.648V22.2H17.648V20.2ZM17.648 17.878V15.878H15.648V17.878H17.648ZM21.986 17.878H23.986V15.878H21.986V17.878ZM21.986 31V33H23.986V31H21.986ZM19.394 31H17.394V33H19.394V31ZM19.394 20.2H21.394V18.2H19.394V20.2ZM19.648 20.2V17.878H15.648V20.2H19.648ZM17.648 19.878H21.986V15.878H17.648V19.878ZM19.986 17.878V31H23.986V17.878H19.986ZM21.986 29H19.394V33H21.986V29ZM21.394 31V20.2H17.394V31H21.394ZM19.394 18.2H17.648V22.2H19.394V18.2Z" fill="#5292D4"/>
</svg>
