<svg width="54" height="54" viewBox="0 0 54 54" fill="none" xmlns="http://www.w3.org/2000/svg">
<path fill-rule="evenodd" clip-rule="evenodd" d="M11.8125 15.1875C18.3364 15.1875 23.625 20.4761 23.625 27C23.625 33.5239 18.3364 38.8125 11.8125 38.8125C5.28864 38.8125 0 33.5239 0 27C0 20.4761 5.28864 15.1875 11.8125 15.1875ZM34.7625 50.625L24.1629 40.0148C22.6547 38.4855 24.7429 36.0703 26.5465 37.6313L37.125 48.2098V46.9969C37.1461 44.8137 40.4156 44.7082 40.5 46.9969V52.3125C40.5 53.2406 39.7406 54 38.8125 54H33.4969C31.2609 53.9473 31.2715 50.625 33.4969 50.625H34.7625ZM34.7625 3.37607L24.1629 13.9862C22.6547 15.5155 24.7429 17.9307 26.5465 16.3698L37.125 5.7913V7.00419C37.1461 9.18738 40.4156 9.29285 40.5 7.00419V1.68858C40.5 0.760456 39.7406 0.00108337 38.8125 0.00108337H33.4969C31.2609 0.0538177 31.2715 3.37607 33.4969 3.37607H34.7625ZM32.0835 28.6653L48.2624 28.6653L47.3659 29.5618C45.7944 31.1333 48.1358 33.4958 49.7495 31.9454L53.5042 28.1907C54.1581 27.5368 54.1581 26.461 53.5042 25.8071L49.7495 22.0524C48.0725 20.4915 45.8366 22.8751 47.3659 24.436L48.2202 25.2903L32.0835 25.2903C29.7104 25.4696 29.9319 28.6548 32.0835 28.6653Z" fill="#3356D3"/>
</svg>
