<svg width="77" height="20" viewBox="0 0 77 20" fill="none" xmlns="http://www.w3.org/2000/svg">
<path d="M18.92 2.248V19H15.56V8.104L11.072 19H8.528L4.016 8.104V19H0.656V2.248H4.472L9.8 14.704L15.128 2.248H18.92ZM21.3779 12.304C21.3779 10.96 21.6419 9.768 22.1699 8.728C22.7139 7.688 23.4419 6.888 24.3539 6.328C25.2819 5.768 26.3139 5.488 27.4499 5.488C28.4419 5.488 29.3059 5.688 30.0419 6.088C30.7939 6.488 31.3939 6.992 31.8419 7.6V5.704H35.2259V19H31.8419V17.056C31.4099 17.68 30.8099 18.2 30.0419 18.616C29.2899 19.016 28.4179 19.216 27.4259 19.216C26.3059 19.216 25.2819 18.928 24.3539 18.352C23.4419 17.776 22.7139 16.968 22.1699 15.928C21.6419 14.872 21.3779 13.664 21.3779 12.304ZM31.8419 12.352C31.8419 11.536 31.6819 10.84 31.3619 10.264C31.0419 9.672 30.6099 9.224 30.0659 8.92C29.5219 8.6 28.9379 8.44 28.3139 8.44C27.6899 8.44 27.1139 8.592 26.5859 8.896C26.0579 9.2 25.6259 9.648 25.2899 10.24C24.9699 10.816 24.8099 11.504 24.8099 12.304C24.8099 13.104 24.9699 13.808 25.2899 14.416C25.6259 15.008 26.0579 15.464 26.5859 15.784C27.1299 16.104 27.7059 16.264 28.3139 16.264C28.9379 16.264 29.5219 16.112 30.0659 15.808C30.6099 15.488 31.0419 15.04 31.3619 14.464C31.6819 13.872 31.8419 13.168 31.8419 12.352ZM42.4196 8.464V14.896C42.4196 15.344 42.5236 15.672 42.7316 15.88C42.9556 16.072 43.3236 16.168 43.8356 16.168H45.3956V19H43.2836C40.4516 19 39.0356 17.624 39.0356 14.872V8.464H37.4516V5.704H39.0356V2.416H42.4196V5.704H45.3956V8.464H42.4196ZM60.1723 12.064C60.1723 12.544 60.1403 12.976 60.0763 13.36H50.3563C50.4363 14.32 50.7723 15.072 51.3643 15.616C51.9563 16.16 52.6843 16.432 53.5483 16.432C54.7963 16.432 55.6843 15.896 56.2123 14.824H59.8363C59.4523 16.104 58.7163 17.16 57.6283 17.992C56.5403 18.808 55.2043 19.216 53.6203 19.216C52.3403 19.216 51.1883 18.936 50.1643 18.376C49.1563 17.8 48.3643 16.992 47.7883 15.952C47.2283 14.912 46.9482 13.712 46.9482 12.352C46.9482 10.976 47.2283 9.768 47.7883 8.728C48.3483 7.688 49.1323 6.888 50.1403 6.328C51.1483 5.768 52.3083 5.488 53.6203 5.488C54.8843 5.488 56.0123 5.76 57.0043 6.304C58.0123 6.848 58.7883 7.624 59.3323 8.632C59.8923 9.624 60.1723 10.768 60.1723 12.064ZM56.6923 11.104C56.6763 10.24 56.3643 9.552 55.7563 9.04C55.1483 8.512 54.4043 8.248 53.5243 8.248C52.6923 8.248 51.9883 8.504 51.4123 9.016C50.8523 9.512 50.5083 10.208 50.3803 11.104H56.6923ZM65.9848 7.768C66.4168 7.064 66.9768 6.512 67.6648 6.112C68.3688 5.712 69.1688 5.512 70.0648 5.512V9.04H69.1768C68.1208 9.04 67.3208 9.288 66.7768 9.784C66.2488 10.28 65.9848 11.144 65.9848 12.376V19H62.6248V5.704H65.9848V7.768ZM74.0319 4.12C73.4399 4.12 72.9439 3.936 72.5439 3.568C72.1599 3.184 71.9679 2.712 71.9679 2.152C71.9679 1.592 72.1599 1.128 72.5439 0.759999C72.9439 0.375999 73.4399 0.183999 74.0319 0.183999C74.6239 0.183999 75.1119 0.375999 75.4959 0.759999C75.8959 1.128 76.0959 1.592 76.0959 2.152C76.0959 2.712 75.8959 3.184 75.4959 3.568C75.1119 3.936 74.6239 4.12 74.0319 4.12ZM75.6879 5.704V19H72.3279V5.704H75.6879Z" fill="white"/>
<path d="M18.92 2.248H20.92V0.248H18.92V2.248ZM18.92 19V21H20.92V19H18.92ZM15.56 19H13.56V21H15.56V19ZM15.56 8.104H17.56L13.7107 7.34229L15.56 8.104ZM11.072 19V21H12.4112L12.9213 19.7617L11.072 19ZM8.528 19L6.68017 19.7652L7.1915 21H8.528V19ZM4.016 8.104L5.86384 7.33882L2.016 8.104H4.016ZM4.016 19V21H6.016V19H4.016ZM0.656 19H-1.344V21H0.656V19ZM0.656 2.248V0.248H-1.344V2.248H0.656ZM4.472 2.248L6.31084 1.46144L5.79179 0.248H4.472V2.248ZM9.8 14.704L7.96116 15.4906L9.8 19.7895L11.6388 15.4906L9.8 14.704ZM15.128 2.248V0.248H13.8082L13.2892 1.46144L15.128 2.248ZM16.92 2.248V19H20.92V2.248H16.92ZM18.92 17H15.56V21H18.92V17ZM17.56 19V8.104H13.56V19H17.56ZM13.7107 7.34229L9.22273 18.2383L12.9213 19.7617L17.4093 8.8657L13.7107 7.34229ZM11.072 17H8.528V21H11.072V17ZM10.3758 18.2348L5.86384 7.33882L2.16816 8.86918L6.68017 19.7652L10.3758 18.2348ZM2.016 8.104V19H6.016V8.104H2.016ZM4.016 17H0.656V21H4.016V17ZM2.656 19V2.248H-1.344V19H2.656ZM0.656 4.248H4.472V0.248H0.656V4.248ZM2.63316 3.03456L7.96116 15.4906L11.6388 13.9174L6.31084 1.46144L2.63316 3.03456ZM11.6388 15.4906L16.9668 3.03456L13.2892 1.46144L7.96116 13.9174L11.6388 15.4906ZM15.128 4.248H18.92V0.248H15.128V4.248ZM22.1699 8.728L20.3977 7.801L20.3921 7.81178L20.3866 7.82261L22.1699 8.728ZM24.3539 6.328L23.3206 4.61563L23.314 4.61962L23.3074 4.62366L24.3539 6.328ZM30.0419 6.088L29.0869 7.84525L29.0948 7.84953L29.1027 7.85374L30.0419 6.088ZM31.8419 7.6L30.2318 8.7864L33.8419 13.6858V7.6H31.8419ZM31.8419 5.704V3.704H29.8419V5.704H31.8419ZM35.2259 5.704H37.2259V3.704H35.2259V5.704ZM35.2259 19V21H37.2259V19H35.2259ZM31.8419 19H29.8419V21H31.8419V19ZM31.8419 17.056H33.8419V10.6535L30.1976 15.9176L31.8419 17.056ZM30.0419 18.616L30.9812 20.3817L30.9878 20.3782L30.9945 20.3746L30.0419 18.616ZM24.3539 18.352L23.286 20.043L23.2926 20.0472L23.2992 20.0513L24.3539 18.352ZM22.1699 15.928L20.3811 16.8224L20.3893 16.8388L20.3977 16.855L22.1699 15.928ZM31.3619 10.264L29.6025 11.215L29.608 11.2252L29.6136 11.2353L31.3619 10.264ZM30.0659 8.92L29.0519 10.6439L29.071 10.6551L29.0903 10.6659L30.0659 8.92ZM26.5859 8.896L25.588 7.16275L25.588 7.16275L26.5859 8.896ZM25.2899 10.24L23.5506 9.25279L23.5461 9.26073L23.5416 9.26871L25.2899 10.24ZM25.2899 14.416L23.5201 15.3475L23.5349 15.3756L23.5506 15.4032L25.2899 14.416ZM26.5859 15.784L25.5493 17.4944L25.5606 17.5012L25.5719 17.5079L26.5859 15.784ZM30.0659 15.808L31.0416 17.5539L31.0609 17.5431L31.08 17.5319L30.0659 15.808ZM31.3619 14.464L33.1103 15.4353L33.1159 15.4252L33.1214 15.415L31.3619 14.464ZM23.3779 12.304C23.3779 11.2266 23.588 10.3529 23.9533 9.63338L20.3866 7.82261C19.6959 9.1831 19.3779 10.6934 19.3779 12.304H23.3779ZM23.9421 9.65499C24.3355 8.90296 24.8254 8.38548 25.4005 8.03234L23.3074 4.62366C22.0585 5.39052 21.0924 6.47304 20.3977 7.801L23.9421 9.65499ZM25.3873 8.04038C25.9881 7.67779 26.6598 7.488 27.4499 7.488V3.488C25.968 3.488 24.5757 3.85821 23.3206 4.61563L25.3873 8.04038ZM27.4499 7.488C28.1698 7.488 28.6937 7.63152 29.0869 7.84525L30.997 4.33075C29.9182 3.74447 28.7141 3.488 27.4499 3.488V7.488ZM29.1027 7.85374C29.6245 8.1313 29.9828 8.44841 30.2318 8.7864L33.452 6.4136C32.8051 5.53559 31.9634 4.8447 30.9812 4.32225L29.1027 7.85374ZM33.8419 7.6V5.704H29.8419V7.6H33.8419ZM31.8419 7.704H35.2259V3.704H31.8419V7.704ZM33.2259 5.704V19H37.2259V5.704H33.2259ZM35.2259 17H31.8419V21H35.2259V17ZM33.8419 19V17.056H29.8419V19H33.8419ZM30.1976 15.9176C29.9695 16.247 29.6231 16.5683 29.0894 16.8574L30.9945 20.3746C31.9968 19.8317 32.8504 19.113 33.4863 18.1944L30.1976 15.9176ZM29.1027 16.8503C28.6842 17.0729 28.1445 17.216 27.4259 17.216V21.216C28.6914 21.216 29.8957 20.9591 30.9812 20.3817L29.1027 16.8503ZM27.4259 17.216C26.6687 17.216 26.0116 17.027 25.4087 16.6527L23.2992 20.0513C24.5523 20.829 25.9432 21.216 27.4259 21.216V17.216ZM25.4219 16.661C24.8338 16.2896 24.3376 15.7571 23.9421 15.001L20.3977 16.855C21.0902 18.1789 22.0501 19.2624 23.286 20.043L25.4219 16.661ZM23.9588 15.0336C23.5893 14.2947 23.3779 13.4008 23.3779 12.304H19.3779C19.3779 13.9272 19.6945 15.4493 20.3811 16.8224L23.9588 15.0336ZM33.8419 12.352C33.8419 11.2762 33.6303 10.2287 33.1103 9.29271L29.6136 11.2353C29.7336 11.4513 29.8419 11.7958 29.8419 12.352H33.8419ZM33.1214 9.31297C32.6358 8.41478 31.9435 7.67813 31.0416 7.17411L29.0903 10.6659C29.2764 10.7699 29.448 10.9292 29.6025 11.215L33.1214 9.31297ZM31.08 7.19613C30.2323 6.69751 29.2988 6.44 28.3139 6.44V10.44C28.5771 10.44 28.8116 10.5025 29.0519 10.6439L31.08 7.19613ZM28.3139 6.44C27.3485 6.44 26.4272 6.67961 25.588 7.16275L27.5839 10.6292C27.8007 10.5044 28.0313 10.44 28.3139 10.44V6.44ZM25.588 7.16275C24.7156 7.66507 24.0416 8.3877 23.5506 9.25279L27.0293 11.2272C27.2103 10.9083 27.4003 10.7349 27.5839 10.6292L25.588 7.16275ZM23.5416 9.26871C23.0247 10.1992 22.8099 11.2365 22.8099 12.304H26.8099C26.8099 11.7715 26.9152 11.4328 27.0383 11.2113L23.5416 9.26871ZM22.8099 12.304C22.8099 13.3751 23.0258 14.4084 23.5201 15.3475L27.0598 13.4845C26.914 13.2076 26.8099 12.8329 26.8099 12.304H22.8099ZM23.5506 15.4032C24.0375 16.2612 24.6999 16.9796 25.5493 17.4944L27.6225 14.0736C27.4159 13.9484 27.2144 13.7548 27.0293 13.4288L23.5506 15.4032ZM25.5719 17.5079C26.411 18.0015 27.3354 18.264 28.3139 18.264V14.264C28.0764 14.264 27.8489 14.2065 27.6 14.0601L25.5719 17.5079ZM28.3139 18.264C29.279 18.264 30.199 18.0247 31.0416 17.5539L29.0903 14.0621C28.8449 14.1993 28.5968 14.264 28.3139 14.264V18.264ZM31.08 17.5319C31.9453 17.0229 32.625 16.3088 33.1103 15.4353L29.6136 13.4927C29.4589 13.7712 29.2746 13.9531 29.0519 14.0841L31.08 17.5319ZM33.1214 15.415C33.6295 14.4749 33.8419 13.43 33.8419 12.352H29.8419C29.8419 12.906 29.7344 13.2691 29.6025 13.513L33.1214 15.415ZM42.4196 8.464V6.464H40.4196V8.464H42.4196ZM42.7316 15.88L41.3173 17.2942L41.3717 17.3485L41.43 17.3985L42.7316 15.88ZM45.3956 16.168H47.3956V14.168H45.3956V16.168ZM45.3956 19V21H47.3956V19H45.3956ZM39.0356 8.464H41.0356V6.464H39.0356V8.464ZM37.4516 8.464H35.4516V10.464H37.4516V8.464ZM37.4516 5.704V3.704H35.4516V5.704H37.4516ZM39.0356 5.704V7.704H41.0356V5.704H39.0356ZM39.0356 2.416V0.415999H37.0356V2.416H39.0356ZM42.4196 2.416H44.4196V0.415999H42.4196V2.416ZM42.4196 5.704H40.4196V7.704H42.4196V5.704ZM45.3956 5.704H47.3956V3.704H45.3956V5.704ZM45.3956 8.464V10.464H47.3956V8.464H45.3956ZM40.4196 8.464V14.896H44.4196V8.464H40.4196ZM40.4196 14.896C40.4196 15.602 40.5777 16.5546 41.3173 17.2942L44.1458 14.4658C44.3039 14.6239 44.3756 14.7839 44.404 14.8735C44.4295 14.9538 44.4196 14.9733 44.4196 14.896H40.4196ZM41.43 17.3985C42.2015 18.0598 43.1653 18.168 43.8356 18.168V14.168C43.6953 14.168 43.654 14.1539 43.6804 14.1608C43.7082 14.168 43.8579 14.2113 44.0331 14.3615L41.43 17.3985ZM43.8356 18.168H45.3956V14.168H43.8356V18.168ZM43.3956 16.168V19H47.3956V16.168H43.3956ZM45.3956 17H43.2836V21H45.3956V17ZM43.2836 17C42.1617 17 41.6903 16.727 41.4914 16.5337C41.3031 16.3507 41.0356 15.9249 41.0356 14.872H37.0356C37.0356 16.5711 37.476 18.2093 38.7038 19.4023C39.9208 20.585 41.5734 21 43.2836 21V17ZM41.0356 14.872V8.464H37.0356V14.872H41.0356ZM39.0356 6.464H37.4516V10.464H39.0356V6.464ZM39.4516 8.464V5.704H35.4516V8.464H39.4516ZM37.4516 7.704H39.0356V3.704H37.4516V7.704ZM41.0356 5.704V2.416H37.0356V5.704H41.0356ZM39.0356 4.416H42.4196V0.415999H39.0356V4.416ZM40.4196 2.416V5.704H44.4196V2.416H40.4196ZM42.4196 7.704H45.3956V3.704H42.4196V7.704ZM43.3956 5.704V8.464H47.3956V5.704H43.3956ZM45.3956 6.464H42.4196V10.464H45.3956V6.464ZM60.0763 13.36V15.36H61.7705L62.049 13.6888L60.0763 13.36ZM50.3563 13.36V11.36H48.1827L48.3632 13.5261L50.3563 13.36ZM51.3643 15.616L50.011 17.0887L50.011 17.0887L51.3643 15.616ZM56.2123 14.824V12.824H54.9679L54.4181 13.9403L56.2123 14.824ZM59.8363 14.824L61.7519 15.3987L62.5243 12.824H59.8363V14.824ZM57.6283 17.992L58.8283 19.592L58.8357 19.5864L58.8432 19.5807L57.6283 17.992ZM50.1643 18.376L49.172 20.1125L49.1882 20.1218L49.2046 20.1307L50.1643 18.376ZM47.7883 15.952L46.0273 16.9002L46.0329 16.9106L46.0387 16.921L47.7883 15.952ZM47.7883 8.728L46.0273 7.7798L46.0273 7.7798L47.7883 8.728ZM50.1403 6.328L51.1115 8.07632L51.1115 8.07631L50.1403 6.328ZM57.0043 6.304L56.0426 8.05766L56.0544 8.06404L57.0043 6.304ZM59.3323 8.632L57.5722 9.58186L57.5812 9.59861L57.5906 9.61519L59.3323 8.632ZM56.6923 11.104V13.104H58.7296L58.6919 11.067L56.6923 11.104ZM55.7563 9.04L54.4449 10.5501L54.4564 10.56L54.468 10.5698L55.7563 9.04ZM51.4123 9.016L52.7383 10.5132L52.741 10.5108L51.4123 9.016ZM50.3803 11.104L48.4004 10.8212L48.0742 13.104H50.3803V11.104ZM58.1723 12.064C58.1723 12.4581 58.1458 12.7775 58.1035 13.0312L62.049 13.6888C62.1347 13.1745 62.1723 12.6299 62.1723 12.064H58.1723ZM60.0763 11.36H50.3563V15.36H60.0763V11.36ZM48.3632 13.5261C48.4761 14.8816 48.9784 16.1398 50.011 17.0887L52.7175 14.1433C52.5661 14.0042 52.3964 13.7584 52.3493 13.1939L48.3632 13.5261ZM50.011 17.0887C51.0011 17.9985 52.2239 18.432 53.5483 18.432V14.432C53.1446 14.432 52.9114 14.3215 52.7175 14.1433L50.011 17.0887ZM53.5483 18.432C54.4622 18.432 55.3699 18.2335 56.1838 17.7423C57.0029 17.2478 57.5997 16.5335 58.0064 15.7077L54.4181 13.9403C54.2968 14.1865 54.1856 14.2762 54.1167 14.3177C54.0426 14.3625 53.8823 14.432 53.5483 14.432V18.432ZM56.2123 16.824H59.8363V12.824H56.2123V16.824ZM57.9206 14.2493C57.6608 15.1153 57.1758 15.8203 56.4134 16.4033L58.8432 19.5807C60.2567 18.4997 61.2437 17.0927 61.7519 15.3987L57.9206 14.2493ZM56.4283 16.392C55.7413 16.9072 54.8455 17.216 53.6203 17.216V21.216C55.563 21.216 57.3392 20.7088 58.8283 19.592L56.4283 16.392ZM53.6203 17.216C52.6424 17.216 51.8258 17.0051 51.1239 16.6213L49.2046 20.1307C50.5507 20.8669 52.0381 21.216 53.6203 21.216V17.216ZM51.1565 16.6395C50.4744 16.2497 49.9409 15.7108 49.5378 14.983L46.0387 16.921C46.7876 18.2732 47.8381 19.3503 49.172 20.1125L51.1565 16.6395ZM49.5492 15.0038C49.1684 14.2967 48.9482 13.4315 48.9482 12.352H44.9482C44.9482 13.9925 45.2881 15.5273 46.0273 16.9002L49.5492 15.0038ZM48.9482 12.352C48.9482 11.2522 49.1702 10.3801 49.5492 9.6762L46.0273 7.7798C45.2863 9.15595 44.9482 10.6998 44.9482 12.352H48.9482ZM49.5492 9.6762C49.9326 8.96425 50.4463 8.44587 51.1115 8.07632L49.169 4.57969C47.8182 5.33013 46.7639 6.41175 46.0273 7.7798L49.5492 9.6762ZM51.1115 8.07631C51.7835 7.703 52.6007 7.488 53.6203 7.488V3.488C52.0158 3.488 50.513 3.833 49.169 4.57969L51.1115 8.07631ZM53.6203 7.488C54.5882 7.488 55.3786 7.69352 56.0426 8.05762L57.9659 4.55037C56.6459 3.82648 55.1803 3.488 53.6203 3.488V7.488ZM56.0544 8.06404C56.7191 8.42277 57.2135 8.91716 57.5722 9.58186L61.0923 7.68214C60.363 6.33084 59.3054 5.27322 57.9541 4.54395L56.0544 8.06404ZM57.5906 9.61519C57.959 10.2679 58.1723 11.0643 58.1723 12.064H62.1723C62.1723 10.4717 61.8255 8.98014 61.0739 7.64881L57.5906 9.61519ZM58.6919 11.067C58.6663 9.68272 58.1355 8.42887 57.0445 7.51018L54.468 10.5698C54.593 10.6751 54.6862 10.7973 54.6926 11.141L58.6919 11.067ZM57.0676 7.52993C56.061 6.65574 54.8379 6.248 53.5243 6.248V10.248C53.9706 10.248 54.2355 10.3683 54.4449 10.5501L57.0676 7.52993ZM53.5243 6.248C52.2447 6.248 51.0561 6.65671 50.0835 7.52118L52.741 10.5108C52.9204 10.3513 53.1398 10.248 53.5243 10.248V6.248ZM50.0862 7.51882C49.1005 8.39183 48.5807 9.55837 48.4004 10.8212L52.3601 11.3868C52.4358 10.8576 52.604 10.6322 52.7383 10.5132L50.0862 7.51882ZM50.3803 13.104H56.6923V9.104H50.3803V13.104ZM65.9848 7.768H63.9848V14.8512L67.6894 8.81403L65.9848 7.768ZM67.6648 6.112L66.6767 4.37309L66.6681 4.37799L66.6595 4.38299L67.6648 6.112ZM70.0648 5.512H72.0648V3.512H70.0648V5.512ZM70.0648 9.04V11.04H72.0648V9.04H70.0648ZM66.7768 9.784L65.4292 8.30609L65.4182 8.31611L65.4074 8.3263L66.7768 9.784ZM65.9848 19V21H67.9848V19H65.9848ZM62.6248 19H60.6248V21H62.6248V19ZM62.6248 5.704V3.704H60.6248V5.704H62.6248ZM65.9848 5.704H67.9848V3.704H65.9848V5.704ZM67.6894 8.81403C67.9551 8.38096 68.2791 8.0683 68.67 7.84101L66.6595 4.38299C65.6744 4.9557 64.8784 5.74704 64.2801 6.72197L67.6894 8.81403ZM68.6528 7.85091C69.0243 7.63979 69.4773 7.512 70.0648 7.512V3.512C68.8602 3.512 67.7132 3.78421 66.6767 4.37309L68.6528 7.85091ZM68.0648 5.512V9.04H72.0648V5.512H68.0648ZM70.0648 7.04H69.1768V11.04H70.0648V7.04ZM69.1768 7.04C67.8371 7.04 66.4744 7.35313 65.4292 8.30609L68.1243 11.2619C68.1671 11.2229 68.4044 11.04 69.1768 11.04V7.04ZM65.4074 8.3263C64.2713 9.39352 63.9848 10.9579 63.9848 12.376H67.9848C67.9848 11.8913 68.038 11.5763 68.0955 11.3884C68.1504 11.2085 68.1918 11.1987 68.1461 11.2417L65.4074 8.3263ZM63.9848 12.376V19H67.9848V12.376H63.9848ZM65.9848 17H62.6248V21H65.9848V17ZM64.6248 19V5.704H60.6248V19H64.6248ZM62.6248 7.704H65.9848V3.704H62.6248V7.704ZM63.9848 5.704V7.768H67.9848V5.704H63.9848ZM72.5439 3.568L71.1297 4.98221L71.1591 5.01166L71.1898 5.03986L72.5439 3.568ZM72.5439 0.759999L73.9277 2.20398L73.9289 2.20277L72.5439 0.759999ZM75.4959 0.759999L74.0817 2.17421L74.1111 2.20366L74.1418 2.23186L75.4959 0.759999ZM75.4959 3.568L76.8797 5.01198L76.8809 5.01077L75.4959 3.568ZM75.6879 5.704H77.6879V3.704H75.6879V5.704ZM75.6879 19V21H77.6879V19H75.6879ZM72.3279 19H70.3279V21H72.3279V19ZM72.3279 5.704V3.704H70.3279V5.704H72.3279ZM74.0319 2.12C73.9452 2.12 73.912 2.10705 73.9115 2.10687C73.9104 2.10647 73.9102 2.10632 73.9105 2.10647C73.9108 2.10662 73.911 2.10675 73.9109 2.10671C73.9108 2.10666 73.9099 2.10607 73.908 2.10462C73.906 2.10316 73.9027 2.10048 73.898 2.09614L71.1898 5.03986C71.9932 5.77907 72.9869 6.12 74.0319 6.12V2.12ZM73.9581 2.15379C73.9484 2.14411 73.9476 2.14161 73.9512 2.14695C73.9529 2.14942 73.9551 2.15304 73.9576 2.1577C73.9601 2.16236 73.9624 2.16734 73.9645 2.1724C73.9665 2.17746 73.968 2.18182 73.969 2.18517C73.9699 2.1885 73.9702 2.19013 73.9701 2.18968C73.97 2.18907 73.9679 2.17742 73.9679 2.152H69.9679C69.9679 3.22393 70.3577 4.21025 71.1297 4.98221L73.9581 2.15379ZM73.9679 2.152C73.9679 2.12649 73.97 2.11636 73.9696 2.11858C73.9691 2.12126 73.9667 2.1324 73.9599 2.1487C73.9531 2.16516 73.9446 2.18034 73.9363 2.19242C73.9281 2.20423 73.9236 2.20785 73.9277 2.20398L71.1601 -0.683978C70.3597 0.0830173 69.9679 1.0791 69.9679 2.152H73.9679ZM73.9289 2.20277C73.9396 2.19258 73.9444 2.18968 73.9434 2.19036C73.9422 2.19114 73.9397 2.19241 73.9379 2.19314C73.9362 2.19379 73.9404 2.19186 73.9534 2.18957C73.9668 2.1872 73.9921 2.184 74.0319 2.184V-1.816C72.962 -1.816 71.9581 -1.45011 71.1588 -0.682776L73.9289 2.20277ZM74.0319 2.184C74.0717 2.184 74.0956 2.18721 74.1063 2.18912C74.1166 2.19096 74.1166 2.19189 74.1096 2.18913C74.1024 2.18628 74.0938 2.18191 74.0861 2.1768C74.0785 2.17179 74.0771 2.16962 74.0817 2.17421L76.9101 -0.654215C76.1154 -1.44895 75.1017 -1.816 74.0319 -1.816V2.184ZM74.1418 2.23186C74.1483 2.23791 74.1447 2.23561 74.1362 2.22384C74.1275 2.21173 74.1176 2.19515 74.1092 2.17566C74.1009 2.15627 74.097 2.14104 74.0955 2.13338C74.0941 2.12622 74.0959 2.13134 74.0959 2.152H78.0959C78.0959 1.05186 77.6756 0.0476684 76.85 -0.711863L74.1418 2.23186ZM74.0959 2.152C74.0959 2.17256 74.0941 2.17924 74.0949 2.17498C74.0958 2.17031 74.0985 2.15956 74.1044 2.1457C74.1103 2.13181 74.1166 2.12134 74.1206 2.11555C74.1245 2.11008 74.1229 2.11365 74.1108 2.12523L76.8809 5.01077C77.6782 4.24541 78.0959 3.25046 78.0959 2.152H74.0959ZM74.1121 2.12402C74.1093 2.12663 74.1116 2.12408 74.1186 2.11963C74.1258 2.11512 74.1324 2.11206 74.1363 2.11061C74.1461 2.10689 74.1191 2.12 74.0319 2.12V6.12C75.0762 6.12 76.0799 5.77839 76.8797 5.01198L74.1121 2.12402ZM73.6879 5.704V19H77.6879V5.704H73.6879ZM75.6879 17H72.3279V21H75.6879V17ZM74.3279 19V5.704H70.3279V19H74.3279ZM72.3279 7.704H75.6879V3.704H72.3279V7.704Z" fill="#5292D4"/>
</svg>
